<?xml version="1.0" encoding="UTF-8" standalone="no"?>
<svg
   version="1.0"
   width="256.000000pt"
   height="256.000000pt"
   viewBox="0 0 256.000000 256.000000"
   preserveAspectRatio="xMidYMid meet"
   id="svg3"
   sodipodi:docname="bottles.svg"
   xml:space="preserve"
   inkscape:version="1.4.2 (f4327f4, 2025-05-13)"
   xmlns:inkscape="http://www.inkscape.org/namespaces/inkscape"
   xmlns:sodipodi="http://sodipodi.sourceforge.net/DTD/sodipodi-0.dtd"
   xmlns="http://www.w3.org/2000/svg"
   xmlns:svg="http://www.w3.org/2000/svg"><defs
     id="defs3" /><sodipodi:namedview
     id="namedview3"
     pagecolor="#ffffff"
     bordercolor="#000000"
     borderopacity="0.25"
     inkscape:showpageshadow="2"
     inkscape:pageopacity="0.0"
     inkscape:pagecheckerboard="0"
     inkscape:deskcolor="#d1d1d1"
     inkscape:document-units="pt"
     inkscape:zoom="2.3642578"
     inkscape:cx="192.87237"
     inkscape:cy="170.66667"
     inkscape:window-width="1920"
     inkscape:window-height="1009"
     inkscape:window-x="-8"
     inkscape:window-y="-8"
     inkscape:window-maximized="1"
     inkscape:current-layer="svg3" /><g
     id="g10"
     transform="translate(0.95167221,0.31722427)"><path
       style="fill:#fcfcfc"
       d="M -0.0350062,127.85316 V 0.4479554 H 127.3702 254.7754 V 127.85316 255.25836 H 127.3702 -0.0350062 Z"
       id="path24" /><path
       style="fill:#d7d6d3"
       d="m 31.738339,229.10666 c -1.847124,-1.24478 -4.376862,-3.77452 -5.621639,-5.62164 l -2.26323,-3.35841 0.01332,-66.29263 0.01331,-66.292623 2.873903,-8.256577 C 28.334651,74.743662 32.461689,66.009438 35.9252,59.875393 46.577706,41.009291 47.192949,39.516929 47.594227,31.570469 l 0.365303,-7.234038 h 12.699903 12.699903 l 0.466568,7.216311 c 0.509722,7.883757 1.038181,9.154077 12.111584,29.11408 3.644531,6.569331 7.718193,15.303555 9.052582,19.409386 l 2.426161,7.465149 0.04669,-6.013213 c 0.03602,-4.639691 1.183465,-9.154902 5.023449,-19.767385 3.41865,-9.448052 4.97677,-15.278111 4.97677,-18.621778 v -4.867605 h 19.90706 19.90706 v 5.058057 c 0,3.556899 1.47703,9.174177 4.97677,18.927063 4.31095,12.013547 4.98207,14.898965 5.01642,21.56764 l 0.0397,7.698634 1.97421,-3.957924 c 2.24892,-4.50867 7.11075,-9.861335 11.1349,-12.259048 2.65455,-1.581663 2.73722,-1.894993 2.73722,-10.374493 v -8.743573 h 20.90242 20.90242 v 8.958179 c 0,4.926998 0.39946,8.958178 0.8877,8.958178 2.04409,0 10.98725,9.277166 12.93249,13.415483 2.07551,4.41546 2.10546,5.390517 2.10546,68.543108 v 64.06393 l -2.26323,3.35841 c -1.24478,1.84712 -3.77452,4.37686 -5.62164,5.62164 l -3.35841,2.26323 H 127.3702 35.096747 Z m 120.515691,-37.5509 v -31.8513 h -23.3908 -23.3908 v 31.8513 31.8513 h 23.3908 23.3908 z m -20.22006,-53.92257 c 3.8205,-3.58917 2.45872,-11.77843 -3.18896,-19.17729 -1.4599,-1.91258 -1.48959,-1.91258 -2.93639,0 -2.78077,3.67601 -5.50589,10.38378 -5.50589,13.55251 0,6.63572 6.9682,10.00548 11.63124,5.62478 z m -19.23302,-11.40226 c 1.2439,-9.07526 6.59918,-14.30342 14.65117,-14.30342 7.80172,0 13.34112,5.72004 14.59539,15.07135 l 0.5151,3.84036 h 4.84571 4.84571 V 103.96468 77.090149 h -3.48374 -3.48373 V 62.657528 48.224907 h -7.96283 -7.96283 v 14.432621 14.432621 h -11.94423 -11.94424 v 26.874531 26.87454 h 3.34844 c 3.22792,0 3.37118,-0.16588 3.98008,-4.60829 z"
       id="path23" /><path
       style="fill:#bbbab7"
       d="m 34.802354,230.65171 c -3.485543,-1.30972 -7.144494,-4.68488 -8.980712,-8.28417 -1.900283,-3.72486 -1.968172,-6.06658 -1.968172,-67.88875 0,-53.37292 0.246585,-65.01825 1.481445,-69.963208 1.350626,-5.408546 10.562273,-25.165021 15.412573,-33.055777 l 1.988432,-3.234898 h 18.263772 18.263772 l 7.655846,15.179136 c 4.210714,8.348525 8.316096,17.848717 9.123069,21.111539 1.049601,4.243831 1.467225,11.68079 1.467225,26.128018 v 20.19562 h 7.337936 7.33793 l 0.65336,-4.0859 c 1.40384,-8.77909 6.08446,-13.90884 13.2547,-14.52653 8.06424,-0.69471 13.14385,3.73418 15.45847,13.47821 l 1.2196,5.13422 h 7.17267 7.17268 l 0.30576,-20.23802 0.30576,-20.23802 3.02252,-4.894647 c 1.66239,-2.692057 5.13369,-6.461497 7.71399,-8.376535 l 4.69146,-3.481886 v -8.71119 -8.71119 h 7.46515 7.46515 V 62.5883 c 0,5.846248 -0.19395,6.437925 -2.23954,6.831923 -1.23175,0.237245 4.81502,0.492352 13.43726,0.566905 14.22148,0.122965 15.67682,0.297424 15.67682,1.879266 0,0.959045 2.11116,3.310567 4.69146,5.225604 2.5803,1.915038 6.0516,5.686307 7.71399,8.380597 l 3.02252,4.898711 v 65.449534 c 0,64.84931 -0.0191,65.47531 -2.08223,68.25975 -1.14522,1.54561 -3.56298,3.818 -5.3728,5.04975 l -3.29057,2.23955 -91.67413,-0.0786 c -50.420776,-0.0432 -92.345999,-0.33104 -93.167166,-0.6396 z M 157.23079,191.55576 v -31.8513 H 127.3702 97.509604 v 31.8513 31.8513 h 29.860596 29.86059 z m 60.71655,11.44656 v -4.47909 h -5.47445 -5.47444 v 4.47909 4.47909 h 5.47444 5.47445 z m -86.09329,-64.61223 c 4.06839,-4.06839 4.14329,-6.93234 0.37356,-14.28346 -1.85041,-3.60837 -3.89017,-6.73101 -4.53281,-6.9392 -1.38818,-0.44973 -6.02852,7.14253 -7.39892,12.10571 -0.74165,2.68601 -0.60981,4.19458 0.5651,6.46662 2.81481,5.44322 7.15403,6.48937 10.99307,2.65033 z M 99.656956,71.11803 c 1.109244,-3.284666 2.199654,-5.972119 2.423114,-5.972119 0.22347,0 0.4063,2.687453 0.4063,5.972119 0,5.663795 -0.1251,5.972119 -2.42312,5.972119 h -2.42311 z m 54.666354,2.737221 c 0.0432,-1.779194 0.3277,-2.563034 0.63218,-1.741868 0.30448,0.821166 0.95674,2.27687 1.44947,3.234898 0.66426,1.291542 0.50083,1.741868 -0.63218,1.741868 -1.0765,0 -1.50483,-0.955927 -1.44947,-3.234898 z m -46.86017,-30.60711 v -4.976765 h 19.90706 19.90706 v 4.976765 4.976766 H 127.3702 107.46314 Z M 47.741946,28.317844 v -3.981413 h 12.939591 12.939591 v 3.981413 3.981413 H 60.681537 47.741946 Z"
       id="path22" /><path
       style="fill:#fdbb6c"
       d="m 34.802354,230.65171 c -3.485543,-1.30972 -7.144494,-4.68488 -8.980712,-8.28417 -1.900283,-3.72486 -1.968172,-6.06658 -1.968172,-67.88875 0,-53.37292 0.246585,-65.01825 1.481445,-69.963208 1.350626,-5.408546 10.562273,-25.165021 15.412573,-33.055777 l 1.988432,-3.234898 h 18.263772 18.263772 l 7.655846,15.179136 c 4.210714,8.348525 8.316096,17.848717 9.123069,21.111539 1.049601,4.243831 1.467225,11.68079 1.467225,26.128018 v 20.19562 h 7.306756 7.30676 l 1.22771,-5.48597 c 1.50763,-6.73683 4.9578,-11.02593 10.11131,-12.56996 8.43291,-2.52656 15.61768,2.62203 17.98782,12.89002 l 1.19244,5.16591 h 7.23727 7.23728 l 0.30576,-20.23802 0.30576,-20.23802 3.02252,-4.894647 c 1.66239,-2.692057 5.13369,-6.461497 7.71399,-8.376535 2.58031,-1.915037 4.69146,-4.266559 4.69146,-5.225604 0,-1.606031 1.65048,-1.743717 20.90242,-1.743717 19.25194,0 20.90242,0.137686 20.90242,1.743717 0,0.959045 2.11116,3.310567 4.69146,5.225604 2.5803,1.915038 6.0516,5.685856 7.71399,8.379595 l 3.02252,4.897708 0.27369,54.076969 0.27369,54.07696 h -11.96909 -11.96909 v 4.47909 4.47909 h 12.05656 12.05656 l -0.38584,6.82848 c -0.31814,5.63028 -0.88484,7.48269 -3.22959,10.55682 -4.82207,6.32206 -5.93264,6.50318 -39.87511,6.50318 H 157.23079 V 195.53718 159.70446 H 127.3702 97.509604 v 35.83272 35.83271 l -30.60711,-0.0786 c -16.83391,-0.0432 -31.278973,-0.33104 -32.10014,-0.6396 z m 97.743916,-92.89119 c 2.56376,-2.56376 2.94551,-3.56666 2.47091,-6.4913 -0.63324,-3.90221 -4.38887,-11.90471 -6.35132,-13.5334 -0.928,-0.77016 -1.66333,-0.77016 -2.59132,0 -1.96245,1.62869 -5.71808,9.63119 -6.35132,13.5334 -0.4746,2.92464 -0.0928,3.92754 2.47091,6.4913 1.66773,1.66773 3.99696,3.03223 5.17607,3.03223 1.17911,0 3.50834,-1.3645 5.17607,-3.03223 z M 107.46314,43.248141 v -4.976765 h 19.90706 19.90706 v 4.976765 4.976766 H 127.3702 107.46314 Z M 47.741946,28.317844 v -3.981413 h 12.939591 12.939591 v 3.981413 3.981413 H 60.681537 47.741946 Z"
       id="path21" /><path
       style="fill:#fdab54"
       d="m 32.771856,229.07785 c -2.945855,-1.55781 -5.059967,-3.66428 -6.599578,-6.57572 l -2.265267,-4.28369 -0.0155,-62.35248 c -0.01753,-70.514545 -0.04071,-70.245819 7.352207,-85.245607 l 4.4152,-8.958178 -0.179441,80.872545 -0.179442,80.87254 25.132667,-1e-4 25.132668,-1e-4 0.07586,-80.87244 0.07586,-80.872445 4.408734,8.958178 c 6.162834,12.522361 7.345789,19.195666 7.366496,41.555997 l 0.01728,18.66287 h 7.30676 7.30676 l 1.22771,-5.48597 c 1.50763,-6.73683 4.9578,-11.02593 10.11131,-12.56996 8.43291,-2.52656 15.61768,2.62203 17.98782,12.89002 l 1.19244,5.16591 h 7.29419 7.2942 v -18.2655 c 0,-11.23356 0.44398,-19.568078 1.15323,-21.648935 1.7885,-5.247285 6.23367,-11.174073 10.70439,-14.272286 2.29725,-1.591993 4.06803,-3.626763 4.06803,-4.674485 0,-1.751315 1.17193,-1.855337 20.90242,-1.855337 19.73049,0 20.90242,0.104022 20.90242,1.855337 0,1.047722 1.77078,3.082492 4.06803,4.674485 4.47072,3.098213 8.91589,9.025001 10.7044,14.272286 0.81628,2.3949 1.15322,18.607535 1.15322,55.490935 v 52.10751 h -11.94424 -11.94424 v 4.47909 4.47909 h 11.94424 11.94424 v 5.5141 c 0,6.66888 -2.59075,12.27022 -7.19378,15.55333 -3.22581,2.30082 -3.56421,2.32617 -34.85989,2.61187 l -31.60247,0.2885 V 195.57684 159.70446 H 127.3702 97.509604 v 35.83272 35.83271 H 67.307885 c -29.606852,0 -30.287089,-0.0452 -34.536029,-2.29204 z m 99.774414,-91.31733 c 2.56376,-2.56376 2.94551,-3.56666 2.47091,-6.4913 -0.63324,-3.90221 -4.38887,-11.90471 -6.35132,-13.5334 -0.928,-0.77016 -1.66333,-0.77016 -2.59132,0 -1.96245,1.62869 -5.71808,9.63119 -6.35132,13.5334 -0.4746,2.92464 -0.0928,3.92754 2.47091,6.4913 1.66773,1.66773 3.99696,3.03223 5.17607,3.03223 1.17911,0 3.50834,-1.3645 5.17607,-3.03223 z m -78.785256,8.70085 c -7.765301,-2.47554 -14.01994,-12.84985 -12.689607,-21.04772 1.414634,-8.71737 6.48122,-14.36899 14.900227,-16.62073 14.680797,-3.92651 27.75314,9.77832 23.571867,24.71236 -3.001658,10.72087 -14.565657,16.53195 -25.782487,12.95609 z M 107.46314,43.248141 v -4.976765 h 19.90706 19.90706 v 4.976765 4.976766 H 127.3702 107.46314 Z M 47.741946,28.317844 v -3.981413 h 12.939591 12.939591 v 3.981413 3.981413 H 60.681537 47.741946 Z"
       id="path20" /><path
       style="fill:#51dc88"
       d="m 35.393306,230.33346 c -6.050856,-1.81 -11.515166,-9.56365 -11.534285,-16.36672 -0.004,-1.42807 0.504952,-1.0145 1.837456,1.49303 1.013654,1.90751 3.319437,4.476 5.123962,5.70775 3.233198,2.20695 3.742432,2.23954 34.98506,2.23954 h 31.704105 v 3.98142 3.98141 l -29.611757,-0.0856 c -16.286466,-0.0471 -30.913509,-0.47495 -32.504541,-0.95088 z M 157.23079,195.57684 V 159.70446 H 127.3702 97.509604 v -14.43262 -14.43262 h 7.306756 7.30676 l 1.22771,-5.48597 c 1.50763,-6.73683 4.9578,-11.02593 10.11131,-12.56996 8.43291,-2.52656 15.61768,2.62203 17.98782,12.89002 l 1.19244,5.16591 h 7.29419 7.2942 v -18.2655 c 0,-11.23356 0.44398,-19.568078 1.15323,-21.648935 1.7885,-5.247285 6.23367,-11.174073 10.70439,-14.272286 2.29725,-1.591993 4.06803,-3.626763 4.06803,-4.674485 0,-1.751315 1.17193,-1.855337 20.90242,-1.855337 20.06737,0 20.90242,0.07762 20.90242,1.942889 0,1.170184 1.7079,3.117956 4.29435,4.89748 4.59313,3.160154 8.57792,8.475628 10.46654,13.961739 0.83152,2.41544 1.16476,18.291215 1.16476,55.490935 v 52.10751 h -11.94424 -11.94424 v 4.47909 4.47909 h 11.94424 11.94424 v 5.5141 c 0,6.66888 -2.59075,12.27022 -7.19378,15.55333 -3.22581,2.30082 -3.56421,2.32617 -34.85989,2.61187 l -31.60247,0.2885 z m -24.68452,-57.81632 c 2.56376,-2.56376 2.94551,-3.56666 2.47091,-6.4913 -0.63324,-3.90221 -4.38887,-11.90471 -6.35132,-13.5334 -0.928,-0.77016 -1.66333,-0.77016 -2.59132,0 -1.96245,1.62869 -5.71808,9.63119 -6.35132,13.5334 -0.4746,2.92464 -0.0928,3.92754 2.47091,6.4913 1.66773,1.66773 3.99696,3.03223 5.17607,3.03223 1.17911,0 3.50834,-1.3645 5.17607,-3.03223 z m -78.785256,8.70085 c -7.765301,-2.47554 -14.01994,-12.84985 -12.689607,-21.04772 1.414634,-8.71737 6.48122,-14.36899 14.900227,-16.62073 14.680797,-3.92651 27.75314,9.77832 23.571867,24.71236 -3.001658,10.72087 -14.565657,16.53195 -25.782487,12.95609 z M 107.46314,43.248141 v -4.976765 h 19.90706 19.90706 v 4.976765 4.976766 H 127.3702 107.46314 Z M 47.741946,28.317844 v -3.981413 h 12.939591 12.939591 v 3.981413 3.981413 H 60.681537 47.741946 Z"
       id="path19" /><path
       style="fill:#3281e1"
       d="m 35.393306,230.33346 c -6.050856,-1.81 -11.515166,-9.56365 -11.534285,-16.36672 -0.004,-1.42807 0.504952,-1.0145 1.837456,1.49303 1.013654,1.90751 3.319437,4.476 5.123962,5.70775 3.233198,2.20695 3.742432,2.23954 34.98506,2.23954 h 31.704105 v 3.98142 3.98141 l -29.611757,-0.0856 c -16.286466,-0.0471 -30.913509,-0.47495 -32.504541,-0.95088 z M 157.23079,195.57684 V 159.70446 H 127.3702 97.509604 v -14.43262 -14.43262 h 7.306756 7.30676 l 1.22771,-5.48597 c 1.50763,-6.73683 4.9578,-11.02593 10.11131,-12.56996 8.43291,-2.52656 15.61768,2.62203 17.98782,12.89002 l 1.19244,5.16591 h 7.29419 7.2942 v -18.2655 c 0,-11.23356 0.44398,-19.568078 1.15323,-21.648935 1.7885,-5.247285 6.23367,-11.174073 10.70439,-14.272286 2.29725,-1.591993 4.06803,-3.626763 4.06803,-4.674485 0,-1.751315 1.17193,-1.855337 20.90242,-1.855337 20.06737,0 20.90242,0.07762 20.90242,1.942889 0,1.170184 1.7079,3.117956 4.29435,4.89748 4.59313,3.160154 8.57792,8.475628 10.46654,13.961739 0.83152,2.41544 1.16476,18.291215 1.16476,55.490935 v 52.10751 h -11.94424 -11.94424 v 4.47909 4.47909 h 11.94424 11.94424 v 5.5141 c 0,6.66888 -2.59075,12.27022 -7.19378,15.55333 -3.22581,2.30082 -3.56421,2.32617 -34.85989,2.61187 l -31.60247,0.2885 z m -24.68452,-57.81632 c 2.56376,-2.56376 2.94551,-3.56666 2.47091,-6.4913 -0.63324,-3.90221 -4.38887,-11.90471 -6.35132,-13.5334 -0.928,-0.77016 -1.66333,-0.77016 -2.59132,0 -1.96245,1.62869 -5.71808,9.63119 -6.35132,13.5334 -0.4746,2.92464 -0.0928,3.92754 2.47091,6.4913 1.66773,1.66773 3.99696,3.03223 5.17607,3.03223 1.17911,0 3.50834,-1.3645 5.17607,-3.03223 z m -78.785256,8.70085 c -7.765301,-2.47554 -14.01994,-12.84985 -12.689607,-21.04772 1.414634,-8.71737 6.48122,-14.36899 14.900227,-16.62073 14.680797,-3.92651 27.75314,9.77832 23.571867,24.71236 -3.001658,10.72087 -14.565657,16.53195 -25.782487,12.95609 z M 107.46314,43.248141 v -4.976765 h 19.90706 19.90706 v 4.976765 4.976766 H 127.3702 107.46314 Z M 47.741946,28.317844 c 0,-3.317844 0.331784,-3.981413 1.990706,-3.981413 1.658922,0 1.990706,0.663569 1.990706,3.981413 0,3.317844 -0.331784,3.981413 -1.990706,3.981413 -1.658922,0 -1.990706,-0.663569 -1.990706,-3.981413 z"
       id="path18" /><path
       style="fill:#4fce77"
       d="m 35.393306,230.33346 c -6.050856,-1.81 -11.515166,-9.56365 -11.534285,-16.36672 -0.004,-1.42807 0.504952,-1.0145 1.837456,1.49303 1.013654,1.90751 3.319437,4.476 5.123962,5.70775 3.233198,2.20695 3.742432,2.23954 34.98506,2.23954 h 31.704105 v 3.98142 3.98141 l -29.611757,-0.0856 c -16.286466,-0.0471 -30.913509,-0.47495 -32.504541,-0.95088 z M 157.23079,195.57684 v -35.87238 l -3.23489,-0.0136 c -7.92955,-0.0333 -7.71399,0.38675 -7.71399,-15.0328 v -13.81885 h 5.47444 5.47444 v -18.2655 c 0,-11.23356 0.44398,-19.568078 1.15323,-21.648935 1.7885,-5.247285 6.23367,-11.174073 10.70439,-14.272286 2.29725,-1.591993 4.06803,-3.626763 4.06803,-4.674485 0,-1.751315 1.17193,-1.855337 20.90242,-1.855337 20.06737,0 20.90242,0.07762 20.90242,1.942889 0,1.170184 1.7079,3.117956 4.29435,4.89748 4.59313,3.160154 8.57792,8.475628 10.46654,13.961739 0.83152,2.41544 1.16476,18.291215 1.16476,55.490935 v 52.10751 h -11.94424 -11.94424 v 4.47909 4.47909 h 11.94424 11.94424 v 5.5141 c 0,6.66888 -2.59075,12.27022 -7.19378,15.55333 -3.22581,2.30082 -3.56421,2.32617 -34.85989,2.61187 l -31.60247,0.2885 z m -59.721186,-50.305 v -14.43262 h 7.496386 c 8.08378,0 7.82703,0.18456 8.93195,-6.42062 0.94608,-5.65565 6.95198,-11.49574 11.82213,-11.49574 2.86666,0 3.60083,0.38334 3.60083,1.88011 0,1.17358 -0.64862,1.82816 -1.72599,1.74187 -2.37466,-0.1902 -8.16275,10.67593 -8.19955,15.39323 -0.0344,4.41274 3.67257,8.85468 7.38963,8.85468 2.5266,0 2.53591,0.0323 2.53591,8.80806 v 8.80805 l -9.70469,0.64265 c -5.33758,0.35346 -12.50412,0.64497 -15.92565,0.6478 l -6.220956,0.005 z m -43.74859,1.18953 c -7.765301,-2.47554 -14.01994,-12.84985 -12.689607,-21.04772 1.414634,-8.71737 6.48122,-14.36899 14.900227,-16.62073 14.680797,-3.92651 27.75314,9.77832 23.571867,24.71236 -3.001658,10.72087 -14.565657,16.53195 -25.782487,12.95609 z M 107.46314,43.248141 v -4.976765 h 10.94888 10.94888 v 4.976765 4.976766 h -10.94888 -10.94888 z m 39.11704,0 c 0,-3.010943 0.18659,-4.242692 0.41465,-2.737221 0.22806,1.505472 0.22806,3.968971 0,5.474443 -0.22806,1.505471 -0.41465,0.273722 -0.41465,-2.737222 z M 47.741946,28.317844 c 0,-3.317844 0.331784,-3.981413 1.990706,-3.981413 1.658922,0 1.990706,0.663569 1.990706,3.981413 0,3.317844 -0.331784,3.981413 -1.990706,3.981413 -1.658922,0 -1.990706,-0.663569 -1.990706,-3.981413 z"
       id="path17" /><path
       style="fill:#f14f47"
       d="m 35.393306,230.33346 c -6.050856,-1.81 -11.515166,-9.56365 -11.534285,-16.36672 -0.004,-1.42807 0.504952,-1.0145 1.837456,1.49303 1.013654,1.90751 3.319437,4.476 5.123962,5.70775 3.233198,2.20695 3.742432,2.23954 34.98506,2.23954 h 31.704105 v 3.98142 3.98141 l -29.611757,-0.0856 c -16.286466,-0.0471 -30.913509,-0.47495 -32.504541,-0.95088 z M 157.23079,195.57684 v -35.87238 l -3.23489,-0.0136 c -7.92955,-0.0333 -7.71399,0.38675 -7.71399,-15.0328 v -13.81885 h 5.47444 5.47444 v -18.2655 c 0,-11.23356 0.44398,-19.568078 1.15323,-21.648935 1.7885,-5.247285 6.23367,-11.174073 10.70439,-14.272286 2.29725,-1.591993 4.06803,-3.626763 4.06803,-4.674485 0,-1.751315 1.17193,-1.855337 20.90242,-1.855337 20.06737,0 20.90242,0.07762 20.90242,1.942889 0,1.170184 1.7079,3.117956 4.29435,4.89748 4.59313,3.160154 8.57792,8.475628 10.46654,13.961739 0.83152,2.41544 1.16476,18.291215 1.16476,55.490935 v 52.10751 h -11.94424 -11.94424 v 4.47909 4.47909 h 11.94424 11.94424 v 5.5141 c 0,6.66888 -2.59075,12.27022 -7.19378,15.55333 -3.22581,2.30082 -3.56421,2.32617 -34.85989,2.61187 l -31.60247,0.2885 z m -59.721186,-50.305 v -14.43262 h 7.496386 c 8.08378,0 7.82703,0.18456 8.93195,-6.42062 0.94608,-5.65565 6.95198,-11.49574 11.82213,-11.49574 2.86666,0 3.60083,0.38334 3.60083,1.88011 0,1.17358 -0.64862,1.82816 -1.72599,1.74187 -2.37466,-0.1902 -8.16275,10.67593 -8.19955,15.39323 -0.0344,4.41274 3.67257,8.85468 7.38963,8.85468 2.5266,0 2.53591,0.0323 2.53591,8.80806 v 8.80805 l -9.70469,0.64265 c -5.33758,0.35346 -12.50412,0.64497 -15.92565,0.6478 l -6.220956,0.005 z M 107.46314,43.248141 v -4.976765 h 10.94888 10.94888 v 4.976765 4.976766 h -10.94888 -10.94888 z m 39.11704,0 c 0,-3.010943 0.18659,-4.242692 0.41465,-2.737221 0.22806,1.505472 0.22806,3.968971 0,5.474443 -0.22806,1.505471 -0.41465,0.273722 -0.41465,-2.737222 z"
       id="path16" /><path
       style="fill:#2374d6"
       d="m 35.2751,230.31433 c -5.607102,-1.63134 -11.42163,-9.90251 -11.42163,-16.24728 0,-1.6023 0.420183,-1.28478 1.843007,1.39272 1.013654,1.90751 3.319437,4.476 5.123962,5.70775 3.233198,2.20695 3.742432,2.23954 34.98506,2.23954 h 31.704105 v 3.98142 3.98141 l -29.611757,-0.0898 C 51.611381,231.23075 36.931145,230.79614 35.2751,230.31433 Z m 121.95569,-34.77715 v -35.83272 l -3.23489,-0.0136 c -7.92955,-0.0333 -7.71399,0.38675 -7.71399,-15.0328 v -13.81885 h 5.38443 5.38444 l 0.33884,-19.65823 c 0.33212,-19.267753 0.39212,-19.748841 3.02099,-24.220564 2.69691,-4.587471 9.90442,-11.860983 11.75335,-11.860983 0.54587,0 0.99248,-1.119773 0.99248,-2.488383 v -2.488383 h 20.90242 c 20.23885,0 20.90242,0.0632 20.90242,1.990706 0,1.90776 -0.66357,1.990706 -15.92565,1.990706 h -15.92565 v 74.651491 74.65148 l 16.67216,-0.0136 c 9.16969,-0.007 17.67996,-0.28367 18.91171,-0.61376 2.06609,-0.55369 2.23955,-1.16939 2.23955,-7.94924 v -7.34906 h 4.97676 4.97677 v 5.31789 c 0,7.36363 -3.23863,13.27502 -8.91839,16.27855 -4.24894,2.24689 -4.92918,2.29204 -34.53603,2.29204 h -30.20172 z m 64.36617,2.32249 C 221.232,197.4947 220.9334,170.55075 220.9334,137.98421 V 78.772321 l 2.09386,1.894923 c 1.15163,1.042209 3.2792,3.91106 4.72793,6.375225 l 2.63406,4.480301 0.28949,53.50023 0.2895,53.50023 h -4.35386 c -2.39461,0 -4.65245,-0.2986 -5.01742,-0.66356 z M 97.509604,145.27184 v -14.43262 h 7.496386 c 8.08378,0 7.82703,0.18456 8.93195,-6.42062 0.94608,-5.65565 6.95198,-11.49574 11.82213,-11.49574 2.86666,0 3.60083,0.38334 3.60083,1.88011 0,1.17358 -0.64862,1.82816 -1.72599,1.74187 -2.37466,-0.1902 -8.16275,10.67593 -8.19955,15.39323 -0.0344,4.41274 3.67257,8.85468 7.38963,8.85468 2.5266,0 2.53591,0.0323 2.53591,8.80806 v 8.80805 l -9.70469,0.64265 c -5.33758,0.35346 -12.50412,0.64497 -15.92565,0.6478 l -6.220956,0.005 z M 107.46314,43.248141 v -4.976765 h 10.94888 10.94888 v 4.976765 4.976766 h -10.94888 -10.94888 z m 39.11704,0 c 0,-3.010943 0.18659,-4.242692 0.41465,-2.737221 0.22806,1.505472 0.22806,3.968971 0,5.474443 -0.22806,1.505471 -0.41465,0.273722 -0.41465,-2.737222 z"
       id="path15" /><path
       style="fill:#e75714"
       d="m 35.2751,230.31433 c -5.607102,-1.63134 -11.42163,-9.90251 -11.42163,-16.24728 0,-1.6023 0.420183,-1.28478 1.843007,1.39272 1.013654,1.90751 3.319437,4.476 5.123962,5.70775 3.233198,2.20695 3.742432,2.23954 34.98506,2.23954 h 31.704105 v 3.98142 3.98141 l -29.611757,-0.0898 C 51.611381,231.23075 36.931145,230.79614 35.2751,230.31433 Z m 121.95569,-34.69807 v -35.75363 l -2.98606,-0.65585 -2.98606,-0.65584 v -13.85586 -13.85586 h 2.89606 2.89605 l 0.33884,-19.65823 c 0.33212,-19.267753 0.39212,-19.748841 3.02099,-24.220564 2.69691,-4.587471 9.90442,-11.860983 11.75335,-11.860983 0.54587,0 0.99248,-1.119773 0.99248,-2.488383 v -2.488383 h 20.90242 c 20.23885,0 20.90242,0.0632 20.90242,1.990706 0,1.90776 -0.66357,1.990706 -15.92565,1.990706 h -15.92565 v 74.651491 74.65148 l 16.67216,-0.0136 c 9.16969,-0.007 17.67996,-0.28367 18.91171,-0.61376 2.06609,-0.55369 2.23955,-1.16939 2.23955,-7.94924 v -7.34906 h 4.97676 4.97677 v 5.31789 c 0,7.36363 -3.23863,13.27502 -8.91839,16.27855 -4.24894,2.24689 -4.92918,2.29204 -34.53603,2.29204 h -30.20172 z m 64.36617,2.24341 C 221.232,197.4947 220.9334,170.55075 220.9334,137.98421 V 78.772321 l 2.09386,1.894923 c 1.15163,1.042209 3.2792,3.91106 4.72793,6.375225 l 2.63406,4.480301 0.28949,53.50023 0.2895,53.50023 h -4.35386 c -2.39461,0 -4.65245,-0.2986 -5.01742,-0.66356 z M 97.509604,145.27184 v -14.43262 h 4.976766 4.97677 v 13.81052 13.81053 l -3.11048,0.6221 c -7.21174,1.44234 -6.843056,2.18641 -6.843056,-13.81053 z"
       id="path14" /><path
       style="fill:#e72c32"
       d="m 157.23079,195.61626 v -35.75363 l -2.98606,-0.65585 -2.98606,-0.65584 v -13.85586 -13.85586 h 2.89606 2.89605 l 0.33884,-19.65823 c 0.33212,-19.267753 0.39212,-19.748841 3.02099,-24.220564 2.69691,-4.587471 9.90442,-11.860983 11.75335,-11.860983 0.54587,0 0.99248,-1.119773 0.99248,-2.488383 v -2.488383 h 20.90242 c 20.23885,0 20.90242,0.0632 20.90242,1.990706 0,1.90776 -0.66357,1.990706 -15.92565,1.990706 h -15.92565 v 74.651491 74.65148 l 16.67216,-0.0136 c 9.16969,-0.007 17.67996,-0.28367 18.91171,-0.61376 2.06609,-0.55369 2.23955,-1.16939 2.23955,-7.94924 v -7.34906 h 4.97676 4.97677 v 5.31789 c 0,7.36363 -3.23863,13.27502 -8.91839,16.27855 -4.24894,2.24689 -4.92918,2.29204 -34.53603,2.29204 h -30.20172 z m 64.36617,2.24341 C 221.232,197.4947 220.9334,170.55075 220.9334,137.98421 V 78.772321 l 2.09386,1.894923 c 1.15163,1.042209 3.2792,3.91106 4.72793,6.375225 l 2.63406,4.480301 0.28949,53.50023 0.2895,53.50023 h -4.35386 c -2.39461,0 -4.65245,-0.2986 -5.01742,-0.66356 z M 97.509604,145.27184 v -14.43262 h 4.976766 4.97677 v 13.81052 13.81053 l -3.11048,0.6221 c -7.21174,1.44234 -6.843056,2.18641 -6.843056,-13.81053 z"
       id="path13" /><path
       style="fill:#6a696f"
       d="m 157.23079,227.42762 v -3.94227 l 32.29499,-0.28798 32.29498,-0.28798 3.56729,-3.45881 c 1.96201,-1.90234 3.9615,-4.81375 4.44332,-6.46979 l 0.87602,-3.01099 0.0898,2.99263 c 0.23171,7.72443 -5.07092,15.54404 -11.81032,17.41629 -1.94305,0.53979 -16.60679,0.98256 -32.64197,0.98562 l -29.11408,0.006 z M 97.509604,145.27184 v -14.43262 h 4.976766 4.97677 v 13.81052 13.81053 l -3.11048,0.6221 c -7.21174,1.44234 -6.843056,2.18641 -6.843056,-13.81053 z m 55.490936,13.7465 c -1.55375,-0.40604 -1.74187,-1.95227 -1.74187,-14.31716 v -13.86196 h 2.98606 2.98606 v 14.43262 c 0,14.99739 0.0414,14.8628 -4.23025,13.7465 z m 20.1559,-86.904957 c 0,-1.927509 0.66357,-1.990706 20.90242,-1.990706 20.23885,0 20.90242,0.0632 20.90242,1.990706 0,1.927509 -0.66357,1.990706 -20.90242,1.990706 -20.23885,0 -20.90242,-0.0632 -20.90242,-1.990706 z"
       id="path12" /><path
       style="fill:#1b62b9"
       d="m 157.23079,227.42762 v -3.94227 l 32.29499,-0.28798 32.29498,-0.28798 3.56729,-3.45881 c 1.96201,-1.90234 3.9615,-4.81375 4.44332,-6.46979 l 0.87602,-3.01099 0.0898,2.99263 c 0.23171,7.72443 -5.07092,15.54404 -11.81032,17.41629 -1.94305,0.53979 -16.60679,0.98256 -32.64197,0.98562 l -29.11408,0.006 z M 97.509604,145.27184 v -14.43262 h 4.976766 4.97677 v 13.81052 13.81053 l -3.11048,0.6221 c -7.21174,1.44234 -6.843056,2.18641 -6.843056,-13.81053 z m 55.490936,13.7465 c -1.55375,-0.40604 -1.74187,-1.95227 -1.74187,-14.31716 v -13.86196 h 2.98606 2.98606 v 14.43262 c 0,14.99739 0.0414,14.8628 -4.23025,13.7465 z"
       id="path11" /><path
       style="fill:#bf1b27"
       d="m 157.23079,227.42762 v -3.94227 l 32.29499,-0.28798 32.29498,-0.28798 3.56729,-3.45881 c 1.96201,-1.90234 3.9615,-4.81375 4.44332,-6.46979 l 0.87602,-3.01099 0.0898,2.99263 c 0.23171,7.72443 -5.07092,15.54404 -11.81032,17.41629 -1.94305,0.53979 -16.60679,0.98256 -32.64197,0.98562 l -29.11408,0.006 z"
       id="path10" /></g></svg>
