<?xml version="1.0" standalone="no"?>
<!DOCTYPE svg PUBLIC "-//W3C//DTD SVG 20010904//EN"
 "http://www.w3.org/TR/2001/REC-SVG-20010904/DTD/svg10.dtd">
<svg version="1.0" xmlns="http://www.w3.org/2000/svg"
 width="256.000000pt" height="256.000000pt" viewBox="0 0 256.000000 256.000000"
 preserveAspectRatio="xMidYMid meet">

<g transform="translate(0.000000,256.000000) scale(0.100000,-0.100000)"
fill="#000000" stroke="none">
<path d="M1090 2125 l0 -45 195 0 195 0 0 45 0 45 -195 0 -195 0 0 -45z m347
29 c-3 -3 -12 -4 -19 -1 -8 3 -5 6 6 6 11 1 17 -2 13 -5z"/>
<path d="M1750 1832 c0 -10 -10 -24 -22 -32 -23 -15 -85 -76 -103 -101 -28
-39 -35 -92 -35 -268 0 -150 -3 -183 -15 -187 -8 -3 -45 -7 -82 -7 l-68 -2 -6
40 c-13 82 -41 122 -102 144 -42 14 -82 5 -120 -28 -24 -20 -47 -75 -47 -112
0 -38 -13 -44 -92 -40 l-68 2 0 -141 0 -140 291 1 c184 1 294 -2 300 -8 7 -7
9 -134 7 -362 l-3 -351 313 0 c304 0 313 1 345 22 55 36 77 78 77 151 l0 63
-120 -4 -120 -4 0 57 0 58 88 -6 c48 -4 102 -9 120 -13 l32 -6 0 530 c0 434
-3 536 -14 563 -23 56 -70 113 -109 134 -26 14 -37 26 -37 42 l0 23 -205 0
c-190 0 -205 -1 -205 -18z m-436 -456 c42 -65 56 -100 56 -141 0 -38 -5 -47
-37 -74 -21 -17 -43 -31 -49 -31 -6 0 -28 15 -48 33 -28 27 -36 41 -36 69 0
31 32 112 51 128 3 3 8 13 12 23 9 24 32 21 51 -7z m829 -1043 c-7 -2 -19 -2
-25 0 -7 3 -2 5 12 5 14 0 19 -2 13 -5z"/>
<path d="M267 349 c10 -36 63 -83 109 -97 28 -8 133 -12 323 -12 l281 0 0 35
0 35 -329 0 c-181 0 -331 3 -333 8 -2 4 -15 18 -30 31 l-27 23 6 -23z"/>
</g>
</svg>
