<?xml version="1.0" standalone="no"?>
<!DOCTYPE svg PUBLIC "-//W3C//DTD SVG 20010904//EN"
 "http://www.w3.org/TR/2001/REC-SVG-20010904/DTD/svg10.dtd">
<svg version="1.0" xmlns="http://www.w3.org/2000/svg"
 width="250.000000pt" height="250.000000pt" viewBox="0 0 250.000000 250.000000"
 preserveAspectRatio="xMidYMid meet">

<g transform="translate(0.000000,250.000000) scale(0.100000,-0.100000)"
fill="#000000" stroke="none">
<path d="M284 2280 c3 -14 10 -52 16 -85 34 -189 44 -236 72 -314 16 -47 40
-103 54 -123 13 -21 24 -42 24 -47 0 -5 -11 -34 -25 -64 -97 -211 -102 -500
-12 -717 110 -267 315 -452 594 -536 78 -24 106 -27 243 -28 133 -1 166 2 234
22 319 92 546 315 643 629 24 80 27 103 27 253 1 185 -14 257 -78 392 l-33 70
27 51 c41 76 77 196 100 327 10 63 22 131 26 150 5 31 0 26 -40 -39 -58 -92
-128 -180 -199 -250 l-55 -54 -54 45 c-122 104 -261 173 -416 205 -119 24
-331 14 -442 -22 -133 -42 -296 -138 -364 -214 -11 -11 -23 -21 -28 -21 -15 0
-116 100 -170 168 -28 35 -73 100 -101 145 -27 45 -47 71 -43 57z m512 -1095
l61 -34 -18 -53 c-25 -73 -25 -214 1 -288 10 -30 17 -57 14 -59 -2 -2 -33 10
-69 28 -172 85 -229 298 -112 419 35 36 34 36 123 -13z m1047 -5 c36 -42 57
-97 57 -147 0 -44 -63 -162 -112 -210 -38 -37 -118 -87 -126 -78 -2 1 5 29 14
61 25 85 23 213 -4 284 -12 30 -19 56 -14 58 4 1 34 18 67 37 33 19 65 35 72
35 6 0 27 -18 46 -40z m-701 -184 c37 -20 70 -41 73 -47 11 -16 -43 -116 -78
-145 -57 -48 -109 -65 -189 -62 l-73 3 3 90 c4 104 25 218 47 251 l15 23 67
-38 c38 -21 98 -55 135 -75z m457 50 c23 -63 44 -202 39 -266 l-3 -45 -53 -3
c-116 -7 -222 49 -267 142 -15 30 -25 60 -23 66 3 9 264 158 280 159 4 1 16
-23 27 -53z"/>
<path d="M1776 452 c7 -4 14 -16 17 -27 4 -19 5 -19 6 2 0 12 7 24 14 26 6 3
-1 6 -18 6 -16 0 -25 -3 -19 -7z"/>
<path d="M1830 433 c0 -22 2 -25 10 -13 13 20 13 40 0 40 -5 0 -10 -12 -10
-27z"/>
<path d="M1862 440 c-16 -26 -15 -35 2 -21 11 9 15 9 19 -1 3 -7 6 -1 6 15 1
32 -9 35 -27 7z"/>
</g>
</svg>
