<?xml version="1.0" encoding="UTF-8" standalone="no"?>
<svg
   version="1.0"
   width="250.000000pt"
   height="250.000000pt"
   viewBox="0 0 250.000000 250.000000"
   preserveAspectRatio="xMidYMid meet"
   id="svg4"
   sodipodi:docname="clamav.svg"
   xml:space="preserve"
   inkscape:version="1.4.2 (f4327f4, 2025-05-13)"
   xmlns:inkscape="http://www.inkscape.org/namespaces/inkscape"
   xmlns:sodipodi="http://sodipodi.sourceforge.net/DTD/sodipodi-0.dtd"
   xmlns="http://www.w3.org/2000/svg"
   xmlns:svg="http://www.w3.org/2000/svg"><defs
     id="defs4" /><sodipodi:namedview
     id="namedview4"
     pagecolor="#ffffff"
     bordercolor="#000000"
     borderopacity="0.25"
     inkscape:showpageshadow="2"
     inkscape:pageopacity="0.0"
     inkscape:pagecheckerboard="0"
     inkscape:deskcolor="#d1d1d1"
     inkscape:document-units="pt"
     inkscape:zoom="1.7119055"
     inkscape:cx="156.5507"
     inkscape:cy="174.95124"
     inkscape:window-width="1920"
     inkscape:window-height="1009"
     inkscape:window-x="-8"
     inkscape:window-y="-8"
     inkscape:window-maximized="1"
     inkscape:current-layer="svg4" /><g
     id="g4"
     transform="translate(-2.190538,-3.5048663)"><path
       style="fill:#e0a3a7"
       d="M 106.92575,221.74336 C 87.432421,217.38507 69.818376,207.21429 55.781657,192.21152 29.205426,163.80621 22.063593,122.69968 37.430617,86.587704 l 3.171264,-7.45236 -3.16296,-5.604457 C 33.25344,66.114621 29.456461,54.735985 27.386279,43.405525 26.460351,38.337768 24.973314,30.508244 24.081752,26.006584 21.746628,14.21612 23.604729,12.426066 28.385494,21.860453 c 5.140579,10.144444 24.945165,34.064671 28.203608,34.064671 0.57962,0 4.631058,-2.842673 9.003197,-6.317051 10.350609,-8.22525 18.960289,-12.959776 30.715138,-16.89048 32.880453,-10.994895 66.941773,-4.036359 95.605853,19.531737 4.2165,3.466876 5.37963,2.932727 13.21881,-6.070535 7.83769,-9.001543 13.75099,-17.100043 17.8487,-24.444497 3.49028,-6.25575 5.31913,-7.651178 5.31913,-4.05855 0,4.512071 -4.44747,28.132475 -6.9438,36.878364 -1.46348,5.127302 -4.12886,12.346855 -5.92307,16.043452 l -3.2622,6.721084 3.20984,7.061264 c 9.84047,21.647898 11.77574,45.331228 5.53191,67.698168 -9.28403,33.25768 -35.7011,59.24884 -69.91983,68.79251 -8.82323,2.46082 -34.67417,2.97281 -44.06703,0.87277 z m 58.82352,-49.25412 c 0,-9.00497 -2.379,-21.76678 -4.63206,-24.84802 -1.22772,-1.67901 -2.45219,-1.2283 -14.78042,5.44051 -9.5271,5.15358 -13.44344,7.82685 -13.44746,9.17915 -0.0167,5.63007 8.9067,14.66548 16.92477,17.13718 2.6418,0.81438 7.30795,1.51393 10.36922,1.55454 l 5.56595,0.0738 z m -58.84003,4.98258 c 9.13242,-4.26176 16.74203,-14.77028 13.12467,-18.12457 -0.80447,-0.74597 -7.04199,-4.30165 -13.86115,-7.90152 -12.042859,-6.35749 -12.432248,-6.48211 -13.576053,-4.34488 -1.9051,3.55971 -4.240625,17.62444 -4.240625,25.53741 v 7.328 l 6.62613,-0.0104 c 4.7035,-0.007 8.164228,-0.72814 11.927028,-2.48409 z m -25.870038,-2.01133 c -0.496824,-1.31197 -1.210535,-6.20205 -1.586024,-10.86685 -0.634007,-7.87643 0.256404,-14.68294 3.079939,-23.54378 0.659517,-2.0697 -0.06696,-2.7409 -6.285831,-5.80757 -8.148735,-4.01832 -9.281183,-3.72542 -13.033914,3.3711 -5.894681,11.14701 -0.491983,27.60868 11.745223,35.78692 6.093851,4.07258 7.301062,4.28307 6.080607,1.06018 z M 181.6697,171.72464 c 8.23309,-8.46616 12.05283,-16.50238 11.42758,-24.04208 -0.57414,-6.92339 -4.93363,-14.36425 -8.41579,-14.36425 -1.23272,0 -4.8349,1.4839 -8.00484,3.29756 -4.32038,2.47187 -5.59372,3.73281 -5.08538,5.03586 2.62192,6.72079 3.85825,15.07717 3.45578,23.3575 -0.24397,5.01932 -0.81704,9.96093 -1.27348,10.98135 -1.69212,3.78293 2.01817,1.77842 7.89613,-4.26594 z m 4.0086,45.65365 c -2.88539,-0.4399 -4.78499,-3.52135 -3.47623,-5.63897 0.39145,-0.63338 3.27125,-0.96518 6.69457,-0.77132 5.38417,0.30491 6.04473,0.59936 6.3654,2.83746 0.55833,3.89677 -1.76873,4.7643 -9.58374,3.57283 z"
       id="path11" /><path
       style="fill:#a59c9d"
       d="m 111.49778,221.92033 c -38.897691,-6.89521 -69.291514,-35.532 -79.002061,-74.43502 -1.266208,-5.07277 -1.815707,-11.60951 -1.814775,-21.58826 0.0014,-15.49998 1.967913,-25.64387 7.315217,-37.735076 1.458485,-3.297894 2.651792,-6.680598 2.651792,-7.517121 0,-0.836522 -1.869299,-5.428702 -4.153997,-10.204843 -5.49841,-11.494376 -8.647109,-23.298383 -9.669249,-36.248589 -0.460231,-5.830994 -0.687182,-10.752715 -0.504335,-10.937157 0.182846,-0.184443 3.273599,3.958845 6.868339,9.207305 7.155061,10.44667 21.061856,25.583916 23.504291,25.583916 0.846836,0 4.381542,-2.420805 7.854901,-5.379567 C 94.002452,27.575223 135.01505,22.449396 169.4599,39.553833 c 5.2479,2.605971 13.0822,7.594131 17.40956,11.0848 4.32736,3.49067 8.38255,6.347768 9.01154,6.349108 2.03787,0.0043 16.18184,-15.704683 22.45471,-24.939364 3.35824,-4.943869 6.44669,-8.988853 6.86322,-8.988853 0.41654,0 0.37816,1.681236 -0.0853,3.736081 -0.46344,2.054845 -0.59704,4.675189 -0.29689,5.822986 1.33244,5.095262 -5.84373,31.325649 -10.95807,40.054021 l -2.66922,4.55541 3.79626,8.838612 c 6.35086,14.786336 8.23153,23.659836 8.32939,39.300326 0.10294,16.45224 -2.26708,27.667 -8.78732,41.58083 -5.36995,11.45915 -11.67125,20.22757 -20.83058,28.98622 -9.05227,8.65629 -15.07486,12.7905 -26.28685,18.04461 -16.78202,7.86432 -38.74823,10.98435 -55.91259,7.94171 z m 54.603,-50.53122 c -0.22355,-12.72786 -3.21132,-25.34863 -6.00088,-25.34863 -0.63327,0 -7.49307,3.15903 -15.244,7.02006 -9.93988,4.95143 -14.09259,7.56002 -14.09259,8.85247 0,2.49066 5.40774,9.77654 9.98508,13.45295 4.90134,3.93665 13.60143,6.69542 20.23007,6.4149 l 5.3009,-0.22433 z m -59.72163,7.43858 c 5.3477,-2.41243 14.51224,-10.78412 16.02553,-14.63912 1.58017,-4.02538 0.19434,-6.0947 -5.72352,-8.54639 -3.04215,-1.26032 -9.47321,-4.2941 -14.29122,-6.74173 -10.117352,-5.13978 -9.892796,-5.24198 -12.351536,5.62148 -1.679764,7.42171 -2.461011,23.32668 -1.242631,25.29806 1.243498,2.01202 12.307727,1.38762 17.583377,-0.9923 z m 76.37705,-6.4547 c 5.18166,-5.33934 10.14486,-13.9122 11.12651,-19.21862 1.02372,-5.53385 -1.1628,-12.59391 -5.39661,-17.42514 l -3.5064,-4.00119 -6.96476,3.6556 c -3.83062,2.01058 -6.96477,4.08402 -6.96477,4.60764 0,0.52363 0.76641,3.58839 1.70313,6.81058 1.28113,4.40695 1.57314,8.65034 1.17851,17.12607 -0.28853,6.19713 -0.88445,12.38839 -1.32425,13.75835 -0.79897,2.48873 -0.79679,2.48936 2.58752,0.73926 1.86294,-0.96337 5.26544,-3.68701 7.56112,-6.05255 z m -99.701021,6.13629 c 0,-0.21823 -0.715622,-2.42508 -1.590271,-4.9041 -2.087121,-5.91553 -2.049006,-20.33422 0.07264,-27.47857 0.9146,-3.07979 1.413521,-6.24952 1.108712,-7.04384 -0.304809,-0.79432 -3.534017,-2.94842 -7.176017,-4.7869 l -6.62182,-3.34268 -3.434625,3.74782 c -8.642457,9.43055 -6.510416,26.62377 4.567749,36.83527 4.974735,4.58555 13.073634,8.90521 13.073634,6.973 z m 102.572481,37.80395 c -2.02305,-0.30647 -2.9155,-1.06916 -2.9155,-2.49161 0,-1.77306 0.77226,-2.04994 5.71757,-2.04994 5.65146,0 7.25896,1.02583 6.22999,3.97568 -0.45099,1.2929 -3.12631,1.46051 -9.03206,0.56587 z"
       id="path10" /><path
       style="fill:#e02c38"
       d="m 113.27033,221.27124 c -46.993179,-7.32096 -82.147986,-48.13586 -82.147986,-95.37419 0,-13.13723 2.346496,-23.8297 9.073732,-41.347048 l 1.832149,-4.770813 -4.474868,-9.242052 C 34.931682,65.122528 32.041746,56.780457 30.575085,50.393704 27.824822,38.417343 25.505106,24.066628 26.206137,23.365597 c 0.245676,-0.245676 3.387834,3.847512 6.982574,9.095972 7.572393,11.055991 21.109944,25.583916 23.839849,25.583916 1.031393,0 4.490075,-2.389793 7.68596,-5.310653 17.130326,-15.656152 42.37934,-24.295143 67.10897,-22.961444 20.47927,1.104472 39.47481,8.304757 55.04597,20.865245 4.32736,3.49067 8.38255,6.347768 9.01154,6.349108 2.03787,0.0043 16.18184,-15.704683 22.45471,-24.939364 3.35824,-4.943869 6.52508,-8.988853 7.03744,-8.988853 0.51236,0 0.6839,0.400721 0.3812,0.890491 -0.30269,0.489771 -1.09599,5.378106 -1.76289,10.862967 -1.47997,12.171993 -5.23778,25.699293 -9.6821,34.853422 -1.82914,3.767559 -3.32571,7.379454 -3.32571,8.026435 0,0.64698 1.73,5.204188 3.84444,10.127128 6.06847,14.128863 7.51555,21.624463 7.45341,38.607173 -0.066,18.02748 -2.0911,26.80684 -9.78208,42.40722 -12.11753,24.57919 -35.75078,43.75467 -62.12277,50.40501 -9.81692,2.47558 -27.90155,3.46586 -37.10632,2.03187 z m 53.43768,-39.09949 c 2.78523,-1.76334 -0.33362,-27.96015 -4.1857,-35.15783 -0.5986,-1.11849 -1.90647,-2.00788 -2.90638,-1.97643 -0.99991,0.0315 -7.78153,3.2694 -15.07027,7.19542 -12.82655,6.90893 -13.24739,7.24626 -13.10069,10.50092 0.32754,7.26682 7.76072,15.01786 17.69387,18.45051 5.84687,2.02053 15.11463,2.54139 17.56917,0.98741 z m -59.72946,-2.0893 c 8.85066,-4.01996 17.5089,-14.98061 15.88226,-20.1057 -0.76866,-2.42183 -27.52054,-16.52259 -29.734644,-15.67296 -2.339359,0.89769 -4.74086,10.78333 -5.820742,23.96073 -0.761046,9.28676 -0.692089,12.34536 0.292436,12.97098 2.520661,1.60175 14.94264,0.8627 19.38069,-1.15305 z m 69.19737,-1.08701 c 8.32259,-4.24587 19.25542,-20.17662 19.25757,-28.06114 0.001,-5.42109 -2.40556,-11.30587 -6.47914,-15.84031 l -3.97627,-4.42613 -7.09244,3.71063 c -3.90084,2.04085 -7.3174,4.28925 -7.59234,4.99644 -0.27495,0.70719 0.36785,3.80821 1.42843,6.89117 2.43002,7.06367 2.40359,22.55938 -0.05,29.32769 -0.92495,2.55148 -1.68173,4.81762 -1.68173,5.03586 0,0.91666 2.45936,0.26694 6.18593,-1.63421 z m -92.072036,0.17569 c -0.0063,-0.43733 -0.721934,-3.1371 -1.590271,-5.99949 -0.868337,-2.8624 -1.578795,-9.1079 -1.578795,-13.8789 0,-4.771 0.710458,-11.0165 1.578795,-13.8789 0.868337,-2.86239 1.583959,-5.74161 1.590271,-6.39826 0.0063,-0.65664 -3.351999,-2.96136 -7.462912,-5.12158 -6.423796,-3.37561 -7.725667,-3.72936 -9.262097,-2.51673 -8.538432,6.73897 -10.846052,19.31903 -5.684286,30.98806 2.429269,5.49177 9.014422,12.39054 14.682451,15.3817 4.122313,2.17546 7.74733,2.84356 7.726844,1.4241 z m 104.615966,36.13449 c -1.32629,-1.3263 -0.70892,-1.94367 1.94367,-1.94367 1.45774,0 2.65045,0.59635 2.65045,1.32523 0,1.38631 -3.37229,1.84027 -4.59412,0.61844 z"
       id="path9" /><path
       style="fill:#d92635"
       d="m 113.27033,221.27124 c -46.993179,-7.32096 -82.147986,-48.13586 -82.147986,-95.37419 0,-13.13723 2.346496,-23.8297 9.073732,-41.347048 l 1.832149,-4.770813 -4.42908,-9.147454 c -4.531997,-9.360011 -9.67336,-27.063653 -9.67336,-33.309005 0,-7.250401 0.993256,-7.059148 7.431585,1.430963 8.792595,11.594639 19.767882,22.202201 21.590214,20.866838 6.013422,-4.406495 7.599971,-5.094734 11.953937,-5.18557 3.835071,-0.08001 5.20528,0.402334 6.825538,2.40275 2.620512,3.235356 2.556775,4.872539 -0.293054,7.527559 -1.276149,1.188913 -1.7999,2.161661 -1.163893,2.161661 1.489192,0 3.484164,5.722404 3.484164,9.994023 0,4.378227 -2.133157,7.232849 -7.079245,9.473552 -3.869756,1.753097 -5.632621,4.030163 -12.186855,15.741564 -1.712199,3.05944 -1.660376,3.4925 1.508322,12.60446 3.228784,9.28473 3.337132,9.43616 6.751927,9.43616 1.961301,0 6.944217,1.79757 11.458591,4.13366 l 7.988104,4.13366 2.074499,-3.35661 c 3.813085,-6.1697 7.268274,-8.6239 12.098911,-8.59379 5.31202,0.0331 10.25425,3.01965 10.2441,6.19041 -0.004,1.36881 -1.39348,3.20721 -3.51436,4.65106 -3.97323,2.7049 -9.807668,8.52696 -9.123272,9.10392 0.24904,0.20994 4.269452,2.90391 8.934242,5.9866 4.6648,3.08268 8.95853,6.05067 9.54163,6.59553 2.15212,2.01099 -5.44479,-0.59916 -13.6319,-4.68364 -4.582052,-2.28595 -8.969176,-3.91138 -9.749167,-3.61207 -2.286341,0.87735 -4.693819,10.87545 -5.764379,23.9391 -0.761046,9.28676 -0.692089,12.34536 0.292436,12.97098 0.708572,0.45026 4.414939,0.82596 8.236372,0.83489 5.372028,0.0126 8.197298,-0.60629 12.455448,-2.72822 5.27771,-2.62999 13.1219,-10.53997 16.08211,-16.21698 1.03892,-1.99242 1.51574,-2.21724 2.24852,-1.06018 0.77361,1.22153 0.93986,1.20105 0.98867,-0.12182 0.0323,-0.87465 0.82338,-0.15903 1.75801,1.59027 3.46368,6.48277 10.04207,13.1767 15.64155,15.91627 5.92461,2.89864 15.45543,4.4552 20.11637,3.28538 2.519,-0.63223 2.743,-1.14495 2.72372,-6.23463 -0.0489,-12.9181 -3.97043,-30.02406 -7.1639,-31.2495 -0.96025,-0.36849 -6.06726,1.71049 -12.08176,4.91829 -5.73012,3.05612 -10.4184,5.29751 -10.4184,4.98086 0,-0.31665 -1.31197,-0.0804 -2.91549,0.52491 -4.27665,1.61449 -2.12231,-0.0746 10.20405,-8.00066 l 10.99918,-7.07262 -3.04783,-3.1859 c -1.67631,-1.75224 -4.59834,-4.14555 -6.49342,-5.31846 -4.14222,-2.56373 -4.39202,-5.30199 -0.74535,-8.17046 6.46901,-5.08853 13.03658,-3.45578 18.75981,4.66382 l 3.30781,4.69283 3.25374,-2.17867 c 6.88331,-4.609 11.7297,-6.27364 15.29118,-5.25222 3.66386,1.05078 4.02377,0.57025 8.2055,-10.9558 2.32072,-6.39657 1.86866,-8.40064 -3.81014,-16.891156 -2.9155,-4.35903 -5.30091,-8.411631 -5.30091,-9.00578 0,-0.594148 -2.17159,-2.131523 -4.82577,-3.416387 -6.31591,-3.057478 -8.3536,-6.18432 -7.40674,-11.365658 0.40006,-2.189196 1.46385,-5.122679 2.36397,-6.518851 1.48378,-2.30146 1.47645,-2.628114 -0.0784,-3.498267 -2.74506,-1.536214 -2.16918,-6.869034 0.96342,-8.921595 3.38974,-2.221042 11.41652,-1.337027 15.56675,1.714415 1.57992,1.161625 3.3308,2.112045 3.89087,2.112045 1.73749,0 13.47311,-12.352045 20.13345,-21.190989 6.2394,-8.28031 6.35744,-8.370671 7.01622,-5.371225 1.35035,6.148066 -4.32997,28.141628 -10.12106,39.187675 -2.90237,5.536037 -2.94913,5.865917 -1.35258,9.541626 9.07714,20.898137 10.3076,26.324677 10.2387,45.154387 -0.066,18.02748 -2.0911,26.80684 -9.78208,42.40722 -12.11753,24.57919 -35.75078,43.75467 -62.12277,50.40501 -9.81692,2.47558 -27.90155,3.46586 -37.10632,2.03187 z m 62.90559,-42.2758 c 8.32259,-4.24587 19.25542,-20.17662 19.25757,-28.06114 0.001,-5.42109 -2.40556,-11.30587 -6.47914,-15.84031 l -3.97627,-4.42613 -7.09244,3.71063 c -3.90084,2.04085 -7.3174,4.28925 -7.59234,4.99644 -0.27495,0.70719 0.36785,3.80821 1.42843,6.89117 2.43002,7.06367 2.40359,22.55938 -0.05,29.32769 -0.92495,2.55148 -1.68173,4.81762 -1.68173,5.03586 0,0.91666 2.45936,0.26694 6.18593,-1.63421 z m -92.072036,0.17569 c -0.0063,-0.43733 -0.721934,-3.1371 -1.590271,-5.99949 -0.868337,-2.8624 -1.578795,-9.1079 -1.578795,-13.8789 0,-4.771 0.710458,-11.0165 1.578795,-13.8789 0.868337,-2.86239 1.583959,-5.74161 1.590271,-6.39826 0.0063,-0.65664 -3.351999,-2.96136 -7.462912,-5.12158 -6.423796,-3.37561 -7.725667,-3.72936 -9.262097,-2.51673 -8.538432,6.73897 -10.846052,19.31903 -5.684286,30.98806 2.429269,5.49177 9.014422,12.39054 14.682451,15.3817 4.122313,2.17546 7.74733,2.84356 7.726844,1.4241 z m 104.615966,36.13449 c -1.32629,-1.3263 -0.70892,-1.94367 1.94367,-1.94367 1.45774,0 2.65045,0.59635 2.65045,1.32523 0,1.38631 -3.37229,1.84027 -4.59412,0.61844 z"
       id="path8" /><path
       style="fill:#67595a"
       d="m 113.27033,221.27124 c -46.993179,-7.32096 -82.147986,-48.13586 -82.147986,-95.37419 0,-13.13723 2.346496,-23.8297 9.073732,-41.347048 l 1.832149,-4.770813 -4.42908,-9.147454 c -4.763794,-9.838746 -9.945856,-28.079987 -9.4486,-33.259772 0.266064,-2.771517 0.936079,-1.868577 5.209967,7.021159 7.062319,14.689704 12.65898,22.635835 22.39034,31.789768 10.220192,9.613759 10.688061,11.571187 4.743531,19.84554 -2.107016,2.932812 -5.039945,7.71825 -6.517621,10.6343 -1.477675,2.91605 -3.133345,5.57797 -3.679265,5.91536 -1.258692,0.77792 0.261329,6.56991 3.846881,14.65841 l 2.708618,6.11027 3.642078,-4.25495 c 4.712969,-5.50605 7.321697,-5.49259 17.862521,0.0921 7.67973,4.06887 8.273214,4.22154 9.272775,2.3854 2.276503,-4.18181 10.023783,-10.97317 12.51325,-10.96926 3.02574,0.005 9.41608,3.69997 9.41608,5.44485 0,0.68159 -2.86249,3.82966 -6.36109,6.99571 -3.498594,3.16605 -6.361082,6.10593 -6.361082,6.53307 0,0.42714 3.610062,3.29716 8.022362,6.37782 4.41229,3.08067 7.80123,5.82234 7.53097,6.0926 -0.27027,0.27026 -4.40898,-1.47834 -9.19714,-3.88578 -4.788164,-2.40744 -9.343926,-4.13227 -10.123917,-3.83296 -2.286341,0.87735 -4.693819,10.87545 -5.764379,23.9391 -0.761046,9.28676 -0.692089,12.34536 0.292436,12.97098 0.708572,0.45026 4.414939,0.82596 8.236372,0.83489 8.597218,0.0201 16.158278,-3.40617 21.812058,-9.88402 l 3.85091,-4.41219 -0.6012,3.97568 -0.60119,3.97568 h 6.34247 6.34247 l -0.72517,-3.97568 -0.72517,-3.97568 4.68755,4.9936 c 2.57814,2.74648 6.97386,6.00494 9.76825,7.24103 5.59885,2.47665 14.87173,3.79749 19.1397,2.7263 2.519,-0.63223 2.743,-1.14495 2.72372,-6.23463 -0.0489,-12.9181 -3.97043,-30.02406 -7.1639,-31.2495 -0.96116,-0.36884 -6.17344,1.75983 -12.34681,5.04236 -12.18427,6.47869 -11.95137,4.94804 0.48995,-3.21992 4.64198,-3.04754 8.43996,-5.91789 8.43996,-6.37855 0,-0.46066 -2.93072,-3.48972 -6.51271,-6.73123 -5.80176,-5.25029 -6.3515,-6.08806 -5.03586,-7.67445 2.39954,-2.89335 7.9095,-4.75471 10.81019,-3.65187 1.39897,0.53188 4.66553,3.39277 7.25903,6.35753 l 4.71545,5.39047 5.179,-3.28443 c 7.95113,-5.04246 9.71795,-5.47959 13.97762,-3.45825 2.04074,0.96839 4.7144,3.11866 5.94148,4.77837 1.22708,1.65972 2.55326,3.01766 2.94707,3.01766 0.91087,0 5.93557,-11.15269 7.76821,-17.24209 1.37596,-4.57195 1.35384,-4.66233 -1.54821,-6.32788 -1.61925,-0.92933 -3.76428,-3.28175 -4.76673,-5.22761 -1.00245,-1.94586 -3.89868,-6.57515 -6.43606,-10.28732 -2.53739,-3.712167 -4.61343,-7.91347 -4.61343,-9.336229 0,-1.859714 2.77624,-5.326578 9.87684,-12.333858 9.35487,-9.231922 10.31648,-10.615448 18.19603,-26.179823 4.57555,-9.038041 8.52571,-15.818285 8.77813,-15.06721 1.37728,4.098174 -5.23538,28.427169 -10.4085,38.294477 -2.90237,5.536037 -2.94913,5.865917 -1.35258,9.541626 9.07714,20.898137 10.3076,26.324677 10.2387,45.154387 -0.066,18.02748 -2.0911,26.80684 -9.78208,42.40722 -12.11753,24.57919 -35.75078,43.75467 -62.12277,50.40501 -9.81692,2.47558 -27.90155,3.46586 -37.10632,2.03187 z m 62.90559,-42.2758 c 8.32259,-4.24587 19.25542,-20.17662 19.25757,-28.06114 0.001,-5.42109 -2.40556,-11.30587 -6.47914,-15.84031 l -3.97627,-4.42613 -7.09244,3.71063 c -3.90084,2.04085 -7.3174,4.28925 -7.59234,4.99644 -0.27495,0.70719 0.36785,3.80821 1.42843,6.89117 2.43002,7.06367 2.40359,22.55938 -0.05,29.32769 -0.92495,2.55148 -1.68173,4.81762 -1.68173,5.03586 0,0.91666 2.45936,0.26694 6.18593,-1.63421 z m -92.072036,0.17569 c -0.0063,-0.43733 -0.721934,-3.1371 -1.590271,-5.99949 -0.868337,-2.8624 -1.578795,-9.1079 -1.578795,-13.8789 0,-4.771 0.710458,-11.0165 1.578795,-13.8789 0.868337,-2.86239 1.583959,-5.74161 1.590271,-6.39826 0.0063,-0.65664 -3.351999,-2.96136 -7.462912,-5.12158 -6.423796,-3.37561 -7.725667,-3.72936 -9.262097,-2.51673 -8.538432,6.73897 -10.846052,19.31903 -5.684286,30.98806 2.429269,5.49177 9.014422,12.39054 14.682451,15.3817 4.122313,2.17546 7.74733,2.84356 7.726844,1.4241 z m 104.615966,36.13449 c -1.32629,-1.3263 -0.70892,-1.94367 1.94367,-1.94367 1.45774,0 2.65045,0.59635 2.65045,1.32523 0,1.38631 -3.37229,1.84027 -4.59412,0.61844 z M 64.367768,62.373318 C 59.321866,60.081963 58.155079,58.7109 60.007923,57.250166 62.08371,55.61367 69.93046,54.764374 72.820964,55.863342 c 3.539851,1.345849 4.756634,5.275189 2.210154,7.13722 -2.603569,1.903777 -5.45963,1.735776 -10.66335,-0.627244 z m 111.629912,0.266284 c -1.35946,-1.359463 -0.68895,-4.281621 1.42047,-6.190629 1.83495,-1.660598 2.964,-1.792441 8.2164,-0.95945 7.19306,1.140763 8.00508,3.18912 2.37851,5.999902 -3.6816,1.839168 -10.65852,2.507036 -12.01538,1.150177 z"
       id="path7" /><path
       style="fill:#98282f"
       d="m 114.66336,220.24156 c -11.10338,-1.75979 -19.345594,-4.32176 -28.957729,-9.0011 -24.450553,-11.9029 -41.74819,-32.48162 -49.958097,-59.43433 -2.606399,-8.55668 -2.893526,-11.12241 -2.958768,-26.43917 -0.07837,-18.39885 1.431587,-26.387508 7.58355,-40.121903 l 2.775389,-6.19612 -3.242384,-5.995958 C 38.122009,69.755202 35.607403,63.955993 34.317308,60.165847 31.829432,52.856765 27.779709,35.574374 28.407714,34.946369 c 0.205218,-0.205218 2.507094,4.131731 5.11528,9.637666 6.806463,14.368586 12.470405,22.420376 22.227858,31.598855 10.220192,9.613759 10.688061,11.571187 4.743531,19.84554 -2.107016,2.932812 -5.039945,7.71825 -6.517621,10.6343 -1.477675,2.91605 -3.133345,5.57797 -3.679265,5.91536 -1.258692,0.77792 0.261329,6.56991 3.846881,14.65841 l 2.708618,6.11027 3.642078,-4.25495 c 4.712969,-5.50605 7.321697,-5.49259 17.862521,0.0921 7.67973,4.06887 8.273214,4.22154 9.272775,2.3854 2.276503,-4.18181 10.023783,-10.97317 12.51325,-10.96926 3.02574,0.005 9.41608,3.69997 9.41608,5.44485 0,0.68159 -2.86249,3.82966 -6.36109,6.99571 -3.498594,3.16605 -6.361082,6.10593 -6.361082,6.53307 0,0.42714 3.578112,3.27485 7.951352,6.32825 4.37325,3.0534 7.95136,5.76737 7.95136,6.03105 0,0.26368 -4.11797,-1.74713 -9.15105,-4.46846 -6.991023,-3.77999 -9.553607,-4.69395 -10.856534,-3.87209 -2.400362,1.51411 -5.401018,12.11646 -6.091356,21.52286 -0.773377,10.53788 -1.3436,11.98557 -3.135223,7.95974 -1.994895,-4.48259 -1.904907,-21.08287 0.151831,-28.00866 0.9146,-3.07979 1.413094,-6.25063 1.107764,-7.04631 -0.30533,-0.79568 -3.9583,-3.16048 -8.117712,-5.25513 -7.107195,-3.57913 -7.71355,-3.70952 -10.070003,-2.16551 -1.379089,0.90361 -3.841593,3.9126 -5.472229,6.68665 -2.544827,4.32927 -2.961011,6.17004 -2.938083,12.99507 0.02188,6.5137 0.532462,8.9098 2.823899,13.25226 4.818706,9.13185 12.764807,15.41842 22.788686,18.02931 15.933778,4.15022 29.42315,-0.18475 36.30866,-11.66822 1.1013,-1.83672 1.20011,-1.58854 0.73865,1.85531 l -0.53273,3.97568 h 6.34247 6.34247 l -0.66961,-3.97568 -0.66961,-3.97568 2.08648,3.26507 c 5.04133,7.88904 15.4533,13.16773 25.9727,13.16773 4.99364,0 8.18809,-0.70351 16.03646,-3.53171 4.82057,-1.73711 13.50205,-11.18411 17.45142,-18.99025 3.04881,-6.02615 3.50802,-7.87779 3.07397,-12.39502 -0.61438,-6.39393 -4.54136,-14.42384 -8.49889,-17.37856 l -2.88772,-2.15599 -5.18839,2.43011 c -2.85361,1.33656 -6.52877,3.4989 -8.16701,4.80519 l -2.97863,2.37507 2.04976,6.25283 c 2.53383,7.72947 2.67726,23.4174 0.26556,29.04671 l -1.58969,3.71063 -0.7458,-7.42126 c -1.72966,-17.21162 -4.80671,-27.04625 -8.45254,-27.01541 -2.16862,0.0183 -8.61861,3.21253 -17.21398,8.52476 -7.42364,4.58807 -2.67248,0.28568 5.89843,-5.34128 4.68334,-3.0747 8.51517,-5.96727 8.51517,-6.42793 0,-0.46066 -2.93072,-3.48972 -6.51271,-6.73123 -5.80176,-5.25029 -6.3515,-6.08806 -5.03586,-7.67445 2.39954,-2.89335 7.9095,-4.75471 10.81019,-3.65187 1.39897,0.53188 4.66553,3.39277 7.25903,6.35753 l 4.71545,5.39047 5.179,-3.28443 c 7.95113,-5.04246 9.71795,-5.47959 13.97762,-3.45825 2.04074,0.96839 4.7144,3.11866 5.94148,4.77837 1.22708,1.65972 2.55326,3.01766 2.94707,3.01766 0.91087,0 5.93557,-11.15269 7.76821,-17.24209 1.37596,-4.57195 1.35384,-4.66233 -1.54821,-6.32788 -1.61925,-0.92933 -3.76428,-3.28175 -4.76673,-5.22761 -1.00245,-1.94586 -3.89868,-6.57515 -6.43606,-10.28732 -2.53739,-3.712167 -4.61343,-7.91347 -4.61343,-9.336229 0,-1.859714 2.77624,-5.326578 9.87684,-12.333858 9.32961,-9.206991 10.33008,-10.642794 18.05755,-25.914778 4.49939,-8.892266 8.35417,-16.167755 8.56617,-16.167755 0.75685,0 -3.86233,19.756825 -6.44466,27.564697 -1.44639,4.373245 -3.74905,9.87252 -5.11703,12.220611 l -2.48724,4.269256 3.62132,7.506183 c 6.37386,13.211578 8.19432,22.095113 8.2267,40.144883 0.0206,11.4691 -0.47208,17.92115 -1.76708,23.14258 -8.71927,35.15595 -35.71275,62.47762 -69.83196,70.68099 -10.35568,2.48984 -26.46742,3.46198 -34.99013,2.11121 z M 64.367768,62.373318 C 59.321866,60.081963 58.155079,58.7109 60.007923,57.250166 62.08371,55.61367 69.93046,54.764374 72.820964,55.863342 c 3.539851,1.345849 4.756634,5.275189 2.210154,7.13722 -2.603569,1.903777 -5.45963,1.735776 -10.66335,-0.627244 z m 111.629912,0.266284 c -1.35946,-1.359463 -0.68895,-4.281621 1.42047,-6.190629 1.83495,-1.660598 2.964,-1.792441 8.2164,-0.95945 7.19306,1.140763 8.00508,3.18912 2.37851,5.999902 -3.6816,1.839168 -10.65852,2.507036 -12.01538,1.150177 z"
       id="path6" /><path
       style="fill:#66282c"
       d="M 114.66336,220.24156 C 97.624174,217.541 81.648667,210.80978 68.74274,200.89307 44.664832,182.39199 29.10628,147.44791 32.701888,119.94631 l 0.816004,-6.24134 1.879042,8.48145 c 1.033474,4.66479 2.680222,10.86685 3.659442,13.78234 3.8463,11.45186 14.2937,28.04217 22.615929,35.91375 l 3.222655,3.04815 -4.30476,-8.21517 c -5.595054,-10.67756 -6.416176,-18.29872 -3.058614,-28.3882 2.577223,-7.74456 6.235288,-12.43024 9.704156,-12.43024 2.056509,0 10.717417,3.91032 16.919619,7.63906 2.030731,1.22086 2.473488,1.07969 4.008119,-1.27798 3.249049,-4.99155 9.484112,-10.6018 11.782511,-10.6018 2.774429,0 8.553529,2.84794 8.553529,4.21518 0,0.5391 -2.16961,2.79298 -4.82135,5.00863 -2.65174,2.21564 -5.584134,5.19178 -6.516425,6.61362 -1.645004,2.50882 -1.573051,2.69033 2.435942,6.14477 l 4.131013,3.55959 -5.046573,-2.38555 c -4.406027,-2.08277 -5.235525,-2.18988 -6.535213,-0.84387 -2.259074,2.33958 -4.839406,12.26554 -5.49942,21.15503 -0.782129,10.53422 -1.351078,11.97431 -3.141417,7.95136 -1.994895,-4.48259 -1.904907,-21.08287 0.151831,-28.00866 0.9146,-3.07979 1.413094,-6.25063 1.107764,-7.04631 -0.30533,-0.79568 -3.9583,-3.16048 -8.117712,-5.25513 -7.107195,-3.57913 -7.71355,-3.70952 -10.070003,-2.16551 -1.379089,0.90361 -3.841593,3.9126 -5.472229,6.68665 -2.544827,4.32927 -2.961011,6.17004 -2.938083,12.99507 0.02188,6.5137 0.532462,8.9098 2.823899,13.25226 4.818706,9.13185 12.764807,15.41842 22.788686,18.02931 12.696604,3.30704 24.09814,1.26644 31.48282,-5.63468 2.58912,-2.41958 2.87461,-2.50799 1.87922,-0.58195 -4.42882,8.56961 -21.481831,13.43919 -34.45155,9.83783 -6.688832,-1.85732 -5.575755,-0.37099 2.680504,3.57936 28.213896,13.49945 56.481926,13.42233 84.088676,-0.22941 12.66872,-6.26477 22.5357,-14.164 30.65652,-24.54276 10.17787,-13.00775 15.99659,-25.29297 19.04704,-40.21447 l 1.40878,-6.89118 0.76283,6.41445 c 1.44211,12.12635 -2.70135,31.63524 -9.62756,45.32997 -12.53198,24.77865 -35.52827,43.12277 -62.05402,49.50042 -10.35568,2.48984 -26.46742,3.46198 -34.99013,2.11121 z m 35.00056,-35.40634 c -5.6728,-1.63387 -10.9505,-5.08037 -12.65405,-8.26349 -0.92621,-1.73064 -0.31751,-1.51349 2.91765,1.04085 5.16626,4.07905 12.67581,6.5944 19.68749,6.5944 5.05433,0 8.21934,-0.69054 16.04774,-3.50129 4.2678,-1.53234 12.35503,-9.76784 16.3425,-16.64214 4.16442,-7.17934 4.43142,-6.1801 0.51358,1.92206 -3.84637,7.95436 -12.26247,16.58563 -17.75802,18.21203 -6.52178,1.9301 -19.46737,2.25898 -25.09689,0.63758 z m 18.85683,-13.88049 c -0.98532,-9.80483 -2.65435,-18.17189 -4.59969,-23.05893 -1.77813,-4.467 -3.68576,-4.95484 -9.09129,-2.32495 l -3.39294,1.65072 3.62291,-3.09336 3.6229,-3.09336 -2.24863,-3.15791 c -1.23674,-1.73685 -3.93301,-4.30796 -5.99171,-5.71358 -2.05869,-1.40563 -3.97913,-3.1651 -4.26764,-3.90995 -0.58167,-1.5017 5.30811,-5.52671 8.09633,-5.53294 2.39734,-0.005 7.67386,4.5673 10.44577,9.05234 1.24609,2.01622 2.69453,3.66586 3.21875,3.66586 0.52422,0 3.46707,-1.60345 6.53967,-3.56322 7.94812,-5.0695 9.40517,-5.34183 13.62427,-2.54645 5.33349,3.53371 9.48979,12.36842 9.32298,19.81708 l -0.13227,5.90594 -0.82061,-5.63573 c -1.00585,-6.90788 -4.84121,-14.61871 -8.70688,-17.50485 l -2.88772,-2.15599 -5.18839,2.43011 c -2.85361,1.33656 -6.52877,3.4989 -8.16701,4.80519 l -2.97863,2.37507 2.04976,6.25283 c 2.53383,7.72947 2.67726,23.4174 0.26556,29.04671 l -1.58969,3.71063 z M 44.873697,110.19539 C 41.70013,107.6256 40.99718,100.79494 43.288774,94.794482 44.865719,90.665311 44.944078,89.208068 43.850016,84.35713 43.150635,81.256163 41.463192,76.563655 40.100142,73.929333 35.79606,65.610979 28.915778,44.308071 29.008719,39.58778 c 0.01252,-0.6356 2.655885,3.848519 5.874155,9.96471 6.957128,13.221736 14.23308,23.004375 21.073545,28.333733 5.581232,4.348298 8.346017,8.747851 7.310133,11.63248 -0.379704,1.05736 -2.201262,4.069339 -4.047907,6.693286 -1.846646,2.623948 -4.620986,6.981051 -6.1652,9.682461 -3.314705,5.79865 -5.142982,6.75997 -8.179748,4.30094 z m 155.605473,-1.41611 c -0.73381,-1.25139 -3.83888,-6.11797 -6.90016,-10.81464 -3.06127,-4.696665 -5.56595,-9.644349 -5.56595,-10.994852 0,-2.236381 8.67065,-11.961412 10.66456,-11.961412 1.96027,0 12.21495,-15.335515 17.51283,-26.189818 3.26133,-6.68183 6.13321,-11.945263 6.38196,-11.696518 1.03805,1.038054 -6.02132,25.560324 -9.28034,32.237288 -1.94343,3.981625 -3.54661,7.7164 -3.56263,8.2995 -0.016,0.583099 -0.66464,2.590764 -1.4414,4.461478 -0.90858,2.188201 -1.17373,5.213167 -0.74345,8.481445 1.88515,14.318849 1.89302,15.186869 0.16153,17.829449 -2.11486,3.22768 -5.4443,3.38804 -7.22695,0.34808 z M 64.767063,61.588098 c -6.034915,-2.503163 -5.412874,-3.761525 2.506925,-5.071396 2.868526,-0.474431 4.459426,-0.12587 6.3267,1.386156 2.13935,1.732341 2.292261,2.263702 1.073893,3.731747 -1.755066,2.114725 -4.730646,2.100757 -9.907518,-0.04651 z M 176.54239,60.009075 c 0.18633,-1.252423 1.09341,-2.749872 2.01574,-3.327664 2.31914,-1.452819 11.5753,0.03086 11.5753,1.855413 0,1.761962 -5.46162,3.749384 -10.30366,3.749384 -3.10775,0 -3.57773,-0.325553 -3.28738,-2.277133 z"
       id="path5" /><path
       style="fill:#1d1a19"
       d="m 168.08934,166.30068 c -1.21215,-10.33144 -4.76931,-22.38056 -6.60722,-22.38056 -0.51385,0 -1.72749,-1.67159 -2.69698,-3.71464 -0.9695,-2.04305 -4.10562,-5.67623 -6.96917,-8.07373 -5.70495,-4.77646 -5.6445,-6.55208 0.26729,-7.85053 4.00305,-0.87921 7.09451,1.0902 11.6341,7.41146 1.89834,2.6434 3.97553,4.80617 4.61598,4.80617 0.64044,0 2.97228,-1.22845 5.18185,-2.72989 2.20958,-1.50145 5.64988,-3.41199 7.64512,-4.24566 3.47717,-1.45285 3.75176,-1.39456 6.61653,1.40467 1.64385,1.60624 1.98093,2.08554 0.74906,1.06512 -3.15944,-2.61713 -4.8206,-2.36109 -12.66842,1.95261 -7.4952,4.11988 -7.86366,4.90426 -5.49432,11.69644 2.33002,6.67944 2.94245,14.64865 1.71697,22.34179 -0.63182,3.96633 -1.51062,7.57625 -1.95288,8.02203 -0.44227,0.44579 -1.35932,-3.92159 -2.03791,-9.70528 z m -84.491243,7.61527 c -0.428565,-1.04558 -1.031142,-6.3437 -1.339059,-11.77361 -0.438812,-7.73816 -0.14134,-11.2548 1.375944,-16.26605 1.282264,-4.23503 1.600637,-6.92203 0.94304,-7.95906 -0.546014,-0.86106 -4.200899,-3.3215 -8.121967,-5.46765 -8.150563,-4.4611 -8.780774,-4.33335 -14.339444,2.90679 -3.867156,5.03695 -4.166512,4.92016 -1.814883,-0.70808 2.12265,-5.08022 4.55128,-7.69106 7.154291,-7.69106 1.152405,0 5.912861,2.02759 10.578792,4.50577 l 8.48351,4.50576 2.244106,-3.16419 c 6.759755,-9.53125 12.100603,-12.18827 17.019903,-8.46723 1.96227,1.48429 1.76181,1.83194 -4.50576,7.81438 -3.607674,3.44355 -6.559404,7.14686 -6.559404,8.22958 0,1.08273 -0.939315,2.5552 -2.087366,3.27217 -2.681518,1.67464 -5.070827,9.98915 -6.260359,21.7853 -1.000257,9.91919 -1.523832,11.52074 -2.771344,8.47718 z M 44.830931,107.76608 c -1.13931,-2.12882 -0.938813,-7.03388 0.66137,-16.180058 0.85096,-4.863837 -0.714291,-10.309908 -5.526333,-19.228098 -3.42226,-6.342496 -8.859641,-21.539771 -8.859641,-24.762359 0,-0.933803 2.225169,2.108852 4.94482,6.761455 6.884271,11.777166 12.079981,18.404921 19.460701,24.824475 7.835715,6.815297 8.012478,8.668884 1.723831,18.076574 -2.538738,3.797901 -5.412224,8.217251 -6.385525,9.820771 -2.11272,3.48073 -4.385326,3.7402 -6.019223,0.68724 z m 156.468639,-0.15715 c -9.06922,-13.071663 -12.38873,-19.087001 -11.80856,-21.398545 0.34471,-1.373457 3.47634,-4.965832 6.95916,-7.983054 7.81551,-6.770691 12.8783,-13.563566 19.35917,-25.974688 2.75132,-5.268877 5.01745,-8.798254 5.03586,-7.84306 0.0773,4.012864 -5.57928,20.5983 -10.03109,29.411604 -6.0216,11.921069 -6.52824,14.46512 -4.24788,21.330622 1.84954,5.568451 1.59515,10.691501 -0.6662,13.416261 -1.66175,2.00228 -2.69531,1.7868 -4.60046,-0.95914 z M 66.887424,61.053981 c -4.348394,-1.58817 -3.526039,-3.008496 1.741889,-3.008496 3.017572,0 4.858241,0.523423 5.227856,1.486622 1.104493,2.878263 -1.624455,3.474141 -6.969745,1.521874 z M 177.41126,59.7072 c 0,-2.049319 3.54801,-3.042514 7.6502,-2.141522 3.15683,0.693357 3.24,0.827468 1.36381,2.199366 -2.70397,1.97719 -9.01401,1.936697 -9.01401,-0.05784 z"
       id="path4" /></g></svg>
