<?xml version="1.0" standalone="no"?>
<!DOCTYPE svg PUBLIC "-//W3C//DTD SVG 20010904//EN"
 "http://www.w3.org/TR/2001/REC-SVG-20010904/DTD/svg10.dtd">
<svg version="1.0" xmlns="http://www.w3.org/2000/svg"
 width="512.000000pt" height="512.000000pt" viewBox="0 0 512.000000 512.000000"
 preserveAspectRatio="xMidYMid meet">

<g transform="translate(0.000000,512.000000) scale(0.100000,-0.100000)"
fill="#000000" stroke="none">
<path d="M3479 5025 c39 -81 54 -131 46 -155 -4 -12 -2 -20 5 -20 6 0 9 -4 6
-8 -3 -5 6 -67 19 -138 23 -129 51 -361 43 -369 -3 -4 -88 101 -88 109 0 3 -5
17 -11 33 -6 15 -9 29 -7 30 9 7 -45 34 -57 29 -9 -3 -15 1 -15 9 0 8 -5 15
-11 15 -7 0 -8 -7 -4 -17 6 -17 45 -184 60 -263 9 -46 -8 -29 -25 25 -26 85
-129 281 -175 333 -50 56 -77 66 -31 11 28 -33 62 -96 90 -164 9 -23 11 -33 3
-24 -6 9 -19 16 -27 16 -8 0 -23 4 -33 8 -14 6 -10 -6 17 -56 36 -65 98 -241
112 -315 l7 -39 -22 19 c-11 11 -19 21 -17 24 3 2 -7 15 -22 29 -15 14 -26 30
-24 35 1 5 -2 7 -7 4 -4 -3 -21 12 -35 33 -35 50 -74 86 -83 77 -4 -4 -3 -10
3 -14 25 -18 78 -97 108 -165 46 -99 186 -483 186 -508 0 -36 -15 -18 -66 80
-129 246 -285 451 -344 451 l-24 0 24 -17 c14 -10 29 -17 33 -15 5 1 5 -2 2
-9 -4 -6 4 -23 18 -37 27 -29 117 -166 117 -178 0 -4 -12 4 -27 18 -28 25 -84
58 -101 58 -4 0 12 -21 36 -47 43 -46 156 -207 169 -239 4 -10 -12 -5 -46 16
-76 44 -80 37 -13 -25 33 -30 83 -89 112 -131 60 -87 62 -74 -20 -128 -32 -20
-40 -21 -75 -11 l-40 12 30 5 30 4 -25 11 c-22 10 -16 12 50 19 l75 8 -58 9
c-56 9 -60 8 -95 -20 -22 -17 -66 -37 -107 -48 -38 -10 -84 -25 -102 -32 -46
-19 -133 -107 -133 -135 0 -15 -11 -32 -29 -46 -16 -11 -48 -56 -71 -99 -25
-47 -65 -100 -101 -135 -47 -46 -59 -65 -60 -91 -1 -29 -2 -28 -14 17 -15 54
-9 97 8 55 5 -13 11 -19 13 -13 3 6 -5 32 -16 59 l-20 48 -89 -129 c-136 -199
-162 -242 -150 -250 6 -3 102 -3 213 1 146 5 205 4 210 -4 5 -7 -1 -11 -16
-11 l-23 0 25 -20 c15 -11 27 -15 31 -9 10 16 49 -117 49 -167 0 -25 -4 -43
-8 -40 -19 12 -149 27 -279 32 -181 8 -174 7 -215 31 -86 51 -119 293 -63 453
8 24 14 44 13 45 -2 2 -37 -4 -78 -13 -97 -19 -173 -6 -228 41 -20 18 -31 24
-23 15 49 -63 -157 57 -221 128 -14 16 -15 27 -8 59 12 51 12 75 1 75 -5 0
-11 -25 -13 -56 -5 -58 -19 -78 -50 -70 -22 5 -23 -10 -3 -57 16 -39 21 -137
8 -181 -6 -19 -27 -42 -56 -62 -43 -30 -53 -32 -134 -34 -387 -8 -375 -9 -384
40 -4 19 -32 116 -63 215 -31 99 -56 185 -56 192 0 6 6 14 13 16 6 3 3 6 -8 6
-17 1 -26 20 -52 109 -29 97 -31 108 -16 117 144 89 166 250 45 332 -33 21
-34 21 -75 4 -23 -9 -62 -23 -87 -30 -25 -7 -55 -17 -67 -22 -12 -4 -45 -11
-72 -15 -36 -5 -54 -13 -65 -29 -38 -58 -28 -146 25 -203 34 -38 74 -57 140
-66 l47 -7 27 -87 c15 -47 29 -98 30 -112 2 -14 11 -45 20 -70 9 -25 36 -112
61 -194 43 -142 45 -151 28 -163 -23 -17 -31 -16 -83 7 -24 11 -49 20 -55 20
-7 0 -22 10 -33 23 -48 53 -50 171 -3 237 11 15 16 30 12 34 -4 4 1 12 11 18
14 7 17 17 12 41 -10 48 -16 49 -65 17 -25 -17 -61 -33 -80 -36 -197 -34 -379
-108 -472 -192 -46 -42 -42 -23 13 59 56 83 121 151 225 235 99 79 109 90 96
98 -25 15 -179 -115 -260 -217 -58 -75 -88 -126 -135 -233 -28 -65 -38 -104
-48 -196 -11 -102 -10 -126 6 -223 16 -95 27 -126 79 -230 57 -113 67 -126
169 -225 74 -71 122 -110 152 -121 l44 -17 3 31 c6 57 29 57 111 0 72 -50 76
-52 113 -41 39 10 88 38 68 38 -6 0 -19 8 -30 18 -23 22 -218 112 -242 112
-12 0 -10 6 9 26 19 21 31 25 59 21 46 -6 173 -69 216 -107 19 -16 46 -33 61
-36 27 -7 34 -2 95 74 27 33 64 27 115 -18 67 -58 82 -55 133 28 34 56 59 76
85 66 9 -4 37 -42 62 -86 46 -78 74 -108 102 -108 7 0 46 33 86 73 62 61 83
76 147 99 109 41 129 38 185 -21 36 -38 49 -47 58 -38 7 7 21 18 31 24 11 7
36 24 57 38 21 14 42 23 46 20 5 -2 19 7 32 22 13 14 18 23 12 19 -24 -13 -13
9 27 58 22 26 40 51 40 55 0 13 83 106 92 103 6 -1 16 2 24 9 15 12 11 -3 -23
-98 -12 -33 -13 -49 -4 -74 6 -18 11 -46 11 -63 1 -88 35 -67 117 72 49 83 75
113 88 100 7 -6 -44 -109 -70 -144 -13 -17 -22 -34 -20 -38 3 -3 2 -4 -1 -1
-4 2 -20 -14 -35 -35 -16 -22 -32 -40 -35 -40 -4 0 0 8 7 18 7 9 -2 3 -21 -14
-46 -42 -146 -105 -154 -97 -3 4 -6 1 -6 -5 0 -23 35 -11 89 31 31 24 63 47
70 52 20 12 -20 -43 -82 -112 -28 -32 -40 -48 -25 -35 l26 23 6 -43 c4 -24 10
-72 12 -107 3 -36 13 -75 21 -88 12 -18 14 -41 10 -101 -9 -143 26 -256 89
-284 15 -7 24 -23 28 -52 18 -115 75 -204 144 -227 49 -16 56 -22 91 -84 16
-29 47 -67 68 -84 35 -29 43 -32 88 -27 l50 6 44 -55 c24 -29 57 -59 73 -66
28 -12 33 -11 89 19 4 1 20 -8 36 -22 27 -23 33 -24 67 -14 36 11 39 11 62
-20 21 -26 32 -32 65 -32 22 0 53 7 68 15 45 23 96 25 128 4 15 -11 35 -19 43
-19 33 0 89 21 145 56 51 30 66 35 100 29 78 -11 166 36 232 125 25 34 46 51
67 56 65 13 105 46 158 127 28 44 58 102 68 130 10 27 25 54 34 59 9 5 27 30
40 56 13 26 34 53 46 60 41 25 62 97 68 226 5 118 5 120 41 170 l36 50 3 160
c3 138 0 168 -18 227 -19 63 -19 72 -5 104 26 65 29 125 7 200 -11 39 -23 95
-26 125 -3 31 -15 86 -27 123 -18 56 -19 73 -9 96 9 22 9 39 0 72 -16 59 -43
94 -95 124 -36 21 -45 33 -54 72 -15 57 -53 95 -113 113 -27 8 -48 17 -48 21
0 20 254 119 306 119 21 0 25 3 16 12 -18 18 -134 -7 -256 -57 -65 -26 -108
-39 -112 -33 -4 6 -2 13 3 17 5 3 45 33 89 66 91 70 101 76 228 149 105 61
146 80 226 106 54 18 54 18 25 26 -36 9 -131 -14 -201 -49 -147 -72 -304 -153
-336 -173 -75 -47 -44 -3 85 122 161 157 255 234 333 274 46 23 54 30 34 30
-25 1 -24 1 10 31 19 16 55 40 80 52 l45 22 -42 3 c-27 2 -60 -4 -89 -18 -26
-11 -48 -19 -50 -17 -10 10 199 166 257 192 l34 14 -37 1 c-69 0 -233 -102
-373 -232 -54 -50 -79 -68 -87 -60 -7 7 16 45 80 129 156 203 333 383 437 444
43 25 46 29 24 29 -14 0 -52 -16 -85 -36 -32 -20 -70 -38 -83 -40 -14 -3 -41
-18 -62 -35 -21 -16 -62 -37 -91 -45 -29 -9 -59 -21 -65 -26 -26 -21 -12 10
23 50 23 27 30 42 21 42 -21 0 -30 29 -12 37 9 3 43 33 78 67 34 35 82 77 106
94 50 37 49 38 -16 16 -51 -17 -146 -78 -177 -113 -11 -11 -23 -21 -28 -21
-16 0 32 61 122 154 47 49 76 84 65 78 -11 -6 -36 -26 -54 -46 -20 -20 -45
-36 -57 -36 -13 0 -25 -4 -29 -10 -3 -5 -12 -7 -19 -4 -8 3 -53 -37 -110 -97
-53 -56 -96 -97 -96 -91 0 5 18 60 40 121 22 62 35 113 30 116 -5 3 -20 1 -32
-6 -36 -19 -145 -128 -180 -180 -18 -27 -37 -49 -41 -49 -5 0 -6 3 -4 8 10 15
38 265 32 281 -5 11 -16 -3 -38 -49 -34 -68 -60 -87 -70 -48 -4 15 2 33 18 54
25 32 37 112 15 99 -13 -8 -13 20 -1 63 12 39 0 41 -29 5 -24 -30 -112 -211
-150 -306 -23 -58 -23 -58 -42 -37 -10 11 -26 39 -34 62 -20 56 -41 88 -59 88
-12 0 -15 -19 -15 -105 0 -85 -3 -107 -15 -111 -30 -12 -48 17 -41 64 5 38 3
45 -14 49 -19 5 -36 47 -75 186 -8 31 -20 57 -26 57 -6 0 -7 -6 -4 -12 4 -7
-2 -3 -13 10 -11 12 -25 22 -31 22 -6 0 -11 -10 -12 -22 0 -13 -9 4 -19 37
-21 64 -25 88 -11 66 5 -8 11 -9 15 -3 3 5 -1 15 -9 22 -9 7 -30 42 -48 78
-18 35 -47 81 -65 101 l-32 36 29 -60z m851 -842 c0 -10 -42 -53 -53 -53 -5 0
-18 -11 -29 -26 -19 -23 -21 -24 -39 -9 -10 10 -23 14 -31 9 -35 -21 22 33 61
58 41 26 91 37 91 21z m-451 -213 c-11 -29 -29 -41 -29 -19 0 5 -5 7 -12 3 -7
-5 -8 -2 -3 7 16 28 28 39 41 39 10 0 11 -6 3 -30z m-466 -582 c-7 -27 -32
-58 -47 -58 -5 0 -22 -12 -38 -27 -25 -24 -31 -25 -62 -16 -26 8 -49 7 -93 -4
-32 -8 -67 -16 -79 -18 -12 -1 -35 -10 -52 -19 -17 -9 -36 -16 -42 -16 -14 0
11 47 44 83 32 35 55 36 32 2 -9 -13 -16 -28 -16 -33 0 -15 53 0 85 23 34 26
136 65 166 65 12 0 32 9 46 20 36 28 63 27 56 -2z m47 -57 c0 -15 -12 -19 -73
-29 -47 -7 -55 -7 -46 4 6 7 29 17 52 23 57 12 67 13 67 2z m53 -50 c10 -10
-64 -91 -84 -91 -32 0 -195 -62 -211 -81 -10 -12 -19 -15 -23 -9 -3 6 -11 8
-16 5 -12 -8 -12 -2 7 56 17 52 29 67 18 23 -6 -21 -4 -25 7 -19 7 5 38 12 68
16 31 5 66 17 80 29 14 11 43 33 64 49 24 19 33 31 25 35 -7 3 3 3 22 0 19 -3
39 -9 43 -13z m-253 -10 c0 -5 -17 -23 -37 -40 -25 -21 -43 -47 -53 -78 -14
-44 -17 -47 -70 -60 -30 -8 -65 -20 -77 -28 -32 -21 -33 -19 -12 22 10 21 19
45 19 54 0 10 14 27 30 39 17 12 30 29 30 39 0 11 17 25 48 38 49 22 122 30
122 14z m299 -30 c18 -18 18 -19 -20 -44 -23 -15 -46 -23 -59 -20 -19 5 -19 6
-2 35 14 24 35 41 60 47 1 1 11 -8 21 -18z m71 -15 c0 -2 -7 -7 -16 -10 -8 -3
-12 -2 -9 4 6 10 25 14 25 6z m-650 -45 c-38 -40 -50 -74 -50 -142 0 -37 -2
-39 -31 -39 -30 0 -31 2 -26 33 9 60 35 112 65 133 17 11 38 28 47 37 35 35
30 15 -5 -22z m610 25 c0 -2 -15 -13 -32 -24 -48 -30 -70 -71 -55 -102 10 -20
24 -27 66 -33 l53 -9 -35 -24 c-20 -13 -39 -33 -42 -45 -6 -19 -8 -19 -24 -4
-10 8 -24 13 -32 10 -11 -4 -14 8 -16 52 -3 71 26 136 71 164 30 18 46 23 46
15z m187 -42 c6 -14 9 -33 6 -42 -3 -9 11 0 31 21 44 44 53 45 68 12 9 -20 9
-34 0 -59 -7 -18 -12 -45 -12 -59 0 -26 47 -129 63 -135 18 -9 4 -18 -28 -18
-28 0 -35 4 -35 20 0 11 -12 38 -27 60 -16 21 -38 62 -50 90 -12 28 -22 46
-23 39 0 -8 -6 -8 -22 0 -19 8 -23 19 -25 57 -2 44 0 47 20 43 12 -3 28 -16
34 -29z m-309 6 c17 0 15 -41 -4 -65 -11 -15 -13 -34 -8 -77 6 -54 5 -58 -14
-58 -12 0 -44 -20 -72 -45 -28 -25 -57 -45 -65 -45 -7 0 -23 -11 -33 -25 -12
-15 -23 -21 -27 -15 -3 5 -17 10 -29 10 -21 0 -24 6 -30 66 -8 82 21 185 57
201 62 27 174 61 192 57 11 -2 26 -4 33 -4z m640 -41 c-8 -5 0 -22 24 -51 46
-56 60 -84 56 -111 -2 -13 2 -22 10 -22 13 0 32 -23 32 -39 0 -5 -31 21 -69
57 -38 37 -76 67 -85 67 -9 0 -20 10 -25 22 -9 24 -3 58 9 58 4 0 11 11 14 25
6 22 9 23 26 13 13 -8 16 -15 8 -19z m-3414 -41 c39 -29 73 -53 75 -55 2 -2
-23 -31 -56 -65 -68 -72 -104 -130 -133 -213 -44 -127 -12 -316 71 -415 11
-14 17 -19 13 -11 -4 9 -3 12 4 8 28 -18 -4 -44 -100 -82 l-101 -39 -40 44
c-88 100 -139 200 -156 311 -31 191 75 382 299 537 25 17 47 31 49 32 2 0 36
-23 75 -52z m2499 -10 c2 -7 -3 -29 -11 -48 -10 -25 -13 -55 -9 -103 5 -54 3
-70 -10 -80 -9 -6 -32 -28 -52 -47 -38 -38 -109 -85 -116 -78 -3 2 11 20 30
38 19 19 35 41 35 49 0 22 -43 145 -52 149 -5 2 -8 10 -8 18 0 9 -4 12 -10 9
-22 -14 -8 26 18 50 45 42 174 72 185 43z m567 -8 c15 -11 30 -32 33 -47 3
-16 19 -46 36 -67 17 -21 31 -47 31 -57 0 -16 -2 -16 -23 4 -13 12 -27 34 -30
48 -10 39 -35 44 -66 15 -14 -14 -38 -28 -54 -31 -35 -9 -67 -50 -67 -84 0
-15 9 -46 20 -69 11 -22 20 -46 20 -52 0 -5 9 -10 20 -10 13 0 18 -5 14 -15
-5 -12 -10 -13 -20 -4 -8 6 -23 9 -34 6 -16 -4 -20 0 -20 20 0 14 -9 40 -20
58 -11 18 -24 52 -30 76 -5 24 -12 56 -16 71 -7 29 15 57 72 91 16 9 44 28 63
42 41 30 36 30 71 5z m-790 -61 c0 -6 -4 -7 -10 -4 -5 3 -10 11 -10 16 0 6 5
7 10 4 6 -3 10 -11 10 -16z m1128 -6 c12 -10 24 -34 27 -54 6 -31 4 -37 -14
-42 -15 -4 -21 -13 -21 -34 -1 -15 -13 -52 -29 -82 l-28 -54 -41 63 c-23 34
-42 67 -42 72 0 18 54 80 77 89 16 6 23 17 23 34 0 29 19 33 48 8z m-1138 -35
c0 -12 -14 -46 -31 -77 -29 -50 -31 -60 -25 -117 7 -71 1 -94 -25 -94 -25 0
-33 36 -32 140 2 135 18 170 80 170 27 0 33 -4 33 -22z m571 -31 c9 -12 20
-43 24 -67 4 -25 18 -66 31 -91 25 -50 23 -84 -7 -92 -10 -3 -18 -2 -17 2 2
21 -4 31 -21 31 -10 0 -24 6 -30 14 -12 14 -64 26 -139 31 -33 2 -48 -2 -63
-18 -29 -31 -34 -81 -14 -132 18 -49 47 -75 82 -75 20 0 21 -2 11 -25 -12 -26
-23 -31 -33 -15 -3 6 -15 10 -26 10 -11 0 -19 7 -19 18 0 9 -10 35 -21 57 -18
33 -21 57 -22 141 0 56 3 107 7 113 4 6 24 20 44 30 20 10 46 29 57 41 45 51
129 65 156 27z m416 -99 c17 -18 43 -57 58 -86 15 -29 31 -55 36 -58 5 -3 9
-10 9 -16 0 -5 -8 0 -19 13 -16 20 -21 21 -34 10 -9 -7 -31 -11 -50 -10 -28 3
-40 -4 -85 -49 -53 -54 -60 -71 -54 -155 1 -17 -2 -26 -8 -22 -15 9 -47 75
-55 115 -4 19 -16 49 -27 67 -23 39 -15 61 36 91 19 11 49 40 66 64 30 41 63
67 86 68 5 0 24 -15 41 -32z m351 -17 c32 -30 46 -55 17 -31 -11 9 -15 10 -15
1 0 -8 -6 -7 -16 3 -17 17 -34 21 -34 8 0 -4 5 -13 10 -18 7 -7 4 -17 -11 -30
l-21 -19 7 50 c12 77 15 79 63 36z m-1048 -11 c7 -13 9 -50 4 -104 -6 -76 -4
-88 15 -119 31 -51 28 -73 -18 -96 -21 -11 -53 -37 -70 -58 -30 -36 -31 -36
-17 -7 14 28 13 34 -12 84 -52 105 -93 134 -156 111 -17 -7 -26 -7 -29 2 -7
22 26 76 55 88 16 6 53 36 83 65 48 47 60 54 94 54 30 0 43 -5 51 -20z m-593
-32 c-3 -7 -5 -2 -5 12 0 14 2 19 5 13 2 -7 2 -19 0 -25z m16 -83 c5 -28 4
-34 -3 -20 -8 19 -14 73 -6 64 2 -2 6 -22 9 -44z m299 -7 c-5 -19 -22 -25 -22
-8 0 6 -7 10 -16 10 -8 0 -13 3 -11 8 3 4 16 7 29 7 19 0 24 -4 20 -17z m721
-30 c13 -18 30 -55 36 -83 7 -27 23 -70 37 -94 24 -43 32 -105 15 -115 -5 -4
-7 4 -4 15 5 19 3 21 -20 15 -20 -5 -37 1 -71 26 -33 23 -49 28 -58 21 -7 -6
-33 -14 -56 -18 -50 -8 -132 -77 -132 -111 0 -40 20 -85 48 -109 38 -32 47
-71 18 -79 -34 -9 -36 -8 -36 23 0 16 -11 53 -24 82 -14 30 -29 87 -35 127 -5
40 -14 79 -20 86 -20 24 5 63 67 104 32 22 69 56 82 75 50 73 114 88 153 35z
m-2014 18 c-13 -14 -351 -27 -494 -19 l-160 8 265 5 c146 3 294 7 329 8 35 1
62 0 60 -2z m2560 -34 c7 -13 3 -24 -14 -44 l-23 -26 -28 29 -28 29 24 25 c25
26 50 22 69 -13z m-1294 5 c4 -13 -1 -55 -10 -93 -12 -51 -14 -91 -9 -150 4
-53 2 -89 -5 -100 -9 -16 -10 -14 -11 17 0 20 -5 61 -12 90 -11 53 -15 89 -17
178 -1 38 -3 43 -21 38 -29 -7 -25 0 13 23 42 26 65 25 72 -3z m1495 -10 c20
-16 50 -59 50 -72 0 -5 -9 5 -20 23 -23 38 -33 42 -20 8 6 -18 5 -28 -6 -37
-19 -15 -20 -13 -28 44 -7 48 -2 55 24 34z m-297 -39 c26 -23 42 -49 52 -83
11 -40 11 -47 1 -32 -13 17 -15 17 -30 -5 -9 -12 -16 -28 -16 -34 0 -7 -15
-18 -34 -24 -28 -9 -38 -20 -52 -58 -9 -26 -24 -63 -32 -82 -8 -19 -20 -51
-28 -70 l-13 -35 -20 50 c-12 28 -32 71 -45 97 -25 50 -21 70 18 98 47 33 76
70 87 114 10 40 50 96 69 96 4 0 23 -15 43 -32z m-3171 -178 c31 -92 59 -128
119 -155 39 -18 40 -18 63 4 13 12 38 61 56 107 32 84 54 110 71 83 5 -8 18
-43 30 -79 12 -36 30 -83 40 -105 11 -21 14 -34 9 -29 -8 8 -27 8 -58 3 -83
-16 -277 -12 -358 7 -85 20 -84 19 -60 134 19 86 34 122 48 118 6 -2 24 -42
40 -88z m2373 64 c29 -30 46 -75 54 -149 5 -41 18 -93 30 -115 31 -60 28 -104
-9 -130 -16 -12 -30 -16 -30 -10 0 21 -74 85 -128 111 -73 35 -192 30 -192 -7
0 -29 -17 -4 -23 33 -9 57 1 80 49 108 23 14 65 50 91 81 26 31 66 64 88 75
49 23 50 23 70 3z m-2599 -66 c21 -97 20 -102 -14 -84 -16 8 -41 16 -55 18
-39 6 -42 14 -16 46 13 16 32 44 42 62 10 18 20 30 23 27 4 -3 12 -34 20 -69z
m867 -30 c30 -41 52 -82 39 -74 -5 3 -32 -1 -59 -9 -27 -8 -64 -16 -81 -18
-18 -2 -41 -12 -53 -23 -17 -15 -13 -3 15 51 58 111 96 131 139 73z m207 7
c-27 -14 -36 -13 -25 4 3 6 16 11 28 11 21 -1 21 -1 -3 -15z m2048 9 c12 -4
22 -10 22 -16 0 -5 -8 -4 -19 2 -11 5 -27 7 -35 4 -9 -3 -16 -1 -16 5 0 12 14
14 48 5z m479 -46 c-3 -8 -6 -5 -6 6 -1 11 2 17 5 13 3 -3 4 -12 1 -19z
m-1747 -37 c-28 -56 -35 -52 -8 4 12 24 23 43 26 41 2 -2 -6 -22 -18 -45z
m1292 22 c14 -16 32 -48 41 -73 8 -25 24 -68 36 -97 16 -40 17 -51 6 -47 -8 3
-24 -1 -37 -10 -17 -12 -35 -14 -69 -10 -41 6 -48 4 -59 -15 -6 -12 -35 -37
-64 -56 -33 -21 -60 -47 -70 -68 -14 -32 -15 -38 0 -72 8 -20 13 -44 11 -53
-6 -28 -45 46 -58 108 -6 30 -19 73 -28 95 -23 51 -16 70 44 119 26 22 66 69
90 105 66 103 110 124 157 74z m436 -10 c16 -23 42 -85 42 -100 0 -2 -5 -1
-11 2 -5 4 -34 -6 -64 -21 -30 -16 -57 -26 -60 -22 -16 16 42 168 65 168 5 0
17 -12 28 -27z m-1358 -17 c0 -3 -4 -8 -10 -11 -5 -3 -10 -1 -10 4 0 6 5 11
10 11 6 0 10 -2 10 -4z m62 -21 c-3 -20 -7 -23 -18 -14 -19 15 -18 27 4 32 9
3 18 5 18 6 1 0 -1 -10 -4 -24z m-19 -47 c17 -22 20 -44 21 -125 1 -87 5 -104
29 -148 35 -65 34 -78 -8 -98 -28 -14 -33 -14 -28 -2 3 9 -8 30 -26 50 -17 20
-34 47 -37 61 -4 14 -17 47 -29 72 -12 26 -26 72 -30 102 -4 30 -11 60 -16 66
-11 14 4 27 46 42 41 15 55 11 78 -20z m-823 -72 c0 -2 -8 -10 -17 -17 -16
-13 -17 -12 -4 4 13 16 21 21 21 13z m1380 -66 c0 -5 -2 -10 -4 -10 -3 0 -8 5
-11 10 -3 6 -1 10 4 10 6 0 11 -4 11 -10z m6 -58 c12 -18 25 -57 29 -89 4 -35
18 -79 36 -110 16 -29 29 -57 29 -61 0 -11 -45 -32 -67 -32 -10 0 -32 14 -50
32 -30 29 -36 31 -100 29 -96 -3 -167 -25 -182 -57 -6 -14 -11 -35 -12 -47 -1
-12 -5 -3 -10 20 -4 24 -15 58 -25 78 -15 32 -15 37 0 60 9 14 34 34 55 45 22
11 55 39 73 62 107 135 167 154 224 70z m917 -21 c9 -6 20 -27 26 -44 l11 -32
-20 25 c-11 14 -20 30 -20 37 0 6 -5 15 -10 18 -7 4 -9 -2 -4 -18 8 -33 -3
-67 -22 -67 -10 0 -14 12 -14 43 0 24 3 46 6 49 8 9 30 4 47 -11z m-378 -32
c22 -20 39 -46 45 -72 22 -85 22 -83 11 -68 -8 12 -16 9 -46 -17 -19 -18 -45
-32 -57 -32 -28 0 -88 -22 -88 -32 0 -4 -18 -19 -40 -33 -52 -33 -62 -53 -52
-107 8 -42 1 -92 -10 -72 -3 5 -9 27 -12 49 -4 22 -16 55 -27 73 -25 43 -24
52 4 52 26 1 131 95 122 110 -4 6 -14 1 -25 -12 -10 -13 -1 13 20 57 36 73 86
135 110 135 5 0 25 -14 45 -31z m59 -12 c4 -15 2 -16 -10 -6 -8 7 -20 21 -25
31 -9 17 -8 18 10 6 11 -6 22 -20 25 -31z m-982 -152 c18 -27 31 -63 38 -110
7 -45 23 -92 46 -133 18 -34 34 -69 34 -78 0 -31 -29 -25 -69 15 -22 22 -53
44 -68 47 -50 12 -171 84 -196 117 l-24 32 47 60 c79 103 144 120 192 50z
m598 -122 c22 -20 36 -47 49 -93 10 -36 21 -75 25 -87 10 -30 -43 -60 -75 -42
-13 6 -38 8 -63 4 -22 -3 -74 -9 -115 -11 -62 -5 -73 -3 -64 8 8 10 23 51 27
78 4 24 96 131 131 152 40 24 49 23 85 -9z m507 -5 c22 -20 33 -66 14 -53 -5
3 -12 -3 -16 -14 -9 -29 -38 -50 -77 -55 -29 -3 -36 -1 -31 10 3 8 10 11 15 8
6 -4 8 1 4 12 -5 18 46 114 61 114 4 0 17 -10 30 -22z m-1508 -102 c9 -8 30
-16 46 -18 31 -3 42 -20 44 -65 2 -37 -31 -28 -82 22 -28 28 -44 52 -40 60 7
19 12 19 32 1z m556 -86 c3 -5 1 -10 -4 -10 -6 0 -11 5 -11 10 0 6 2 10 4 10
3 0 8 -4 11 -10z m38 -49 c43 -16 76 -62 88 -120 6 -30 22 -72 35 -93 l24 -38
-25 -12 c-36 -16 -53 1 -37 37 18 39 15 46 -14 35 -42 -16 -251 -20 -271 -5
-17 12 -17 15 0 47 28 54 87 132 110 145 27 15 57 16 90 4z m657 -158 c0 -27
-27 -37 -83 -28 -80 12 -85 16 -68 44 6 10 23 14 49 13 21 -2 49 1 63 6 27 11
39 0 39 -35z m-1013 -29 c64 -21 71 -29 81 -96 9 -56 8 -58 -13 -58 -13 0 -44
18 -71 40 -26 21 -50 38 -53 36 -3 -2 -16 0 -28 5 -27 10 -30 44 -6 71 20 22
29 22 90 2z m641 -157 c6 -7 13 -33 16 -57 4 -33 3 -37 -2 -15 -5 19 -13 29
-23 26 -99 -27 -129 -26 -129 5 0 34 30 54 80 54 27 0 52 -6 58 -13z"/>
<path d="M3254 3076 c-42 -19 -71 -91 -58 -144 8 -35 12 -37 52 -40 36 -3 47
1 72 27 29 29 40 61 20 61 -13 0 -13 33 1 47 7 7 3 18 -14 37 -28 30 -31 30
-73 12z"/>
<path d="M475 4672 c-79 -38 -115 -96 -115 -186 0 -105 78 -194 178 -204 l50
-4 27 -97 c32 -112 40 -125 73 -116 33 8 170 87 176 101 7 19 -76 -4 -100 -27
l-21 -20 -15 38 c-9 21 -23 64 -32 97 l-17 59 32 33 c83 86 63 242 -42 311
-52 34 -139 41 -194 15z"/>
<path d="M2147 4316 c-4 -10 -1 -13 8 -10 7 3 33 -12 56 -33 24 -21 39 -32 34
-24 -11 18 45 -21 200 -143 103 -80 120 -90 123 -73 2 12 -4 24 -15 30 -10 6
-34 27 -53 47 -29 30 -324 220 -342 220 -3 0 -8 -7 -11 -14z"/>
<path d="M2059 4247 c-20 -34 -47 -79 -59 -99 -12 -21 -20 -38 -17 -38 3 0 16
18 28 40 33 59 42 35 18 -49 -11 -40 -19 -75 -16 -77 3 -4 87 279 83 283 0 1
-17 -26 -37 -60z m-3 -54 c-10 -10 -19 5 -10 18 6 11 8 11 12 0 2 -7 1 -15 -2
-18z"/>
<path d="M2121 4134 l-1 -180 35 -34 c19 -19 35 -29 35 -22 0 17 -60 395 -65
407 -2 6 -4 -71 -4 -171z"/>
<path d="M2162 4260 c55 -144 146 -341 171 -367 17 -18 32 -31 35 -29 4 5
-193 395 -205 405 -3 3 -4 -1 -1 -9z"/>
<path d="M2230 4216 c0 -2 8 -10 18 -17 15 -13 16 -12 3 4 -13 16 -21 21 -21
13z"/>
<path d="M2360 4136 c60 -63 210 -201 210 -193 0 2 -60 60 -132 128 -73 67
-108 97 -78 65z"/>
<path d="M2267 4168 c131 -173 205 -268 209 -268 3 0 2 6 -2 13 -16 26 -206
267 -211 267 -3 0 -1 -6 4 -12z"/>
<path d="M1960 4080 c-6 -11 -8 -20 -6 -20 3 0 10 9 16 20 6 11 8 20 6 20 -3
0 -10 -9 -16 -20z"/>
<path d="M1935 4039 c-4 -6 -5 -12 -2 -15 2 -3 7 2 10 11 7 17 1 20 -8 4z"/>
<path d="M1996 3987 c-3 -15 -11 -25 -16 -22 -6 3 -10 2 -10 -4 0 -5 5 -13 10
-16 11 -7 33 41 27 59 -2 6 -7 -2 -11 -17z"/>
<path d="M1940 3946 c-15 -39 -12 -46 6 -13 9 16 13 31 10 34 -3 3 -10 -6 -16
-21z"/>
<path d="M2560 3920 c0 -5 5 -10 10 -10 6 0 10 5 10 10 0 6 -4 10 -10 10 -5 0
-10 -4 -10 -10z"/>
<path d="M1978 3470 c-15 -32 -15 -35 0 -41 19 -7 26 15 19 54 -3 20 -5 18
-19 -13z"/>
<path d="M2177 3449 c-6 -21 11 -42 46 -61 12 -6 49 -32 82 -57 33 -25 62 -46
65 -46 3 0 4 -3 3 -6 -2 -7 39 -48 50 -48 4 -1 8 -4 9 -8 4 -20 98 -71 98 -54
0 15 -88 103 -98 97 -5 -3 -20 7 -33 22 l-24 27 28 -24 c15 -14 27 -20 27 -14
0 17 -36 44 -52 38 -9 -4 -34 9 -59 29 -24 20 -54 41 -66 48 -13 6 -23 19 -23
28 0 10 -11 25 -24 33 -22 15 -24 15 -29 -4z m228 -189 c10 -11 16 -20 13 -20
-3 0 -13 9 -23 20 -10 11 -16 20 -13 20 3 0 13 -9 23 -20z"/>
<path d="M1810 3367 c0 -1 -4 -18 -10 -36 -5 -20 -6 -31 -1 -25 12 11 25 64
17 64 -3 0 -6 -1 -6 -3z"/>
<path d="M1880 3359 c0 -5 5 -7 10 -4 6 3 10 8 10 11 0 2 -4 4 -10 4 -5 0 -10
-5 -10 -11z"/>
<path d="M699 3324 c18 -8 47 -17 65 -20 17 -2 4 4 -29 16 -70 23 -84 25 -36
4z"/>
<path d="M1718 3263 c7 -3 16 -2 19 1 4 3 -2 6 -13 5 -11 0 -14 -3 -6 -6z"/>
<path d="M299 3203 c-13 -16 -12 -17 4 -4 9 7 17 15 17 17 0 8 -8 3 -21 -13z"/>
<path d="M2040 3180 c0 -30 5 -42 23 -52 35 -20 154 -14 212 10 l50 20 -28 11
c-30 12 -216 51 -241 51 -12 0 -16 -10 -16 -40z"/>
<path d="M2350 3148 c-30 -16 -44 -26 -30 -22 14 4 35 7 46 6 12 -1 27 5 34
13 25 30 3 31 -50 3z"/>
<path d="M91 2724 c0 -11 3 -14 6 -6 3 7 2 16 -1 19 -3 4 -6 -2 -5 -13z"/>
<path d="M1340 1700 c0 -5 7 -7 15 -4 8 4 15 8 15 10 0 2 -7 4 -15 4 -8 0 -15
-4 -15 -10z"/>
<path d="M1635 1620 c-19 -8 -19 -9 2 -9 12 -1 25 4 28 9 7 12 -2 12 -30 0z"/>
<path d="M1573 1603 c9 -2 23 -2 30 0 6 3 -1 5 -18 5 -16 0 -22 -2 -12 -5z"/>
<path d="M1293 1593 c9 -2 23 -2 30 0 6 3 -1 5 -18 5 -16 0 -22 -2 -12 -5z"/>
<path d="M1488 1593 c6 -2 18 -2 25 0 6 3 1 5 -13 5 -14 0 -19 -2 -12 -5z"/>
<path d="M1610 786 c0 -4 7 -20 15 -35 8 -16 12 -31 8 -34 -3 -4 4 -23 16 -43
20 -33 20 -38 7 -58 -35 -48 -45 -58 -57 -50 -8 4 -10 3 -5 -5 5 -7 24 -10 52
-7 24 2 47 0 50 -5 3 -5 13 -5 23 0 13 7 26 5 48 -9 24 -14 34 -16 43 -7 10 9
11 9 5 -2 -5 -9 -4 -12 3 -7 7 4 15 -6 21 -26 5 -18 10 -25 10 -15 2 37 -53
112 -73 100 -6 -3 -7 -2 -3 2 4 5 -19 36 -52 69 -32 34 -71 79 -85 100 -14 21
-26 36 -26 32z m45 -76 c3 -5 1 -10 -4 -10 -6 0 -11 5 -11 10 0 6 2 10 4 10 3
0 8 -4 11 -10z m56 -57 l34 -37 -42 33 c-24 18 -43 35 -43 37 0 13 20 0 51
-33z"/>
<path d="M1298 738 c21 -23 107 -56 119 -45 2 3 -18 10 -44 16 -26 7 -59 22
-73 34 l-25 22 23 -27z"/>
<path d="M1588 744 c-9 -9 -38 -23 -65 -30 -26 -7 -38 -13 -26 -13 12 -1 23
-6 25 -13 5 -15 47 -3 78 24 17 14 21 22 12 25 -6 3 -10 9 -6 14 8 14 0 11
-18 -7z m2 -19 c-7 -8 -17 -15 -23 -15 -6 0 -2 7 9 15 25 19 30 19 14 0z"/>
<path d="M1256 709 c-10 -17 -32 -47 -49 -67 -20 -24 -23 -30 -8 -17 27 23 85
104 79 110 -2 3 -12 -9 -22 -26z"/>
<path d="M1129 583 l-24 -28 28 24 c25 23 32 31 24 31 -2 0 -14 -12 -28 -27z"/>
<path d="M2220 505 c0 -10 -25 -43 -55 -71 l-54 -52 29 -12 c45 -19 44 -36 -8
-93 l-47 -52 45 36 c71 57 110 121 110 183 0 28 -5 58 -10 66 -8 12 -10 12
-10 -5z"/>
<path d="M1060 441 c0 -6 4 -13 10 -16 6 -3 7 1 4 9 -7 18 -14 21 -14 7z"/>
<path d="M670 400 c0 -49 27 -104 70 -145 l32 -30 -17 40 c-27 62 -42 98 -56
125 l-12 25 24 -20 23 -20 -24 32 c-14 18 -28 32 -32 32 -5 1 -8 -17 -8 -39z"/>
<path d="M1770 404 c-30 -19 -51 -34 -47 -34 15 0 84 39 96 54 17 21 16 20
-49 -20z"/>
<path d="M740 376 c0 -2 14 -14 30 -26 17 -12 30 -19 30 -16 0 2 -13 14 -30
26 -16 12 -30 19 -30 16z"/>
<path d="M1137 369 c7 -7 15 -10 18 -7 3 3 -2 9 -12 12 -14 6 -15 5 -6 -5z"/>
<path d="M1675 360 c-13 -6 -15 -9 -5 -9 8 0 22 4 30 9 18 12 2 12 -25 0z"/>
<path d="M1208 343 c7 -3 16 -2 19 1 4 3 -2 6 -13 5 -11 0 -14 -3 -6 -6z"/>
<path d="M1628 343 c7 -3 16 -2 19 1 4 3 -2 6 -13 5 -11 0 -14 -3 -6 -6z"/>
<path d="M1248 333 c7 -3 16 -2 19 1 4 3 -2 6 -13 5 -11 0 -14 -3 -6 -6z"/>
<path d="M1578 333 c6 -2 18 -2 25 0 6 3 1 5 -13 5 -14 0 -19 -2 -12 -5z"/>
<path d="M1308 323 c12 -2 30 -2 40 0 9 3 -1 5 -23 4 -22 0 -30 -2 -17 -4z"/>
<path d="M1503 323 c9 -2 23 -2 30 0 6 3 -1 5 -18 5 -16 0 -22 -2 -12 -5z"/>
</g>
</svg>
