<?xml version="1.0" encoding="UTF-8" standalone="no"?>
<svg
   version="1.0"
   width="1024.000000pt"
   height="1024.000000pt"
   viewBox="0 0 1024.000000 1024.000000"
   preserveAspectRatio="xMidYMid meet"
   id="svg5"
   sodipodi:docname="heroic.svg"
   inkscape:version="1.4.2 (f4327f4, 2025-05-13)"
   xmlns:inkscape="http://www.inkscape.org/namespaces/inkscape"
   xmlns:sodipodi="http://sodipodi.sourceforge.net/DTD/sodipodi-0.dtd"
   xmlns="http://www.w3.org/2000/svg"
   xmlns:svg="http://www.w3.org/2000/svg">
  <defs
     id="defs5" />
  <sodipodi:namedview
     id="namedview5"
     pagecolor="#ffffff"
     bordercolor="#000000"
     borderopacity="0.25"
     inkscape:showpageshadow="2"
     inkscape:pageopacity="0.0"
     inkscape:pagecheckerboard="0"
     inkscape:deskcolor="#d1d1d1"
     inkscape:document-units="pt"
     inkscape:zoom="0.59106445"
     inkscape:cx="682.66667"
     inkscape:cy="682.66667"
     inkscape:window-width="1920"
     inkscape:window-height="1009"
     inkscape:window-x="-8"
     inkscape:window-y="-8"
     inkscape:window-maximized="1"
     inkscape:current-layer="svg5" />
  <g
     transform="translate(0.000000,1024.000000) scale(0.100000,-0.100000)"
     fill="#000000"
     stroke="none"
     id="g5">
    <path
       d="M5015 9582 c-27 -10 -754 -328 -1614 -707 -1440 -635 -1569 -694 -1616 -737 -74 -67 -109 -148 -109 -248 0 -61 115 -605 613 -2920 337 -1564 621 -2864 631 -2888 11 -24 30 -56 42 -72 42 -53 1960 -1629 2018 -1658 47 -23 67 -27 140 -27 75 0 93 4 145 30 69 35 1947 1542 2036 1635 32 33 64 77 73 101 9 24 282 1333 607 2909 649 3149 606 2912 552 3032 -17 38 -44 75 -78 106 -48 43 -177 102 -1616 737 -860 379 -1586 697 -1614 707 -64 22 -146 22 -210 0z m193 -137 c33 -10 50 -20 46 -27 -5 -7 -2 -8 5 -4 14 9 73 -13 66 -24 -3 -4 1 -8 8 -7 34 1 48 -4 41 -15 -4 -6 -3 -8 4 -5 10 7 40 -4 142 -51 75 -34 390 -172 394 -172 2 0 48 -21 102 -46 54 -26 101 -47 104 -47 3 0 39 -16 80 -35 41 -19 122 -54 180 -79 58 -25 128 -55 155 -68 28 -12 104 -46 170 -75 66 -29 147 -64 180 -79 33 -15 95 -42 137 -61 42 -18 74 -38 71 -43 -3 -6 -1 -7 6 -3 6 4 63 -15 125 -43 63 -28 120 -51 126 -51 6 0 8 -5 4 -12 -4 -6 -3 -8 3 -5 6 4 46 -9 89 -29 44 -20 151 -68 239 -106 88 -38 188 -83 223 -99 35 -16 65 -29 67 -29 6 0 132 -57 173 -78 46 -23 99 -84 128 -146 36 -77 32 -144 -27 -427 -28 -134 -57 -275 -64 -314 -8 -38 -35 -169 -60 -290 -61 -292 -112 -538 -135 -655 -10 -52 -42 -205 -70 -340 -28 -135 -71 -342 -95 -460 -24 -118 -76 -370 -115 -560 -39 -190 -82 -397 -95 -460 -13 -63 -53 -259 -90 -435 -36 -176 -88 -428 -115 -560 -65 -319 -165 -802 -185 -895 -9 -41 -28 -97 -44 -125 -29 -52 20 -11 -1490 -1230 -204 -165 -395 -313 -424 -330 -48 -28 -60 -30 -147 -30 -83 0 -101 3 -140 26 -38 21 -328 256 -825 669 -136 113 -303 250 -485 400 -317 261 -515 427 -537 451 -36 40 -61 108 -93 260 -17 79 -42 194 -55 254 -13 61 -108 502 -211 980 -102 479 -203 951 -224 1050 -74 344 -179 832 -244 1140 -37 171 -71 328 -76 350 -5 22 -53 243 -106 490 -105 498 -136 638 -165 766 -27 123 -25 210 7 279 40 87 101 136 247 199 69 30 129 53 133 52 4 -2 10 1 13 6 3 4 51 28 106 52 55 24 133 59 173 77 40 19 75 34 77 34 3 0 40 16 82 36 43 20 121 54 173 76 52 22 120 51 150 65 30 14 107 48 170 75 63 28 143 64 178 79 34 16 64 29 67 29 2 0 38 16 79 35 42 19 82 36 89 38 6 1 14 4 17 7 16 17 181 81 191 74 7 -4 10 -3 6 3 -3 5 13 18 36 28 59 26 167 74 202 90 17 7 89 39 160 70 72 31 155 68 185 82 30 14 75 33 100 43 25 10 69 29 99 43 29 14 60 23 69 20 8 -4 13 -2 10 3 -7 10 179 97 252 118 63 19 117 19 178 1z"
       id="path1" />
    <path
       d="M5077 8673 c-13 -21 -35 -58 -49 -83 -14 -25 -35 -61 -46 -80 -12 -19 -44 -75 -72 -125 -28 -49 -61 -108 -74 -130 -13 -22 -48 -83 -78 -135 -30 -52 -94 -162 -141 -244 -48 -82 -87 -151 -87 -153 0 -2 -18 -32 -40 -67 l-40 -63 25 -229 c13 -126 27 -249 29 -274 3 -25 21 -196 41 -380 33 -315 76 -712 110 -1020 8 -74 26 -243 40 -375 14 -132 41 -386 61 -565 19 -179 46 -428 59 -555 46 -437 106 -979 108 -980 1 -1 46 -37 100 -79 l97 -78 98 78 c53 42 98 78 99 79 1 0 45 433 98 961 88 887 110 1111 166 1674 11 113 31 315 44 450 14 135 43 425 65 645 22 220 44 443 50 495 5 52 10 109 10 125 0 28 -54 128 -254 470 -30 50 -65 110 -78 135 -37 65 -310 534 -313 538 -2 2 -14 -13 -28 -35z"
       id="path2" />
    <path
       d="M3848 3111 c-60 -109 -108 -205 -108 -214 0 -8 34 -77 76 -154 42 -76 92 -166 111 -201 29 -53 37 -61 56 -57 12 3 211 37 441 75 251 41 424 74 431 82 7 7 49 68 95 134 l82 122 -87 127 c-48 69 -97 130 -109 134 -11 5 -144 29 -294 55 -150 26 -334 58 -410 71 -75 14 -146 25 -157 25 -16 0 -43 -43 -127 -199z"
       id="path3" />
    <path
       d="M6210 3303 c-14 -3 -203 -36 -420 -73 -454 -79 -389 -50 -511 -229 l-71 -103 82 -122 c46 -66 88 -127 95 -134 9 -10 731 -138 868 -154 27 -3 33 5 139 197 60 110 110 205 111 211 0 6 -33 71 -73 145 -40 74 -89 164 -109 202 -38 71 -41 72 -111 60z"
       id="path4" />
    <path
       d="M5065 2692 c-22 -20 -63 -57 -92 -82 l-52 -45 -51 -390 c-27 -214 -52 -403 -55 -420 -4 -28 1 -34 91 -95 52 -36 121 -84 153 -107 l59 -42 87 60 c212 146 220 152 217 179 -1 14 -25 201 -53 415 l-51 390 -91 87 c-51 48 -99 87 -107 87 -8 0 -33 -16 -55 -37z"
       id="path5" />
  </g>
  <path
     style="fill:#ffffff;stroke-width:1.69186"
     d="M 663.31802,1316.2332 C 638.12833,1299.139 397.33919,1099.9227 393.08672,1092.658 389.84636,1087.1223 381.48536,1050.2772 339.21035,855.23668 279.96324,581.89344 233.93555,366.13977 226.59938,327.37546 c -2.99118,-15.80538 -2.34944,-24.04138 2.6345,-33.81072 7.58832,-14.87434 7.22466,-14.69253 195.4237,-97.70334 C 667.34763,88.815709 671.34318,87.130938 682.51954,87.130938 c 9.1129,0 14.05913,1.69934 48.71046,16.735112 100.0899,43.43063 340.2584,149.67481 374.7833,165.79417 17.9144,8.3641 26.7754,16.0392 31.68,27.4402 3.6712,8.53413 3.6792,8.76732 0.9094,26.6327 -5.4566,35.19571 -30.9495,160.76568 -110.137,542.50067 -46.64027,224.83581 -45.65518,220.41771 -50.58764,226.88451 -4.97416,6.5215 -19.78272,19.1533 -74.42329,63.4836 -94.48377,76.6555 -192.76439,154.5737 -202.17761,160.2891 -9.08772,5.5177 -29.3771,5.1661 -37.95914,-0.6578 z m 37.93401,-72.701 c 6.18994,-3.2009 38.03266,-28.3014 120.14739,-94.7079 142.27718,-115.06 135.58697,-109.2754 139.5143,-120.6301 1.52203,-4.4005 15.25145,-68.52729 30.50982,-142.50399 15.25836,-73.9767 43.06406,-208.73358 61.79046,-299.45973 46.827,-226.86845 54.0706,-263.47026 54.0918,-273.32664 0.021,-9.82014 -5.6799,-22.85483 -13.1094,-29.97272 -2.7447,-2.62962 -26.4545,-14.06102 -57.1126,-27.5362 -28.8308,-12.67201 -56.98764,-25.14787 -62.57079,-27.72414 -5.58315,-2.57627 -13.95787,-6.07124 -18.61049,-7.7666 -4.65262,-1.69535 -9.22845,-3.65444 -10.1685,-4.35351 -1.68457,-1.25272 -110.60352,-49.50346 -189.11767,-83.77849 -22.13807,-9.66429 -41.26865,-17.57144 -42.51237,-17.57144 -1.24374,0 -3.20911,-1.142 -4.36751,-2.53779 -1.1584,-1.39579 -3.03799,-2.5378 -4.17689,-2.5378 -1.13887,0 -4.55046,-1.23707 -7.5813,-2.74905 -9.89518,-4.93637 -26.7503,-2.56232 -46.62862,6.56766 -9.29559,4.26941 -37.45722,16.66987 -62.58138,27.55659 -25.12417,10.88671 -51.00967,22.29579 -57.52334,25.35351 -6.51367,3.05773 -16.41107,7.45456 -21.99422,9.77075 -5.58314,2.31619 -50.12143,21.88664 -98.97397,43.48989 -48.85255,21.60325 -97.5782,43.03703 -108.27923,47.63061 -10.70103,4.59359 -23.13071,11.028 -27.6215,14.29867 -10.46084,7.61872 -16.32688,19.46176 -16.35041,33.01009 -0.0103,5.91129 8.66259,49.83147 22.88514,115.89261 12.59592,58.50573 46.07183,214.48409 74.3909,346.61858 28.31908,132.13449 53.09686,244.97944 55.06174,250.76654 4.29518,12.6505 1.19981,9.7908 89.58209,82.761 132.91581,109.7381 157.76418,129.9172 164.95663,133.9597 5.10646,2.8701 30.49654,2.5068 36.34992,-0.5201 z"
     id="path6"
     transform="scale(0.75)" />
  <path
     style="fill:#ffffff;stroke-width:1.69186"
     d="m 527.46092,1030.7675 c -0.9133,-1.1632 -7.60943,-13.0408 -14.88028,-26.3948 l -13.21974,-24.27996 7.22797,-14.6329 c 3.97539,-8.0481 10.72737,-20.53981 15.00442,-27.75936 7.4203,-12.5253 8.01308,-13.085 12.9437,-12.2214 2.842,0.49778 24.96206,4.3119 49.1557,8.47582 24.19364,4.16393 47.96006,8.37992 52.81427,9.36887 9.53997,1.94359 10.7819,3.1403 25.83077,24.8899 l 7.34765,10.61929 -11.2795,16.67404 c -10.32421,15.2619 -11.888,16.8255 -18.46433,18.4619 -7.37764,1.8359 -105.82937,18.9134 -109.03556,18.9134 -0.98149,0 -2.53177,-0.9517 -3.44507,-2.1148 z"
     id="path7"
     transform="scale(0.75)" />
  <path
     style="fill:#ffffff;stroke-width:1.69186"
     d="m 821.39942,1031.0115 c -20.27378,-3.3425 -87.34225,-15.3103 -94.98277,-16.9489 -7.82867,-1.679 -8.51147,-2.3277 -19.41429,-18.44488 L 695.7021,978.913 705.83661,964.02403 c 6.69641,-9.83793 12.09149,-15.8727 15.90312,-17.78873 3.17273,-1.59487 30.06781,-7.14936 59.76684,-12.3433 44.00539,-7.69593 54.37751,-9.03787 56.04769,-7.25141 3.04502,3.25699 27.83461,50.03499 27.82729,52.51011 -0.003,1.17137 -6.32583,13.54984 -14.04969,27.5077 -15.35928,27.7559 -14.33711,26.9243 -29.93244,24.3531 z"
     id="path8"
     transform="scale(0.75)" />
  <path
     style="fill:#ffffff;stroke-width:1.69186"
     d="m 662.39989,1148.6226 c -9.75094,-6.9574 -18.19128,-13.5761 -18.75631,-14.7081 -0.56503,-1.132 2.20235,-26.3024 6.14975,-55.934 l 7.17707,-53.8758 9.74649,-8.7232 c 16.42406,-14.6995 14.69476,-14.3761 25.7236,-4.8109 16.8607,14.6231 15.21374,9.667 22.8322,68.7068 6.58027,50.9943 6.75437,53.5097 3.92033,56.6413 -4.22907,4.6731 -34.6439,25.5639 -37.05171,25.4495 -1.10684,-0.053 -9.99048,-5.7881 -19.74142,-12.7456 z"
     id="path9"
     transform="scale(0.75)" />
  <path
     style="fill:#ffffff;stroke-width:1.69186"
     d="m 669.50502,945.58045 c -10.00917,-7.91946 -12.13497,-10.49031 -12.94054,-15.64973 -1.10535,-7.07944 -7.6771,-67.72585 -37.33566,-344.54617 C 607.56433,476.51318 597.19339,379.82321 596.18228,370.51797 l -1.83839,-16.91863 10.00296,-16.91863 c 5.50162,-9.30525 24.74332,-42.59701 42.75933,-73.98169 27.89184,-48.58883 33.04851,-56.62892 34.72354,-54.13962 3.55714,5.28637 71.60386,123.04041 78.02474,135.02089 l 6.27732,11.7126 -20.73005,208.94422 c -23.31264,234.97493 -35.12027,352.33691 -36.63188,364.10256 -0.94704,7.37123 -1.89021,8.66653 -12.62715,17.3416 -6.38201,5.15642 -12.29157,9.37532 -13.13236,9.37532 -0.84078,0 -6.91817,-4.26427 -13.50532,-9.47614 z"
     id="path10"
     transform="scale(0.75)" />
</svg>
