<?xml version="1.0" encoding="UTF-8" standalone="no"?>
<svg
   version="1.0"
   width="256.000000pt"
   height="256.000000pt"
   viewBox="0 0 256.000000 256.000000"
   preserveAspectRatio="xMidYMid meet"
   id="svg27"
   sodipodi:docname="htop.svg"
   xml:space="preserve"
   inkscape:version="1.4.2 (f4327f4, 2025-05-13)"
   xmlns:inkscape="http://www.inkscape.org/namespaces/inkscape"
   xmlns:sodipodi="http://sodipodi.sourceforge.net/DTD/sodipodi-0.dtd"
   xmlns="http://www.w3.org/2000/svg"
   xmlns:svg="http://www.w3.org/2000/svg"><defs
     id="defs27" /><sodipodi:namedview
     id="namedview27"
     pagecolor="#ffffff"
     bordercolor="#000000"
     borderopacity="0.25"
     inkscape:showpageshadow="2"
     inkscape:pageopacity="0.0"
     inkscape:pagecheckerboard="0"
     inkscape:deskcolor="#d1d1d1"
     inkscape:document-units="pt"
     inkscape:zoom="1.6717827"
     inkscape:cx="303.26907"
     inkscape:cy="137.87677"
     inkscape:window-width="1920"
     inkscape:window-height="1009"
     inkscape:window-x="-8"
     inkscape:window-y="-8"
     inkscape:window-maximized="1"
     inkscape:current-layer="svg27" /><g
     id="g27"
     transform="translate(-1.4721904,-1.5449006)"><path
       style="fill:#d2ecd2"
       d="m 30.523824,252.7667 c -0.385222,-0.38523 -0.700404,-17.583 -0.700404,-38.21729 v -37.51688 h 7.944868 7.944869 l -0.259692,37.93006 -0.259692,37.93007 -6.984772,0.28722 c -3.841625,0.15797 -7.299955,-0.028 -7.685177,-0.41318 z m 22.768307,-0.0393 c -0.3636,-0.3636 -0.661091,-17.54368 -0.661091,-38.17797 v -37.51688 h 7.933086 7.933085 v 37.57606 c 0,33.34968 -0.176424,37.64376 -1.568557,38.17797 -2.120571,0.81374 -12.809994,0.76735 -13.636523,-0.0592 z m 22.807621,0 c -0.3636,-0.3636 -0.661091,-17.54368 -0.661091,-38.17797 v -37.51688 h 7.31822 7.31822 l 0.733969,36.69331 c 0.573318,28.66187 0.464274,37.01827 -0.498191,38.17797 -1.265606,1.52496 -12.839027,2.19567 -14.211127,0.82357 z m 89.175998,-0.93884 c -0.33768,-0.87996 -0.31331,-18.06004 0.0541,-38.17797 l 0.6681,-36.57804 h 7.20186 7.20186 l 0.33569,36.93843 c 0.18464,20.31613 0.17072,37.49622 -0.0309,38.17797 -0.24983,0.84467 -2.66826,1.23954 -7.5917,1.23954 -5.73327,0 -7.35185,-0.33035 -7.83903,-1.59993 z m 22.68675,0.4002 c -0.27167,-0.70796 -0.37677,-17.79617 -0.23357,-37.9738 l 0.26038,-36.6866 7.697,-0.28983 7.697,-0.28983 -0.25973,37.97199 -0.25973,37.97199 -7.2037,0.29164 c -5.20852,0.21086 -7.34051,-0.0649 -7.69765,-0.99556 z m 23.03902,0.57796 c -0.38522,-0.38523 -0.70041,-17.60178 -0.70041,-38.259 v -37.5586 l 7.68518,0.28962 7.68518,0.28962 v 37.68216 37.68216 l -6.98478,0.28722 c -3.84162,0.15797 -7.29995,-0.028 -7.68517,-0.41318 z M 3.7650803,222.32318 C 3.4412486,205.78267 3.4352387,188.8257 3.7517249,184.64103 l 0.5754295,-7.6085 H 15.633141 26.939128 l -0.293216,6.69354 -0.293217,6.69354 -3.718634,0.30777 -3.718634,0.30777 v 23.24357 23.24358 h 3.860449 c 4.410901,0 5.064272,0.95953 5.064272,7.43727 0,7.51945 0.136419,7.43727 -12.345053,7.43727 H 4.353865 Z m 224.9873897,28.5051 c -0.76705,-1.99888 -0.75416,-8.17445 0.0231,-11.0748 0.48992,-1.82813 1.29356,-2.23118 4.44882,-2.23118 h 3.85089 v -23.24358 -23.24357 l -3.71864,-0.30777 -3.71863,-0.30777 -0.29322,-6.69354 -0.29321,-6.69354 h 11.31325 11.31326 l 0.6157,9.17263 c 0.33863,5.04494 0.40527,21.66724 0.14809,36.93843 -0.25718,15.27119 -0.4731,28.10047 -0.47983,28.50952 -0.007,0.40905 -5.09621,0.74373 -11.30995,0.74373 -9.38727,0 -11.3995,-0.26525 -11.89963,-1.56856 z M 4.5873694,165.87663 C 3.8748661,163.57015 3.1576379,106.18731 3.7445465,98.445399 L 4.3271544,90.760222 H 15.587834 26.848513 v 6.94145 6.941448 H 22.88197 18.915427 V 127.94656 151.25 h 3.435836 c 4.250654,0 5.488885,1.99074 5.488885,8.82464 0,3.91707 -0.411959,5.20895 -1.918079,6.015 -2.844615,1.5224 -20.854154,1.34258 -21.3346996,-0.21301 z m 25.7050596,0.0398 c -0.27167,-0.70796 -0.376776,-17.79617 -0.233569,-37.97379 l 0.260378,-36.6866 7.696999,-0.289834 7.697,-0.289834 -0.259732,37.971988 -0.259732,37.97199 -7.203699,0.29164 c -5.208513,0.21087 -7.340506,-0.0649 -7.697645,-0.99556 z m 23.039016,0.57796 c -0.385223,-0.38522 -0.700405,-17.60177 -0.700405,-38.259 V 90.676797 l 7.685177,0.289622 7.685176,0.289621 v 37.68216 37.68215 l -6.984772,0.28722 c -3.841625,0.15798 -7.299954,-0.028 -7.685176,-0.41318 z M 75.438661,128.9382 V 90.760222 h 7.314981 7.314981 l 0.730722,36.050418 c 0.401897,19.82773 0.426855,37.00782 0.05546,38.17798 -0.610734,1.92425 -1.379561,2.12755 -8.045703,2.12755 h -7.370444 z m 22.477076,37.51688 c -0.826045,-0.82605 -0.882851,-71.979848 -0.05918,-74.126301 0.473759,-1.234596 2.162793,-1.568557 7.933083,-1.568557 h 7.33118 v 38.177978 38.17797 h -7.272 c -3.9996,0 -7.569485,-0.29749 -7.933083,-0.66109 z m 22.846933,0.0393 c -0.38522,-0.38522 -0.7004,-17.583 -0.7004,-38.21728 V 90.760222 h 7.94487 7.94486 l -0.25969,37.930068 -0.25969,37.93006 -6.98477,0.28722 c -3.84163,0.15798 -7.29996,-0.028 -7.68518,-0.41318 z M 142.86989,128.9382 V 90.676797 l 7.68517,0.289622 7.68518,0.289621 v 37.68216 37.68215 l -7.68518,0.28962 -7.68517,0.28962 z m 22.28807,36.11994 c -0.35925,-1.13192 -0.32666,-18.31201 0.0724,-38.17798 l 0.72563,-36.119938 h 7.29801 7.298 v 38.177978 38.17797 h -7.37044 c -6.58878,0 -7.43972,-0.21826 -8.02364,-2.05803 z m 22.78776,0.81456 c -0.26244,-0.68391 -0.35999,-17.75244 -0.21679,-37.93006 l 0.26038,-36.6866 7.68518,-0.289621 7.68517,-0.289622 v 38.219683 38.21969 h -7.46839 c -5.0725,0 -7.62146,-0.39891 -7.94555,-1.24347 z m 22.35539,-36.9345 V 90.676797 l 7.68518,0.289622 7.68518,0.289621 v 37.68216 37.68215 l -7.68518,0.28962 -7.68518,0.28962 z m 19.03941,36.98801 c -1.43361,-1.43361 -1.56529,-8.60175 -0.22287,-12.13257 0.78565,-2.06642 1.62285,-2.54364 4.46236,-2.54364 h 3.49527 v -23.30344 -23.30344 h -3.96655 -3.96654 v -6.941448 -6.94145 h 11.26795 11.26795 l 0.61602,9.17263 c 0.70577,10.508908 -0.016,64.858288 -0.87993,66.256108 -0.86842,1.40513 -20.64114,1.16977 -22.07366,-0.26275 z M 30.292429,79.644129 C 30.020759,78.936168 29.915653,61.847959 30.05886,41.670332 l 0.260378,-36.686596 7.696999,-0.2898342 7.697,-0.2898342 -0.259732,37.9719904 -0.259732,37.97199 -7.203699,0.291641 c -5.208513,0.210867 -7.340506,-0.06487 -7.697645,-0.99556 z m 23.039016,0.57796 C 52.946222,79.836866 52.63104,62.639087 52.63104,42.004801 V 4.4879181 h 7.944869 7.944869 L 68.261086,42.417983 68.001393,80.348048 61.016621,80.63527 c -3.841625,0.157973 -7.299954,-0.02796 -7.685176,-0.413181 z m 22.768307,-0.03931 c -0.3636,-0.3636 -0.661091,-17.543688 -0.661091,-38.177974 V 4.4879181 h 7.314981 7.314981 l 0.730722,36.0504199 c 0.401897,19.827731 0.426855,37.00782 0.05546,38.177974 -0.602872,1.899479 -1.394505,2.127554 -7.384613,2.127554 -3.690144,0 -7.006844,-0.297491 -7.370443,-0.661091 z M 165.17124,78.82766 c -0.36656,-1.154922 -0.33994,-18.353832 0.0592,-38.2198 l 0.72563,-36.1199419 h 7.30979 7.30979 l -0.25969,37.9300649 -0.25969,37.930065 -7.10926,0.289735 c -6.49968,0.264892 -7.16641,0.109682 -7.77573,-1.810123 z m 22.79126,0.816469 c -0.27167,-0.707961 -0.37677,-17.79617 -0.23357,-37.973797 l 0.26038,-36.686596 7.697,-0.2898342 7.697,-0.2898342 -0.25973,37.9719904 -0.25973,37.97199 -7.2037,0.291641 c -5.20852,0.210867 -7.34051,-0.06487 -7.69765,-0.99556 z m 23.03902,0.57796 c -0.38522,-0.385223 -0.70041,-17.601772 -0.70041,-38.259 V 4.4044933 l 7.68518,0.2896213 7.68518,0.2896214 v 37.682156 37.682156 l -6.98478,0.287222 c -3.84162,0.157973 -7.29995,-0.02796 -7.68517,-0.413181 z M 3.7650803,49.778573 C 3.4412486,33.238062 3.4352387,16.281092 3.7517249,12.096418 L 4.3271544,4.4879181 H 15.633141 26.939128 l -0.293216,6.6935409 -0.293217,6.693541 -3.718634,0.307769 -3.718634,0.307769 v 23.243578 23.243579 h 3.860449 c 4.410901,0 5.064272,0.959524 5.064272,7.437267 0,7.519453 0.136419,7.437268 -12.345053,7.437268 H 4.353865 Z m 224.9873897,28.5051 c -0.76705,-1.998884 -0.75416,-8.174448 0.0231,-11.074798 0.48992,-1.828136 1.29356,-2.23118 4.44882,-2.23118 h 3.85089 V 41.734116 18.490538 l -3.71864,-0.307769 -3.71863,-0.307769 -0.29322,-6.693541 -0.29321,-6.6935409 h 11.31325 11.31326 l 0.6157,9.1726299 c 0.33863,5.044947 0.40527,21.66724 0.14809,36.938429 -0.25718,15.27119 -0.4731,28.100476 -0.47983,28.509526 -0.007,0.40905 -5.09621,0.743727 -11.30995,0.743727 -9.38727,0 -11.3995,-0.265244 -11.89963,-1.568557 z"
       id="path40" /><path
       style="fill:#e69b9b"
       d="M 4.7019826,251.73575 C 4.3383828,251.37215 4.0408921,234.62368 4.0408921,214.51693 v -36.55772 l 11.1559019,0.28038 11.155901,0.28039 v 5.454 5.45399 l -4.23195,0.30578 -4.23195,0.30578 0.265407,23.9893 0.265407,23.98929 4.214452,0.30493 4.214452,0.30492 v 6.28252 c 0,4.81407 -0.36663,6.42321 -1.568557,6.88444 -2.131495,0.81793 -19.7515355,0.76726 -20.5779734,-0.0592 z M 30.815055,215.25394 v -37.22978 h 6.843627 6.843626 l 0.653882,11.1559 c 0.359635,6.13575 0.515215,22.75804 0.345733,36.93843 l -0.30815,25.78253 -7.189359,0.29135 -7.189359,0.29135 z m 22.477076,36.48181 c -0.845187,-0.84519 -0.855338,-54.70159 -0.01235,-65.53059 l 0.636852,-8.181 h 6.794472 6.794473 v 37.18634 37.18634 h -6.776177 c -3.726898,0 -7.073668,-0.29749 -7.437268,-0.66109 z m 22.38237,-36.27734 0.259978,-36.93843 7.189359,-0.29135 7.189358,-0.29135 v 37.22978 37.22978 h -7.449337 -7.449337 z m 90.003009,-0.78717 v -37.7256 l 7.18936,0.29135 7.18936,0.29135 0.25983,37.43425 0.25983,37.43425 h -7.44919 -7.44919 z m 22.57654,36.98187 c -0.19147,-0.40905 -0.17617,-17.36602 0.034,-37.68215 l 0.38214,-36.93843 h 6.74282 c 5.2338,0 6.87753,0.35104 7.34473,1.56855 0.33105,0.86271 0.60191,17.81968 0.60191,37.68216 v 36.1136 h -7.37874 c -4.05831,0 -7.5354,-0.33468 -7.72687,-0.74373 z m 22.04706,-35.32816 c 0,-19.88542 0.27086,-36.86116 0.60192,-37.72387 0.46831,-1.2204 2.11909,-1.56855 7.43726,-1.56855 h 6.83536 l 0.20659,32.72397 c 0.11362,17.99819 0.22518,34.8436 0.24791,37.43425 l 0.0413,4.71027 -7.68518,0.28962 -7.68518,0.28962 z m 19.53372,35.44235 c -0.38095,-0.38095 -0.69264,-3.49315 -0.69264,-6.91599 v -6.22334 l 4.21445,-0.30492 4.21445,-0.30493 0.26541,-23.98929 0.26541,-23.9893 -4.23195,-0.30578 -4.23195,-0.30578 v -5.45399 -5.454 l 11.168,-0.2805 11.16801,-0.2805 -0.26001,36.97102 -0.26002,36.97102 -10.46325,0.27946 c -5.7548,0.15371 -10.77495,-0.0322 -11.15591,-0.41318 z M 4.7019826,165.46344 C 4.3383828,165.09984 4.0408921,148.35138 4.0408921,128.24463 V 91.686904 l 11.1559019,0.280386 11.155901,0.280386 v 5.453996 5.453998 l -4.23195,0.30578 -4.23195,0.30578 0.265407,23.98929 0.265407,23.9893 4.214452,0.30492 4.214452,0.30493 v 6.88443 6.88443 h -10.74272 c -5.908496,0 -11.0402107,-0.29749 -11.4038104,-0.66109 z M 30.815055,128.9382 V 91.751858 h 6.79296 6.79296 l 0.644308,9.077062 c 0.354369,4.99238 0.644308,21.72623 0.644308,37.18634 v 28.10927 h -7.437268 -7.437268 z m 22.477076,36.52524 c -0.845187,-0.84518 -0.855338,-54.70158 -0.01235,-65.530588 l 0.636852,-8.180994 h 6.794472 6.794473 v 37.186342 37.18633 h -6.776177 c -3.726898,0 -7.073668,-0.29749 -7.437268,-0.66109 z m 22.38237,-36.27734 0.259978,-36.938424 7.189359,-0.291352 7.189358,-0.291352 v 37.229778 37.22978 h -7.449337 -7.449337 z m 22.571781,-0.2479 V 91.751858 h 6.811698 6.81171 l 0.61465,3.718634 c 0.33806,2.045248 0.61956,18.779098 0.62556,37.186338 l 0.0109,33.4677 h -7.43727 -7.437268 z m 22.541968,36.48435 c -0.23886,-0.43201 -0.21893,-17.18464 0.0443,-37.22808 l 0.47858,-36.442612 h 6.81284 6.81284 l 0.21875,29.749072 c 0.1203,16.36199 0.23186,32.98428 0.2479,36.93843 l 0.0292,7.18936 -7.10504,0.28965 c -3.90777,0.1593 -7.30047,-0.0638 -7.53933,-0.49582 z m 22.09255,-32.76572 c 0.006,-18.40724 0.28751,-35.14109 0.62557,-37.186338 l 0.61465,-3.718634 h 6.8117 6.8117 v 37.186342 37.18633 h -7.43727 -7.43726 z m 22.79671,-3.76208 V 91.664972 l 7.18936,0.291352 7.18936,0.291352 0.25997,36.938424 0.25998,36.93843 h -7.44933 -7.44934 z m 22.5751,36.48606 c -0.19226,-0.40905 -0.17638,-17.1616 0.0353,-37.22789 l 0.38485,-36.484161 7.09555,0.289458 7.09555,0.289459 0.25997,36.938424 0.25998,36.93843 H 195.993 c -4.06495,0 -7.54812,-0.33467 -7.74038,-0.74372 z m 22.2843,-36.15277 0.26002,-36.980364 7.18936,-0.291352 7.18936,-0.291352 0.20283,32.767418 c 0.11156,18.02208 0.22312,34.66393 0.24791,36.98187 l 0.0451,4.21446 -7.69729,0.28984 -7.69729,0.28983 z m 18.80788,30.20295 0.29322,-6.69354 3.96654,-0.49582 3.96654,-0.49581 0.26541,-23.9893 0.26541,-23.98929 -4.23195,-0.30578 -4.23195,-0.30578 v -5.453998 -5.453996 l 11.1559,-0.280386 11.1559,-0.280386 v 37.218816 37.21881 H 240.50069 229.05158 Z M 4.7335347,79.222692 C 4.3525813,78.841738 4.0408921,62.079073 4.0408921,41.972324 V 5.4145995 L 15.196794,5.6949856 26.352695,5.9753717 v 5.4539963 5.453996 l -4.23195,0.305781 -4.23195,0.305781 0.265407,23.989293 0.265407,23.989293 4.258411,0.307074 4.258411,0.307074 -0.291868,6.634376 -0.291868,6.634376 -10.463259,0.279461 C 10.134644,79.789577 5.1144882,79.603645 4.7335347,79.222692 Z M 30.815055,42.709335 V 5.4795538 h 6.841599 6.841599 l 0.657016,12.1475372 c 0.36136,6.681145 0.517852,23.303438 0.34776,36.938429 l -0.309256,24.790892 -7.189359,0.291352 -7.189359,0.291352 z M 53.292131,79.191139 C 52.446944,78.345952 52.436793,24.489553 53.279779,13.660548 l 0.636852,-8.1809942 h 6.794472 6.794473 V 42.665892 79.85223 h -6.776177 c -3.726898,0 -7.073668,-0.297491 -7.437268,-0.661091 z M 75.674501,42.913801 75.934479,5.9753717 83.123838,5.6840196 90.313196,5.3926676 V 42.622449 79.85223 H 82.863859 75.414522 Z M 165.67751,42.622449 V 5.3926676 l 7.18936,0.291352 7.18936,0.2913521 0.25997,36.9384293 0.25998,36.938429 h -7.44933 -7.44934 z m 22.80762,0.08689 V 5.4795538 h 6.8416 6.8416 l 0.65701,12.1475372 c 0.36136,6.681145 0.51785,23.303438 0.34776,36.938429 l -0.30925,24.790892 -7.18936,0.291352 -7.18936,0.291352 z m 21.81598,1.071008 c 0,-19.885421 0.27086,-36.8611617 0.60192,-37.723868 0.4612,-1.2018722 2.07023,-1.5685569 6.88292,-1.5685569 3.45456,0 6.48981,0.3378351 6.745,0.7507447 0.25519,0.4129095 0.59638,17.2583202 0.75818,37.4342472 l 0.2942,36.683502 -7.64111,0.289621 -7.64111,0.289622 z m 19.53372,35.442349 c -0.38095,-0.380954 -0.69264,-3.493147 -0.69264,-6.915985 v -6.223343 l 4.21445,-0.304926 4.21445,-0.304926 0.26541,-23.989293 0.26541,-23.989293 -4.23195,-0.305781 -4.23195,-0.305781 v -5.454 -5.4539963 l 11.168,-0.2804993 11.16801,-0.2804993 -0.26001,36.9710199 -0.26002,36.971019 -10.46325,0.279461 c -5.7548,0.153704 -10.77495,-0.03223 -11.15591,-0.413181 z"
       id="path39" /><path
       style="fill:#98de98"
       d="M 4.7019826,251.73575 C 4.3383828,251.37215 4.0408921,234.62368 4.0408921,214.51693 v -36.55772 l 11.1559019,0.28038 11.155901,0.28039 v 5.454 5.45399 l -4.23195,0.30578 -4.23195,0.30578 0.265407,23.9893 0.265407,23.98929 4.214452,0.30493 4.214452,0.30492 v 6.28252 c 0,4.81407 -0.36663,6.42321 -1.568557,6.88444 -2.131495,0.81793 -19.7515355,0.76726 -20.5779734,-0.0592 z M 30.815055,215.25394 v -37.22978 h 6.843627 6.843626 l 0.653882,11.1559 c 0.359635,6.13575 0.515215,22.75804 0.345733,36.93843 l -0.30815,25.78253 -7.189359,0.29135 -7.189359,0.29135 z m 22.477076,36.48181 c -0.845187,-0.84519 -0.855338,-54.70159 -0.01235,-65.53059 l 0.636852,-8.181 h 6.794472 6.794473 v 37.18634 37.18634 h -6.776177 c -3.726898,0 -7.073668,-0.29749 -7.437268,-0.66109 z m 22.38237,-36.27734 0.259978,-36.93843 7.189359,-0.29135 7.189358,-0.29135 v 37.22978 37.22978 h -7.449337 -7.449337 z m 90.704709,36.31795 c -0.87613,-0.87613 -0.93186,-58.36796 -0.0646,-66.66528 l 0.63708,-6.09528 h 6.20515 6.20516 l 0.32673,22.55971 c 0.1797,12.40784 0.3359,28.80702 0.34712,36.44261 l 0.0204,13.8829 -6.48766,0.28852 c -3.56821,0.15869 -6.80342,-0.0272 -7.18936,-0.41318 z m 22.80895,10e-4 c -0.87303,-0.87303 -0.93782,-61.84739 -0.0724,-68.16113 l 0.63061,-4.60076 h 5.74367 5.74367 l 0.61579,5.20609 c 0.33868,2.86334 0.48235,19.26252 0.31926,36.44261 l -0.29652,31.23652 -5.99051,0.28985 c -3.29478,0.15942 -6.30687,-0.0265 -6.69354,-0.41318 z m 22.80762,0 c -0.86222,-0.86222 -0.92295,-63.86207 -0.0666,-69.04326 l 0.61465,-3.71863 h 5.73546 5.73546 l 0.63458,7.18936 c 0.34902,3.95414 0.49865,20.35332 0.33251,36.44261 l -0.30206,29.25325 -5.99051,0.28985 c -3.29478,0.15942 -6.30687,-0.0265 -6.69354,-0.41318 z m 17.83905,-0.0104 c -0.38095,-0.38095 -0.69264,-3.49315 -0.69264,-6.91599 v -6.22334 l 4.21445,-0.30492 4.21445,-0.30493 0.26541,-23.98929 0.26541,-23.9893 -4.23195,-0.30578 -4.23195,-0.30578 v -5.45399 -5.454 l 11.168,-0.2805 11.16801,-0.2805 -0.26001,36.97102 -0.26002,36.97102 -10.46325,0.27946 c -5.7548,0.15371 -10.77495,-0.0322 -11.15591,-0.41318 z M 4.7019826,165.46344 C 4.3383828,165.09984 4.0408921,148.35138 4.0408921,128.24463 V 91.686904 l 11.1559019,0.280386 11.155901,0.280386 v 5.453996 5.453998 l -4.23195,0.30578 -4.23195,0.30578 0.265407,23.98929 0.265407,23.9893 4.214452,0.30492 4.214452,0.30493 v 6.88443 6.88443 h -10.74272 c -5.908496,0 -11.0402107,-0.29749 -11.4038104,-0.66109 z M 30.815055,128.9382 V 91.751858 h 6.79296 6.79296 l 0.644308,9.077062 c 0.354369,4.99238 0.644308,21.72623 0.644308,37.18634 v 28.10927 h -7.437268 -7.437268 z m 22.477076,36.52524 c -0.845187,-0.84518 -0.855338,-54.70158 -0.01235,-65.530588 l 0.636852,-8.180994 h 6.794472 6.794473 v 37.186342 37.18633 h -6.776177 c -3.726898,0 -7.073668,-0.29749 -7.437268,-0.66109 z m 22.38237,-36.27734 0.259978,-36.938424 7.189359,-0.291352 7.189358,-0.291352 v 37.229778 37.22978 h -7.449337 -7.449337 z m 22.571781,-0.2479 V 91.751858 h 6.811698 6.81171 l 0.61465,3.718634 c 0.33806,2.045248 0.61956,18.779098 0.62556,37.186338 l 0.0109,33.4677 h -7.43727 -7.437268 z m 22.541968,36.48435 c -0.23886,-0.43201 -0.21893,-17.18464 0.0443,-37.22808 l 0.47858,-36.442612 h 6.81284 6.81284 l 0.21875,29.749072 c 0.1203,16.36199 0.23186,32.98428 0.2479,36.93843 l 0.0292,7.18936 -7.10504,0.28965 c -3.90777,0.1593 -7.30047,-0.0638 -7.53933,-0.49582 z m 22.09255,-32.76572 c 0.006,-18.40724 0.28751,-35.14109 0.62557,-37.186338 l 0.61465,-3.718634 h 6.8117 6.8117 v 37.186342 37.18633 h -7.43727 -7.43726 z m 22.79671,-3.76208 V 91.664972 l 7.18936,0.291352 7.18936,0.291352 0.25997,36.938424 0.25998,36.93843 h -7.44933 -7.44934 z m 22.81624,5.74535 c 0.005,-17.31644 0.29001,-33.82717 0.63394,-36.690519 l 0.62533,-5.206087 h 5.68194 5.68194 l 0.61465,3.718633 c 0.33806,2.045249 0.61956,18.555983 0.62556,36.690523 l 0.0109,32.97188 h -6.94145 -6.94145 z m 22.80991,-1.48745 c 0.006,-18.13454 0.28751,-34.645274 0.62557,-36.690523 l 0.61465,-3.718633 h 5.68194 5.68194 l 0.62533,5.206087 c 0.34392,2.863349 0.6292,19.374079 0.63394,36.690519 l 0.009,31.48443 h -6.94145 -6.94145 z m 18.04113,26.27834 0.29322,-6.69354 3.96654,-0.49582 3.96654,-0.49581 0.26541,-23.9893 0.26541,-23.98929 -4.23195,-0.30578 -4.23195,-0.30578 v -5.453998 -5.453996 l 11.1559,-0.280386 11.1559,-0.280386 v 37.218816 37.21881 H 240.50069 229.05158 Z M 4.7335347,79.222692 C 4.3525813,78.841738 4.0408921,62.079073 4.0408921,41.972324 V 5.4145995 L 15.196794,5.6949856 26.352695,5.9753717 v 5.4539963 5.453996 l -4.23195,0.305781 -4.23195,0.305781 0.265407,23.989293 0.265407,23.989293 4.258411,0.307074 4.258411,0.307074 -0.291868,6.634376 -0.291868,6.634376 -10.463259,0.279461 C 10.134644,79.789577 5.1144882,79.603645 4.7335347,79.222692 Z M 30.815055,42.709335 V 5.4795538 h 6.841599 6.841599 l 0.657016,12.1475372 c 0.36136,6.681145 0.517852,23.303438 0.34776,36.938429 l -0.309256,24.790892 -7.189359,0.291352 -7.189359,0.291352 z M 53.292131,79.191139 C 52.446944,78.345952 52.436793,24.489553 53.279779,13.660548 l 0.636852,-8.1809942 h 6.794472 6.794473 V 42.665892 79.85223 h -6.776177 c -3.726898,0 -7.073668,-0.297491 -7.437268,-0.661091 z M 75.674501,42.913801 75.934479,5.9753717 83.123838,5.6840196 90.313196,5.3926676 V 42.622449 79.85223 H 82.863859 75.414522 Z M 165.67751,42.622449 V 5.3926676 l 7.18936,0.291352 7.18936,0.2913521 0.25997,36.9384293 0.25998,36.938429 h -7.44933 -7.44934 z m 22.80762,0.08689 V 5.4795538 h 6.8416 6.8416 l 0.65701,12.1475372 c 0.36136,6.681145 0.51785,23.303438 0.34776,36.938429 l -0.30925,24.790892 -7.18936,0.291352 -7.18936,0.291352 z m 22.81853,4.171008 c 0.006,-18.134537 0.28751,-34.645271 0.62557,-36.69052 l 0.61465,-3.7186335 h 5.68194 5.68194 l 0.62533,5.2060875 c 0.34392,2.863348 0.6292,19.374082 0.63394,36.69052 l 0.009,31.484433 h -6.94145 -6.94145 z m 18.53117,32.342349 c -0.38095,-0.380954 -0.69264,-3.493147 -0.69264,-6.915985 v -6.223343 l 4.21445,-0.304926 4.21445,-0.304926 0.26541,-23.989293 0.26541,-23.989293 -4.23195,-0.305781 -4.23195,-0.305781 v -5.454 -5.4539963 l 11.168,-0.2804993 11.16801,-0.2804993 -0.26001,36.9710199 -0.26002,36.971019 -10.46325,0.279461 c -5.7548,0.153704 -10.77495,-0.03223 -11.15591,-0.413181 z"
       id="path38" /><path
       style="fill:#919b91"
       d="M 4.4927987,251.15253 C 4.2301822,250.46817 4.1326282,233.84587 4.2760121,214.2141 l 0.2606979,-35.69412 10.528058,-0.28012 10.528057,-0.28012 0.666305,5.02285 c 0.366468,2.76257 0.399544,5.45448 0.0735,5.98203 -0.326041,0.52754 -2.359344,0.95917 -4.518451,0.95917 H 17.88853 l 0.265539,24.04717 0.265538,24.04716 4.214452,0.30493 4.214452,0.30492 v 6.28252 c 0,4.81407 -0.36663,6.42321 -1.568557,6.88444 -3.120636,1.1975 -20.2846676,0.66707 -20.7871573,-0.6424 z M 30.828596,218.97258 c 0.0074,-18.43113 0.28261,-34.51518 0.611474,-35.74233 0.532511,-1.98706 1.224196,-2.23118 6.321731,-2.23118 5.680798,0 5.728037,0.0242 6.287982,3.22282 0.310301,1.77254 0.66441,17.72548 0.786909,35.45097 l 0.222727,32.22816 -7.122182,0.29135 -7.122182,0.29135 z m 22.79408,0.82424 c 0,-17.93002 0.278898,-33.99452 0.619772,-35.69889 0.607916,-3.03958 0.728853,-3.09886 6.321678,-3.09886 5.592825,0 5.713762,0.0593 6.321677,3.09886 0.340875,1.70437 0.619773,17.76887 0.619773,35.69889 v 32.60002 h -6.94145 -6.94145 z m 22.307107,31.60078 c -0.369138,-0.59727 -0.348072,-16.79284 0.04681,-35.99015 l 0.717973,-34.9042 6.231222,0.32888 6.231223,0.32888 0.634465,8.10002 c 0.348956,4.45502 0.497538,20.37152 0.330182,35.37001 l -0.304283,27.26998 -6.608217,0.29127 c -4.02612,0.17746 -6.870467,-0.13305 -7.279378,-0.79469 z m 90.449427,0.37876 c -0.87613,-0.87613 -0.93186,-58.36796 -0.0646,-66.66528 l 0.63708,-6.09528 h 6.20515 6.20516 l 0.32673,22.55971 c 0.1797,12.40784 0.3359,28.80702 0.34712,36.44261 l 0.0204,13.8829 -6.48766,0.28852 c -3.56821,0.15869 -6.80342,-0.0272 -7.18936,-0.41318 z m 22.80895,10e-4 c -0.87303,-0.87303 -0.93782,-61.84739 -0.0724,-68.16113 l 0.63061,-4.60076 h 5.74367 5.74367 l 0.61579,5.20609 c 0.33868,2.86334 0.48235,19.26252 0.31926,36.44261 l -0.29652,31.23652 -5.99051,0.28985 c -3.29478,0.15942 -6.30687,-0.0265 -6.69354,-0.41318 z m 22.80762,0 c -0.86222,-0.86222 -0.92295,-63.86207 -0.0666,-69.04326 l 0.61465,-3.71863 h 5.73546 5.73546 l 0.63458,7.18936 c 0.34902,3.95414 0.49865,20.35332 0.33251,36.44261 l -0.30206,29.25325 -5.99051,0.28985 c -3.29478,0.15942 -6.30687,-0.0265 -6.69354,-0.41318 z m 17.83905,-0.0104 c -0.38095,-0.38095 -0.69264,-3.49315 -0.69264,-6.91599 v -6.22334 l 4.21445,-0.30492 4.21445,-0.30493 0.26554,-24.04716 0.26554,-24.04717 h -3.92565 c -2.1591,0 -4.16169,-0.38193 -4.45019,-0.84873 -0.2885,-0.4668 -0.25097,-3.15867 0.0834,-5.98192 l 0.60795,-5.1332 10.51816,0.28002 10.51815,0.28002 v 36.69052 36.69052 l -10.46325,0.27946 c -5.7548,0.15371 -10.77495,-0.0322 -11.15591,-0.41318 z M 4.4927987,164.88023 C 4.2301822,164.19586 4.1326282,147.57357 4.2760121,127.9418 L 4.53671,92.247676 l 10.528058,-0.280119 10.528057,-0.280118 0.666305,5.02285 c 0.366468,2.762567 0.399544,5.454481 0.0735,5.982021 -0.326041,0.52755 -2.359344,0.95918 -4.518451,0.95918 H 17.88853 l 0.265539,24.04716 0.265538,24.04717 4.214452,0.30492 4.214452,0.30493 v 6.88443 6.88443 H 15.909398 c -7.8588363,0 -11.0735667,-0.35037 -11.4165993,-1.2443 z M 30.815055,133.56795 c 0,-17.9539 0.278898,-34.03795 0.619773,-35.742323 0.608121,-3.040605 0.727221,-3.098862 6.335272,-3.098862 5.670412,0 5.719989,0.02542 6.28467,3.222816 0.313044,1.772549 0.656441,17.725489 0.763105,35.450979 l 0.193934,32.22816 -7.098377,0.29135 -7.098377,0.29135 z m 22.807621,-0.0434 c 0,-17.93001 0.278898,-33.99451 0.619772,-35.698883 0.607916,-3.039579 0.728853,-3.098862 6.321678,-3.098862 5.592825,0 5.713762,0.05928 6.321677,3.098862 0.340875,1.704373 0.619773,17.768873 0.619773,35.698883 v 32.60002 h -6.94145 -6.94145 z m 22.152814,7.15246 c 0.360144,-13.99617 0.654807,-30.06066 0.654807,-35.69889 V 94.726765 h 6.304367 6.304367 l 0.637083,6.095275 c 0.350395,3.35241 0.637082,19.4169 0.637082,35.69889 v 29.6036 H 82.71694 75.120683 Z m 22.470792,-4.1126 c 0,-16.30588 0.286687,-32.38992 0.637082,-35.74233 l 0.637083,-6.095275 h 6.221013 6.22101 l 0.26992,28.509525 c 0.14846,15.68024 0.29753,31.63318 0.33127,35.45098 l 0.0613,6.94145 -7.18936,0.29135 -7.189358,0.29135 z m 22.807618,-3.03986 c 0,-17.93001 0.2789,-33.99451 0.61977,-35.698883 0.60792,-3.039579 0.72886,-3.098862 6.32168,-3.098862 5.59283,0 5.71376,0.05928 6.32168,3.098862 0.34087,1.704373 0.61977,17.768873 0.61977,35.698883 v 32.60002 h -6.94145 -6.94145 z m 22.14977,31.04788 c -0.32759,-0.85367 -0.32149,-4.75824 0.0136,-8.67681 0.33504,-3.91857 0.66945,-19.2846 0.74313,-34.14674 l 0.13396,-27.022075 h 6.18797 6.18798 l 0.63708,6.095275 c 0.3504,3.35241 0.63708,19.4169 0.63708,35.69889 v 29.6036 h -6.97257 c -5.41222,0 -7.10586,-0.34734 -7.56818,-1.55214 z m 22.47384,-28.05146 c 0,-16.28199 0.28669,-32.34648 0.63708,-35.69889 l 0.63708,-6.095275 h 6.24274 c 5.32112,0 6.2285,0.256191 6.14627,1.735362 -0.053,0.95445 0.25118,17.018943 0.67608,35.698883 l 0.77254,33.96352 h -7.5559 -7.55589 z m 22.81624,-1.88083 c 0.005,-17.31644 0.29001,-33.82717 0.63394,-36.690519 l 0.62533,-5.206087 h 5.68194 5.68194 l 0.61465,3.718633 c 0.33806,2.045249 0.61956,18.555983 0.62556,36.690523 l 0.0109,32.97188 h -6.94145 -6.94145 z m 22.80991,-1.48745 c 0.006,-18.13454 0.28751,-34.645274 0.62557,-36.690523 l 0.61465,-3.718633 h 5.68194 5.68194 l 0.62533,5.206087 c 0.34392,2.863349 0.6292,19.374079 0.63394,36.690519 l 0.009,31.48443 h -6.94145 -6.94145 z m 18.04113,26.27834 0.29322,-6.69354 3.96654,-0.49582 3.96654,-0.49581 0.26554,-24.04717 0.26554,-24.04716 h -3.92565 c -2.1591,0 -4.16169,-0.38193 -4.45019,-0.84874 -0.2885,-0.4668 -0.25097,-3.158664 0.0834,-5.981919 l 0.60795,-5.133191 10.51816,0.280018 10.51815,0.280018 0.25998,36.938424 0.25998,36.93843 H 240.51276 229.05158 Z M 4.5057433,78.641658 C 4.2360073,77.938737 4.1326282,61.301264 4.2760121,41.669496 L 4.53671,5.9753717 15.064768,5.6952533 25.592825,5.4151349 26.25913,10.437984 c 0.366468,2.762568 0.399544,5.454478 0.0735,5.982024 -0.326041,0.527546 -2.359344,0.959174 -4.518451,0.959174 H 17.88853 l 0.265539,24.047165 0.265538,24.047165 4.258411,0.307074 4.258411,0.307074 -0.291868,6.634376 -0.291868,6.634376 -10.678261,0.281642 C 7.6663337,79.84927 4.8735378,79.600115 4.5057433,78.641658 Z M 30.815055,47.29565 c 0,-17.953906 0.278898,-34.037954 0.619773,-35.742328 0.608121,-3.0406041 0.727221,-3.0988611 6.335272,-3.0988611 5.671435,0 5.719849,0.024846 6.279683,3.2228161 0.310301,1.772549 0.66441,17.725488 0.786909,35.450975 l 0.222727,32.22816 -7.122182,0.291352 -7.122182,0.291352 z m 22.807621,-0.04344 c 0,-17.930013 0.278898,-33.994511 0.619772,-35.698885 0.607916,-3.0395786 0.728853,-3.0988611 6.321678,-3.0988611 5.592825,0 5.713762,0.059282 6.321677,3.0988611 0.340875,1.704374 0.619773,17.768872 0.619773,35.698885 v 32.60002 h -6.94145 -6.94145 z M 75.902983,78.809633 C 75.548585,78.236205 75.581711,62.060148 75.976596,42.86284 l 0.717973,-34.904197 6.180459,0.3266328 6.180459,0.3266327 0.628855,6.0165545 c 0.34587,3.309105 0.628854,19.338177 0.628854,35.620161 V 79.85223 H 83.43027 c -3.78561,0 -7.172889,-0.469169 -7.527287,-1.042597 z M 165.67751,50.292067 c 0,-16.305877 0.28669,-32.389925 0.63708,-35.742328 l 0.63708,-6.0952781 h 6.22434 6.22434 l 0.31048,18.5931691 c 0.17077,10.226243 0.31834,26.179182 0.32794,35.450975 l 0.0175,16.857807 -7.18936,0.291352 -7.18936,0.291352 z m 22.80762,-3.03986 c 0,-17.930013 0.2789,-33.994511 0.61977,-35.698885 0.60792,-3.0395786 0.72885,-3.0988611 6.32168,-3.0988611 5.51436,0 5.72105,0.095751 6.28412,2.9110741 0.42905,2.145276 1.00169,57.46773 0.69607,67.24715 -0.0272,0.869895 -2.10878,1.239545 -6.98019,1.239545 h -6.94145 z m 22.81853,-0.371864 c 0.006,-18.134537 0.28751,-34.645271 0.62557,-36.69052 l 0.61465,-3.7186335 h 5.68194 5.68194 l 0.62533,5.2060875 c 0.34392,2.863348 0.6292,19.374082 0.63394,36.69052 l 0.009,31.484433 h -6.94145 -6.94145 z m 18.53117,32.342349 c -0.38095,-0.380954 -0.69264,-3.493147 -0.69264,-6.915985 v -6.223343 l 4.21445,-0.304926 4.21445,-0.304926 0.26554,-24.047165 0.26554,-24.047165 h -3.92565 c -2.1591,0 -4.16169,-0.381929 -4.45019,-0.848732 -0.2885,-0.466803 -0.25097,-3.158668 0.0834,-5.981923 l 0.60795,-5.1331912 10.51816,0.2800179 10.51815,0.280018 v 36.6905203 36.69052 l -10.46325,0.279461 c -5.7548,0.153704 -10.77495,-0.03223 -11.15591,-0.413181 z"
       id="path37" /><path
       style="fill:#6ccf6c"
       d="m 166.37921,251.77636 c -0.87613,-0.87613 -0.93186,-58.36796 -0.0646,-66.66528 l 0.63708,-6.09528 h 6.20515 6.20516 l 0.32673,22.55971 c 0.1797,12.40784 0.3359,28.80702 0.34712,36.44261 l 0.0204,13.8829 -6.48766,0.28852 c -3.56821,0.15869 -6.80342,-0.0272 -7.18936,-0.41318 z m 22.80895,10e-4 c -0.87303,-0.87303 -0.93782,-61.84739 -0.0724,-68.16113 l 0.63061,-4.60076 h 5.74367 5.74367 l 0.61579,5.20609 c 0.33868,2.86334 0.48235,19.26252 0.31926,36.44261 l -0.29652,31.23652 -5.99051,0.28985 c -3.29478,0.15942 -6.30687,-0.0265 -6.69354,-0.41318 z m 22.80762,0 c -0.86222,-0.86222 -0.92295,-63.86207 -0.0666,-69.04326 l 0.61465,-3.71863 h 5.73546 5.73546 l 0.63458,7.18936 c 0.34902,3.95414 0.49865,20.35332 0.33251,36.44261 l -0.30206,29.25325 -5.99051,0.28985 c -3.29478,0.15942 -6.30687,-0.0265 -6.69354,-0.41318 z M 5.2668867,218.92913 5.5283456,186.45307 15.196794,186.16925 c 6.192393,-0.18178 9.668447,0.0856 9.668447,0.74372 0,0.56515 -1.514084,1.02755 -3.364631,1.02755 -1.850547,0 -3.558252,0.55779 -3.794901,1.23954 -0.236649,0.68175 -0.172832,12.17233 0.141815,25.53462 l 0.572085,24.29508 3.666383,0.30465 c 3.513621,0.29196 3.693834,0.48771 4.32522,4.69809 1.088405,7.25801 0.888918,7.3927 -10.948937,7.3927 H 5.0054277 Z m 25.5617093,-0.49581 c 0.0074,-18.13454 0.28261,-33.97592 0.611474,-35.20307 0.532302,-1.98628 1.2247,-2.23118 6.308137,-2.23118 5.602119,0 5.721935,0.0587 6.329976,3.09886 0.340874,1.70437 0.619772,17.54575 0.619772,35.20307 v 32.1042 h -6.94145 -6.94145 z m 22.79408,0.86768 c 0,-17.65732 0.278898,-33.4987 0.619772,-35.20307 0.607916,-3.03958 0.728853,-3.09886 6.321678,-3.09886 5.592825,0 5.713762,0.0593 6.321677,3.09886 0.340875,1.70437 0.619773,17.54575 0.619773,35.20307 v 32.1042 h -6.94145 -6.94145 z m 22.15087,7.56122 c 0.35885,-13.49864 0.652485,-29.45158 0.652522,-35.45098 l 6.8e-5,-10.90799 6.314676,0.32663 6.314675,0.32664 0.628855,6.01655 c 0.34587,3.30911 0.628854,19.11506 0.628854,35.12434 v 29.10779 h -7.596052 -7.596052 z m 153.836224,23.50565 c -0.35261,-0.57054 -0.33708,-3.24795 0.0345,-5.94982 0.67419,-4.90194 0.68367,-4.91248 4.41877,-4.91248 h 3.74313 l 0.47548,-24.54298 c 0.26152,-13.49864 0.27244,-25.10078 0.0243,-25.78253 -0.24817,-0.68175 -1.9653,-1.23954 -3.81585,-1.23954 -1.85054,0 -3.36463,-0.44624 -3.36463,-0.99164 0,-0.59498 3.96655,-0.99163 9.91636,-0.99163 h 9.91636 v 32.72398 32.72397 h -10.35365 c -6.13686,0 -10.61476,-0.42248 -10.99476,-1.03733 z M 30.815055,133.52451 c 0,-17.93001 0.278898,-33.99451 0.619773,-35.698883 0.607916,-3.039579 0.728852,-3.098862 6.321677,-3.098862 5.592825,0 5.713762,0.05928 6.321678,3.098862 0.340874,1.704373 0.619772,17.768873 0.619772,35.698883 v 32.60002 h -6.94145 -6.94145 z m 22.807621,0 c 0,-17.93001 0.278898,-33.99451 0.619772,-35.698883 0.607916,-3.039579 0.728853,-3.098862 6.321678,-3.098862 5.592825,0 5.713762,0.05928 6.321677,3.098862 0.340875,1.704373 0.619773,17.768873 0.619773,35.698883 v 32.60002 h -6.94145 -6.94145 z m 22.276497,31.55126 c -0.356495,-0.57682 -0.321084,-16.64132 0.07869,-35.69888 l 0.726861,-34.650125 h 6.167154 6.167154 l 0.637083,6.095275 c 0.350395,3.35241 0.637082,19.4169 0.637082,35.69889 v 29.6036 H 83.43027 c -3.78561,0 -7.174603,-0.47194 -7.531097,-1.04876 z m 22.347109,-28.5114 c 0,-16.30588 0.286687,-32.38992 0.637082,-35.74233 l 0.637083,-6.095275 h 6.221013 6.22101 l 0.26992,28.509525 c 0.14846,15.68024 0.29753,31.63318 0.33127,35.45098 l 0.0613,6.94145 -7.18936,0.29135 -7.189358,0.29135 z m 22.807618,-3.03986 c 0,-17.93001 0.2789,-33.99451 0.61977,-35.698883 0.60792,-3.039579 0.72886,-3.098862 6.32168,-3.098862 5.59283,0 5.71376,0.05928 6.32168,3.098862 0.34087,1.704373 0.61977,17.768873 0.61977,35.698883 v 32.60002 h -6.94145 -6.94145 z m 22.14977,31.04788 c -0.32759,-0.85367 -0.32149,-4.75824 0.0136,-8.67681 0.33504,-3.91857 0.66945,-19.2846 0.74313,-34.14674 l 0.13396,-27.022075 h 6.18797 6.18798 l 0.63708,6.095275 c 0.3504,3.35241 0.63708,19.4169 0.63708,35.69889 v 29.6036 h -6.97257 c -5.41222,0 -7.10586,-0.34734 -7.56818,-1.55214 z m 22.47384,-28.00802 c 0,-16.30588 0.28669,-32.38992 0.63708,-35.74233 l 0.63708,-6.095275 h 6.2268 6.22679 l 0.30649,18.593165 c 0.16857,10.22625 0.31503,26.17919 0.32548,35.45098 l 0.019,16.85781 -7.18936,0.29135 -7.18936,0.29135 z m 22.81624,-1.92427 c 0.005,-17.31644 0.29001,-33.82717 0.63394,-36.690519 l 0.62533,-5.206087 h 5.68194 5.68194 l 0.61465,3.718633 c 0.33806,2.045249 0.61956,18.555983 0.62556,36.690523 l 0.0109,32.97188 h -6.94145 -6.94145 z m 22.80991,-1.48745 c 0.006,-18.13454 0.28751,-34.645274 0.62557,-36.690523 l 0.61465,-3.718633 h 5.68194 5.68194 l 0.62533,5.206087 c 0.34392,2.863349 0.6292,19.374079 0.63394,36.690519 l 0.009,31.48443 h -6.94145 -6.94145 z M 5.2668867,132.65683 5.5283456,100.18076 15.196794,99.896943 c 7.990966,-0.234575 9.668447,-0.0299 9.668447,1.179687 0,0.97535 -1.240345,1.56616 -3.718633,1.77127 l -3.718634,0.30777 0.04132,4.71027 c 0.02273,2.59065 0.134284,13.85811 0.247909,25.0388 l 0.206591,20.32853 h 3.905782 c 3.867265,0 3.912363,0.0439 4.573128,4.45018 1.097909,7.32138 0.909828,7.44945 -10.940427,7.44945 H 5.0054277 Z M 229.65807,164.17372 c -0.32604,-0.52754 -0.29489,-3.20496 0.0692,-5.94981 l 0.66203,-4.99064 h 3.83879 3.83879 l 0.20977,-19.83271 c 0.11537,-10.908 0.22693,-22.17546 0.24791,-25.0388 l 0.0381,-5.20609 -3.71863,-0.30777 c -2.47829,-0.20511 -3.71864,-0.79592 -3.71864,-1.77127 0,-1.209586 1.67748,-1.414262 9.66845,-1.179687 l 9.66845,0.283817 0.26146,32.47607 0.26146,32.47607 h -10.3672 c -5.70197,0 -10.63397,-0.43163 -10.96001,-0.95918 z M 31.476146,79.191139 C 30.638917,78.35391 30.600658,15.724172 31.434828,11.553322 32.042744,8.5137434 32.16368,8.4544609 37.756505,8.4544609 c 5.592825,0 5.713762,0.059282 6.321678,3.0988611 0.340874,1.704374 0.619772,17.768872 0.619772,35.698885 V 79.85223 h -6.280359 c -3.454198,0 -6.57785,-0.297491 -6.94145,-0.661091 z m 22.84956,0.04194 C 53.459615,78.366988 53.382711,15.852012 54.242448,11.553322 54.851309,8.5090174 54.963717,8.4544609 60.62732,8.4544609 h 5.765099 l 0.601186,4.2144521 c 0.330652,2.317948 0.469553,18.270887 0.308669,35.450975 l -0.292516,31.236524 -5.990511,0.289849 c -3.294781,0.159416 -6.306874,-0.02651 -6.693541,-0.413182 z M 75.929783,78.852996 C 75.560645,78.255718 75.581711,62.060148 75.976596,42.86284 l 0.717973,-34.904197 6.231222,0.3288801 6.231223,0.32888 0.634465,8.1000229 c 0.348956,4.455013 0.497538,20.371515 0.330182,35.370005 l -0.304283,27.269981 -6.608217,0.291272 c -4.02612,0.17746 -6.870467,-0.133057 -7.279378,-0.794688 z m 90.449427,0.378758 c -0.87615,-0.87615 -0.93161,-56.387131 -0.0646,-64.682015 l 0.63708,-6.0952781 h 6.22434 6.22434 l 0.31048,18.5931691 c 0.17077,10.226243 0.31834,26.179182 0.32794,35.450975 l 0.0175,16.857807 -6.48766,0.288523 c -3.56821,0.158688 -6.80342,-0.02724 -7.18936,-0.413181 z m 22.76701,-0.04061 c -0.83723,-0.837229 -0.87549,-63.466967 -0.0413,-67.637817 0.60792,-3.0395786 0.72885,-3.0988611 6.32168,-3.0988611 5.59282,0 5.71376,0.059282 6.32168,3.0988611 0.34087,1.704374 0.61977,17.768872 0.61977,35.698885 V 79.85223 h -6.28036 c -3.4542,0 -6.57785,-0.297491 -6.94145,-0.661091 z m 22.15744,-32.310796 c 0.006,-18.134537 0.28751,-34.645271 0.62557,-36.69052 l 0.61465,-3.7186335 h 5.68194 5.68194 l 0.62533,5.2060875 c 0.34392,2.863348 0.6292,19.374082 0.63394,36.69052 l 0.009,31.484433 h -6.94145 -6.94145 z M 5.2668867,46.384526 5.5283456,13.908457 15.196794,13.624639 c 6.192393,-0.181778 9.668447,0.08561 9.668447,0.743727 0,0.565149 -1.284069,1.027545 -2.853486,1.027545 -1.569418,0 -3.275421,0.557795 -3.791118,1.239544 -0.558224,0.737969 -0.76254,11.170739 -0.504927,25.782528 l 0.432705,24.542983 h 3.793471 c 3.7342,0 3.803897,0.06953 4.460816,4.450181 1.097909,7.321381 0.909828,7.449447 -10.940427,7.449447 H 5.0054277 Z M 229.65807,77.90142 c -0.32604,-0.527545 -0.29489,-3.204962 0.0692,-5.949814 0.66134,-4.985412 0.66592,-4.99064 4.37046,-4.99064 h 3.70843 l 0.48679,-24.542983 c 0.304,-15.327081 0.12117,-25.008433 -0.48688,-25.782528 -0.53551,-0.681749 -2.25773,-1.239544 -3.82715,-1.239544 -1.56942,0 -2.85349,-0.446236 -2.85349,-0.991636 0,-0.594981 3.96655,-0.991636 9.91636,-0.991636 h 9.91636 V 46.136617 78.860594 H 240.6045 c -5.69451,0 -10.62042,-0.431628 -10.94646,-0.959174 z"
       id="path36" /><path
       style="fill:#d05353"
       d="m 166.37921,251.77636 c -0.87613,-0.87613 -0.93186,-58.36796 -0.0646,-66.66528 l 0.63708,-6.09528 h 6.20515 6.20516 l 0.32673,22.55971 c 0.1797,12.40784 0.3359,28.80702 0.34712,36.44261 l 0.0204,13.8829 -6.48766,0.28852 c -3.56821,0.15869 -6.80342,-0.0272 -7.18936,-0.41318 z m 22.80895,10e-4 c -0.87303,-0.87303 -0.93782,-61.84739 -0.0724,-68.16113 l 0.63061,-4.60076 h 5.74367 5.74367 l 0.61579,5.20609 c 0.33868,2.86334 0.48235,19.26252 0.31926,36.44261 l -0.29652,31.23652 -5.99051,0.28985 c -3.29478,0.15942 -6.30687,-0.0265 -6.69354,-0.41318 z m 22.80762,0 c -0.86222,-0.86222 -0.92295,-63.86207 -0.0666,-69.04326 l 0.61465,-3.71863 h 5.73546 5.73546 l 0.63458,7.18936 c 0.34902,3.95414 0.49865,20.35332 0.33251,36.44261 l -0.30206,29.25325 -5.99051,0.28985 c -3.29478,0.15942 -6.30687,-0.0265 -6.69354,-0.41318 z M 5.2668867,218.92913 5.5283456,186.45307 15.196794,186.16925 c 6.192393,-0.18178 9.668447,0.0856 9.668447,0.74372 0,0.56515 -1.514084,1.02755 -3.364631,1.02755 -1.850547,0 -3.558252,0.55779 -3.794901,1.23954 -0.236649,0.68175 -0.172832,12.17233 0.141815,25.53462 l 0.572085,24.29508 3.666383,0.30465 c 3.513621,0.29196 3.693834,0.48771 4.32522,4.69809 1.088405,7.25801 0.888918,7.3927 -10.948937,7.3927 H 5.0054277 Z m 25.8020903,2.59364 c 0.394927,-21.20978 0.893033,-30.09047 1.716272,-30.59926 1.326201,-0.81964 9.772184,-0.49588 10.677356,0.40929 0.329974,0.32998 0.801662,13.98126 1.048195,30.33618 l 0.448243,29.73622 h -7.223239 -7.223238 z m 22.773547,0.10166 c 0.277552,-16.37942 0.798907,-30.07503 1.158567,-30.43469 0.35966,-0.35966 3.033169,-0.69597 5.941131,-0.74736 l 5.287203,-0.0934 0.634054,12.43077 c 0.34873,6.83693 0.635864,20.57459 0.638075,30.52813 l 0.004,18.09735 h -7.083847 -7.083846 z m 22.288789,29.03705 c -0.228817,-0.40905 -0.08582,-13.67669 0.317768,-29.48363 0.403589,-15.80695 0.557706,-29.1988 0.342481,-29.75967 -0.389951,-1.01619 10.93951,-1.48941 11.823034,-0.49383 0.237648,0.26779 0.722506,13.98553 1.077461,30.48387 l 0.645373,29.99698 h -6.895043 c -3.792274,0 -7.082257,-0.33467 -7.311074,-0.74372 z m 153.478457,-0.29361 c -0.35261,-0.57054 -0.33708,-3.24795 0.0345,-5.94982 0.67419,-4.90194 0.68367,-4.91248 4.41877,-4.91248 h 3.74313 l 0.47548,-24.54298 c 0.26152,-13.49864 0.27244,-25.10078 0.0243,-25.78253 -0.24817,-0.68175 -1.9653,-1.23954 -3.81585,-1.23954 -1.85054,0 -3.36463,-0.44624 -3.36463,-0.99164 0,-0.59498 3.96655,-0.99163 9.91636,-0.99163 h 9.91636 v 32.72398 32.72397 h -10.35365 c -6.13686,0 -10.61476,-0.42248 -10.99476,-1.03733 z M 31.476146,165.46344 c -0.848559,-0.84856 -0.857069,-33.06489 -0.01288,-48.765 l 0.648209,-12.05532 h 5.648933 5.648933 l 0.644308,9.07706 c 0.354369,4.99239 0.644308,18.8257 0.644308,30.74071 v 21.66364 h -6.280359 c -3.454198,0 -6.57785,-0.29749 -6.94145,-0.66109 z m 22.84956,0.0419 c -0.882085,-0.88208 -0.921721,-36.15516 -0.05652,-50.29582 L 54.9157,104.64308 h 5.693556 5.693555 l 0.670421,16.11408 c 0.368732,8.86275 0.527794,22.5845 0.353472,30.4928 l -0.316949,14.37872 -5.990511,0.28984 c -3.294781,0.15942 -6.306874,-0.0265 -6.693541,-0.41318 z m 21.787878,-0.12457 c -0.238567,-0.40905 -0.08206,-13.90392 0.347788,-29.98859 0.429851,-16.08467 0.572372,-29.58331 0.316713,-29.99698 -0.255659,-0.41366 2.390077,-0.75212 5.879414,-0.75212 h 6.344249 l 0.654309,29.84605 c 0.35987,16.41533 0.405492,30.24865 0.101383,30.74071 -0.664425,1.07506 -13.025132,1.2118 -13.643856,0.15093 z m 22.793788,0.0826 c -0.844939,-0.84494 -0.850197,-31.66803 -0.0082,-48.17696 l 0.644829,-12.64336 h 5.648289 5.6483 l 0.6443,9.07706 c 0.35437,4.99239 0.64431,18.8257 0.64431,30.74071 v 21.66364 h -6.28036 c -3.4542,0 -6.577848,-0.29749 -6.941448,-0.66109 z m 22.849558,0.0419 c -0.8793,-0.8793 -0.91099,-31.34027 -0.0502,-48.2189 l 0.64483,-12.64336 h 5.69122 5.69122 l 0.67042,16.11408 c 0.36873,8.86275 0.5278,22.5845 0.35347,30.4928 l -0.31695,14.37872 -5.99051,0.28984 c -3.29478,0.15942 -6.30687,-0.0265 -6.69354,-0.41318 z m 22.10972,-20.4078 c 0.003,-11.61466 0.29325,-25.46836 0.64538,-30.78601 l 0.64025,-9.66845 h 5.69274 5.69274 l 0.67503,18.09735 c 0.37127,9.95355 0.5312,23.6753 0.35542,30.4928 l -0.31961,12.39545 -6.69354,0.29321 -6.69354,0.29322 z m 22.36661,20.1323 c -0.30411,-0.49206 -0.25848,-14.32538 0.10139,-30.74071 l 0.65431,-29.84605 h 6.34425 c 3.48933,0 6.13164,0.34401 5.87178,0.76447 -0.25986,0.42045 -0.13353,13.69597 0.28072,29.50116 0.41425,15.80518 0.55278,29.29449 0.30785,29.97624 -0.52187,1.45256 -12.68453,1.7619 -13.5603,0.34489 z m 22.26049,-30.58978 c 0.005,-17.31644 0.29001,-33.82717 0.63394,-36.690519 l 0.62533,-5.206087 h 5.68194 5.68194 l 0.61465,3.718633 c 0.33806,2.045249 0.61956,18.555983 0.62556,36.690523 l 0.0109,32.97188 h -6.94145 -6.94145 z m 22.80991,-1.48745 c 0.006,-18.13454 0.28751,-34.645274 0.62557,-36.690523 l 0.61465,-3.718633 h 5.68194 5.68194 l 0.62533,5.206087 c 0.34392,2.863349 0.6292,19.374079 0.63394,36.690519 l 0.009,31.48443 h -6.94145 -6.94145 z M 5.2668867,132.65683 5.5283456,100.18076 15.196794,99.896943 c 7.990966,-0.234575 9.668447,-0.0299 9.668447,1.179687 0,0.97535 -1.240345,1.56616 -3.718633,1.77127 l -3.718634,0.30777 0.04132,4.71027 c 0.02273,2.59065 0.134284,13.85811 0.247909,25.0388 l 0.206591,20.32853 h 3.905782 c 3.867265,0 3.912363,0.0439 4.573128,4.45018 1.097909,7.32138 0.909828,7.44945 -10.940427,7.44945 H 5.0054277 Z M 229.65807,164.17372 c -0.32604,-0.52754 -0.29489,-3.20496 0.0692,-5.94981 l 0.66203,-4.99064 h 3.83879 3.83879 l 0.20977,-19.83271 c 0.11537,-10.908 0.22693,-22.17546 0.24791,-25.0388 l 0.0381,-5.20609 -3.71863,-0.30777 c -2.47829,-0.20511 -3.71864,-0.79592 -3.71864,-1.77127 0,-1.209586 1.67748,-1.414262 9.66845,-1.179687 l 9.66845,0.283817 0.26146,32.47607 0.26146,32.47607 h -10.3672 c -5.70197,0 -10.63397,-0.43163 -10.96001,-0.95918 z M 211.30366,46.880343 c 0.006,-18.134537 0.28751,-34.645271 0.62557,-36.69052 l 0.61465,-3.7186335 h 5.68194 5.68194 l 0.62533,5.2060875 c 0.34392,2.863348 0.6292,19.374082 0.63394,36.69052 l 0.009,31.484433 h -6.94145 -6.94145 z M 5.2668867,46.384526 5.5283456,13.908457 15.196794,13.624639 c 6.192393,-0.181778 9.668447,0.08561 9.668447,0.743727 0,0.565149 -1.284069,1.027545 -2.853486,1.027545 -1.569418,0 -3.275421,0.557795 -3.791118,1.239544 -0.558224,0.737969 -0.76254,11.170739 -0.504927,25.782528 l 0.432705,24.542983 h 3.793471 c 3.7342,0 3.803897,0.06953 4.460816,4.450181 1.097909,7.321381 0.909828,7.449447 -10.940427,7.449447 H 5.0054277 Z M 30.815055,60.671022 c 0,-10.004264 0.291695,-23.614464 0.648209,-30.244888 l 0.648209,-12.055316 h 5.647862 5.647861 l 0.640249,9.668448 c 0.352137,5.317646 0.642558,18.927846 0.64538,30.244888 l 0.0051,20.57644 h -6.94145 -6.94145 z m 22.807621,-1.48888 c 0,-10.823149 0.290931,-24.433348 0.646513,-30.244888 l 0.646514,-10.566436 h 5.646727 5.646728 l 0.648209,12.055316 c 0.356515,6.630424 0.648209,20.240624 0.648209,30.244888 v 18.189572 h -6.94145 -6.94145 z m 22.508637,18.934725 c -0.228817,-0.409049 -0.08102,-13.684572 0.328446,-29.501161 0.409462,-15.816589 0.544004,-29.092112 0.298984,-29.501162 -0.245021,-0.409049 2.481377,-0.743726 6.058662,-0.743726 h 6.504156 l 0.0033,14.626626 c 0.0018,8.044644 0.294798,21.654844 0.651068,30.244888 l 0.647765,15.618262 H 83.58552 c -3.870997,0 -7.22539,-0.334677 -7.454207,-0.743727 z M 166.01285,63.288948 c 0.35733,-8.615683 0.65117,-22.24686 0.65299,-30.291504 l 0.003,-14.626626 h 5.8224 5.8224 l 0.60156,11.651719 c 0.33085,6.408445 0.72286,19.907086 0.87114,29.996979 l 0.26959,18.34526 -7.34654,0.294525 -7.34653,0.294524 z m 22.4763,-2.029887 c 0.002,-9.680843 0.29419,-23.291043 0.64885,-30.244888 l 0.64483,-12.643355 h 5.64722 5.64722 l 0.64025,9.668448 c 0.35214,5.317646 0.64256,18.927846 0.64538,30.244888 l 0.005,20.57644 h -6.94145 -6.94145 z m 41.16892,16.642359 c -0.32604,-0.527545 -0.29489,-3.204962 0.0692,-5.949814 0.66134,-4.985412 0.66592,-4.99064 4.37046,-4.99064 h 3.70843 l 0.48679,-24.542983 c 0.304,-15.327081 0.12117,-25.008433 -0.48688,-25.782528 -0.53551,-0.681749 -2.25773,-1.239544 -3.82715,-1.239544 -1.56942,0 -2.85349,-0.446236 -2.85349,-0.991636 0,-0.594981 3.96655,-0.991636 9.91636,-0.991636 h 9.91636 V 46.136617 78.860594 H 240.6045 c -5.69451,0 -10.62042,-0.431628 -10.94646,-0.959174 z"
       id="path35" /><path
       style="fill:#55b955"
       d="m 5.2668867,218.92913 0.2614589,-32.47606 9.6684484,-0.28382 c 6.192393,-0.18178 9.668447,0.0856 9.668447,0.74372 0,0.56515 -1.514084,1.02755 -3.364631,1.02755 -1.850547,0 -3.558252,0.55779 -3.794901,1.23954 -0.236649,0.68175 -0.172832,12.17233 0.141815,25.53462 l 0.572085,24.29508 3.666383,0.30465 c 3.513621,0.29196 3.693834,0.48771 4.32522,4.69809 1.088405,7.25801 0.888918,7.3927 -10.948937,7.3927 H 5.0054277 Z m 25.8020903,2.59364 c 0.394927,-21.20978 0.893033,-30.09047 1.716272,-30.59926 1.326201,-0.81964 9.772184,-0.49588 10.677356,0.40929 0.329974,0.32998 0.801662,13.98126 1.048195,30.33618 l 0.448243,29.73622 h -7.223239 -7.223238 z m 22.773547,0.10166 c 0.277552,-16.37942 0.798907,-30.07503 1.158567,-30.43469 0.35966,-0.35966 3.033169,-0.69597 5.941131,-0.74736 l 5.287203,-0.0934 0.634054,12.43077 c 0.34873,6.83693 0.635864,20.57459 0.638075,30.52813 l 0.004,18.09735 h -7.083847 -7.083846 z m 22.288789,29.03705 c -0.228817,-0.40905 -0.08582,-13.67669 0.317768,-29.48363 0.403589,-15.80695 0.557706,-29.1988 0.342481,-29.75967 -0.389951,-1.01619 10.93951,-1.48941 11.823034,-0.49383 0.237648,0.26779 0.722506,13.98553 1.077461,30.48387 l 0.645373,29.99698 h -6.895043 c -3.792274,0 -7.082257,-0.33467 -7.311074,-0.74372 z m 90.056187,-0.49582 c -0.23068,-0.68175 -0.10511,-9.2718 0.27903,-19.08899 l 0.69843,-17.84944 4.84862,-0.30789 c 2.89644,-0.18393 5.29198,0.17408 5.94981,0.8892 0.83549,0.90825 0.74229,0.99643 -0.38625,0.36545 -1.21442,-0.67899 -1.26913,-0.56161 -0.29804,0.63946 0.76271,0.94333 1.42178,7.771 1.83711,19.03143 l 0.64768,17.56032 h -6.5785 c -4.37802,0 -6.71878,-0.41462 -6.99789,-1.23954 z m 22.64275,-9.32689 c 0.35558,-5.81154 0.64651,-14.51315 0.64651,-19.3369 v -8.77046 h 5.94982 5.94981 l 0.014,6.19772 c 0.008,3.40875 0.29781,12.11035 0.64468,19.3369 l 0.63069,13.13917 h -7.24102 -7.24101 z m 22.80044,-3.56438 c 0.35554,-7.77194 0.64807,-16.47354 0.65007,-19.33689 l 0.004,-5.20609 h 5.94982 5.94981 v 8.77046 c 0,4.82375 0.29093,13.52536 0.64652,19.3369 l 0.64651,10.56643 h -7.2464 -7.24639 z m 17.97908,13.09348 c -0.35261,-0.57054 -0.33708,-3.24795 0.0345,-5.94982 0.67419,-4.90194 0.68367,-4.91248 4.41877,-4.91248 h 3.74313 l 0.47548,-24.54298 c 0.26152,-13.49864 0.27244,-25.10078 0.0243,-25.78253 -0.24817,-0.68175 -1.9653,-1.23954 -3.81585,-1.23954 -1.85054,0 -3.36463,-0.44624 -3.36463,-0.99164 0,-0.59498 3.96655,-0.99163 9.91636,-0.99163 h 9.91636 v 32.72398 32.72397 h -10.35365 c -6.13686,0 -10.61476,-0.42248 -10.99476,-1.03733 z M 31.476146,165.46344 c -0.848559,-0.84856 -0.857069,-33.06489 -0.01288,-48.765 l 0.648209,-12.05532 h 5.648933 5.648933 l 0.644308,9.07706 c 0.354369,4.99239 0.644308,18.8257 0.644308,30.74071 v 21.66364 h -6.280359 c -3.454198,0 -6.57785,-0.29749 -6.94145,-0.66109 z m 22.84956,0.0419 c -0.882085,-0.88208 -0.921721,-36.15516 -0.05652,-50.29582 L 54.9157,104.64308 h 5.693556 5.693555 l 0.670421,16.11408 c 0.368732,8.86275 0.527794,22.5845 0.353472,30.4928 l -0.316949,14.37872 -5.990511,0.28984 c -3.294781,0.15942 -6.306874,-0.0265 -6.693541,-0.41318 z m 21.787878,-0.12457 c -0.238567,-0.40905 -0.08206,-13.90392 0.347788,-29.98859 0.429851,-16.08467 0.572372,-29.58331 0.316713,-29.99698 -0.255659,-0.41366 2.390077,-0.75212 5.879414,-0.75212 h 6.344249 l 0.654309,29.84605 c 0.35987,16.41533 0.405492,30.24865 0.101383,30.74071 -0.664425,1.07506 -13.025132,1.2118 -13.643856,0.15093 z m 22.793788,0.0826 c -0.844939,-0.84494 -0.850197,-31.66803 -0.0082,-48.17696 l 0.644829,-12.64336 h 5.648289 5.6483 l 0.6443,9.07706 c 0.35437,4.99239 0.64431,18.8257 0.64431,30.74071 v 21.66364 h -6.28036 c -3.4542,0 -6.577848,-0.29749 -6.941448,-0.66109 z m 22.849558,0.0419 c -0.8793,-0.8793 -0.91099,-31.34027 -0.0502,-48.2189 l 0.64483,-12.64336 h 5.69122 5.69122 l 0.67042,16.11408 c 0.36873,8.86275 0.5278,22.5845 0.35347,30.4928 l -0.31695,14.37872 -5.99051,0.28984 c -3.29478,0.15942 -6.30687,-0.0265 -6.69354,-0.41318 z m 22.10972,-20.4078 c 0.003,-11.61466 0.29325,-25.46836 0.64538,-30.78601 l 0.64025,-9.66845 h 5.69274 5.69274 l 0.67503,18.09735 c 0.37127,9.95355 0.5312,23.6753 0.35542,30.4928 l -0.31961,12.39545 -6.69354,0.29321 -6.69354,0.29322 z m 22.36661,20.1323 c -0.30411,-0.49206 -0.25848,-14.32538 0.10139,-30.74071 l 0.65431,-29.84605 h 6.34425 c 3.48933,0 6.13164,0.34401 5.87178,0.76447 -0.25986,0.42045 -0.13353,13.69597 0.28072,29.50116 0.41425,15.80518 0.55278,29.29449 0.30785,29.97624 -0.52187,1.45256 -12.68453,1.7619 -13.5603,0.34489 z M 5.2668867,132.65683 5.5283456,100.18076 15.196794,99.896943 c 7.990966,-0.234575 9.668447,-0.0299 9.668447,1.179687 0,0.97535 -1.240345,1.56616 -3.718633,1.77127 l -3.718634,0.30777 0.04132,4.71027 c 0.02273,2.59065 0.134284,13.85811 0.247909,25.0388 l 0.206591,20.32853 h 3.905782 c 3.867265,0 3.912363,0.0439 4.573128,4.45018 1.097909,7.32138 0.909828,7.44945 -10.940427,7.44945 H 5.0054277 Z m 183.8154233,13.8829 c 0.36617,-10.22624 0.83135,-18.78262 1.03374,-19.01417 0.57344,-0.65606 10.32262,-0.79396 10.69648,-0.15131 0.18312,0.31477 0.6564,8.93924 1.05173,19.16548 l 0.71879,18.59317 h -7.08325 -7.08324 z m 22.71328,0 c 0.39483,-10.22624 0.89296,-18.78262 1.10697,-19.01417 0.88583,-0.95845 10.50431,-0.65294 10.79944,0.34303 0.17432,0.58828 0.58596,9.21341 0.91475,19.16696 l 0.59781,18.09735 h -7.06842 -7.06841 z m 17.86248,17.63399 c -0.32604,-0.52754 -0.29489,-3.20496 0.0692,-5.94981 l 0.66203,-4.99064 h 3.83879 3.83879 l 0.20977,-19.83271 c 0.11537,-10.908 0.22693,-22.17546 0.24791,-25.0388 l 0.0381,-5.20609 -3.71863,-0.30777 c -2.47829,-0.20511 -3.71864,-0.79592 -3.71864,-1.77127 0,-1.209586 1.67748,-1.414262 9.66845,-1.179687 l 9.66845,0.283817 0.26146,32.47607 0.26146,32.47607 h -10.3672 c -5.70197,0 -10.63397,-0.43163 -10.96001,-0.95918 z M 5.2668867,46.384526 5.5283456,13.908457 15.196794,13.624639 c 6.192393,-0.181778 9.668447,0.08561 9.668447,0.743727 0,0.565149 -1.284069,1.027545 -2.853486,1.027545 -1.569418,0 -3.275421,0.557795 -3.791118,1.239544 -0.558224,0.737969 -0.76254,11.170739 -0.504927,25.782528 l 0.432705,24.542983 h 3.793471 c 3.7342,0 3.803897,0.06953 4.460816,4.450181 1.097909,7.321381 0.909828,7.449447 -10.940427,7.449447 H 5.0054277 Z M 30.815055,60.671022 c 0,-10.004264 0.291695,-23.614464 0.648209,-30.244888 l 0.648209,-12.055316 h 5.647862 5.647861 l 0.640249,9.668448 c 0.352137,5.317646 0.642558,18.927846 0.64538,30.244888 l 0.0051,20.57644 h -6.94145 -6.94145 z m 22.807621,-1.48888 c 0,-10.823149 0.290931,-24.433348 0.646513,-30.244888 l 0.646514,-10.566436 h 5.646727 5.646728 l 0.648209,12.055316 c 0.356515,6.630424 0.648209,20.240624 0.648209,30.244888 v 18.189572 h -6.94145 -6.94145 z m 22.508637,18.934725 c -0.228817,-0.409049 -0.08102,-13.684572 0.328446,-29.501161 0.409462,-15.816589 0.544004,-29.092112 0.298984,-29.501162 -0.245021,-0.409049 2.481377,-0.743726 6.058662,-0.743726 h 6.504156 l 0.0033,14.626626 c 0.0018,8.044644 0.294798,21.654844 0.651068,30.244888 l 0.647765,15.618262 H 83.58552 c -3.870997,0 -7.22539,-0.334677 -7.454207,-0.743727 z M 166.01285,63.288948 c 0.35733,-8.615683 0.65117,-22.24686 0.65299,-30.291504 l 0.003,-14.626626 h 5.8224 5.8224 l 0.60156,11.651719 c 0.33085,6.408445 0.72286,19.907086 0.87114,29.996979 l 0.26959,18.34526 -7.34654,0.294525 -7.34653,0.294524 z m 22.4763,-2.029887 c 0.002,-9.680843 0.29419,-23.291043 0.64885,-30.244888 l 0.64483,-12.643355 h 5.64722 5.64722 l 0.64025,9.668448 c 0.35214,5.317646 0.64256,18.927846 0.64538,30.244888 l 0.005,20.57644 h -6.94145 -6.94145 z m 23.14154,3.470725 c 0.35554,-7.771945 0.64807,-16.473548 0.65007,-19.336896 l 0.004,-5.206087 h 5.94982 5.94981 l 0.005,9.668448 c 0.003,5.317646 0.29325,14.019249 0.64538,19.336895 l 0.64025,9.668448 h -7.24526 -7.24526 z m 18.02738,13.171634 c -0.32604,-0.527545 -0.29489,-3.204962 0.0692,-5.949814 0.66134,-4.985412 0.66592,-4.99064 4.37046,-4.99064 h 3.70843 l 0.48679,-24.542983 c 0.304,-15.327081 0.12117,-25.008433 -0.48688,-25.782528 -0.53551,-0.681749 -2.25773,-1.239544 -3.82715,-1.239544 -1.56942,0 -2.85349,-0.446236 -2.85349,-0.991636 0,-0.594981 3.96655,-0.991636 9.91636,-0.991636 h 9.91636 V 46.136617 78.860594 H 240.6045 c -5.69451,0 -10.62042,-0.431628 -10.94646,-0.959174 z"
       id="path34" /><path
       style="fill:#697269"
       d="m 5.2668867,218.92913 0.2614589,-32.47606 9.6684484,-0.28382 c 6.192393,-0.18178 9.668447,0.0856 9.668447,0.74372 0,0.56515 -1.514084,1.02755 -3.364631,1.02755 -1.850547,0 -3.558252,0.55779 -3.794901,1.23954 -0.236649,0.68175 -0.172832,12.17233 0.141815,25.53462 l 0.572085,24.29508 3.666383,0.30465 c 3.513621,0.29196 3.693834,0.48771 4.32522,4.69809 1.088405,7.25801 0.888918,7.3927 -10.948937,7.3927 H 5.0054277 Z m 25.8892943,22.80762 c 0.352137,-5.31764 0.642558,-13.79613 0.64538,-18.84107 l 0.0051,-9.17263 h 5.51252 c 4.122162,0 5.336012,-0.31264 4.812701,-1.23955 -0.497733,-0.8816 -0.374335,-0.94175 0.427323,-0.2083 0.718929,0.65777 1.367053,7.93028 1.789577,20.08063 l 0.662435,19.04937 H 37.76359 30.515932 Z m 22.471005,1.98328 c 0.0025,-4.22685 0.293778,-12.70534 0.647328,-18.84108 l 0.642819,-11.1559 h 5.798303 5.798304 v 8.27464 c 0,4.55105 0.290931,13.02954 0.646513,18.84108 l 0.646514,10.56643 h -7.092146 -7.092145 z m 22.73761,6.94145 c -0.247357,-2.80863 0.196122,-20.17464 0.709061,-27.7658 l 0.6198,-9.17263 h 5.376657 c 4.013472,0 5.199227,-0.31427 4.676839,-1.23955 -0.472,-0.83602 -0.368275,-0.91673 0.318624,-0.24791 0.58989,0.57437 1.231274,9.02415 1.524229,20.08063 l 0.505786,19.08898 h -6.832747 c -3.758012,0 -6.862223,-0.33467 -6.898249,-0.74372 z m 89.822704,-0.49582 c -0.23068,-0.68175 -0.10511,-9.2718 0.27903,-19.08899 l 0.69843,-17.84944 4.84862,-0.30789 c 2.89644,-0.18393 5.29198,0.17408 5.94981,0.8892 0.83549,0.90825 0.74229,0.99643 -0.38625,0.36545 -1.21442,-0.67899 -1.26913,-0.56161 -0.29804,0.63946 0.76271,0.94333 1.42178,7.771 1.83711,19.03143 l 0.64768,17.56032 h -6.5785 c -4.37802,0 -6.71878,-0.41462 -6.99789,-1.23954 z m 22.64275,-9.32689 c 0.35558,-5.81154 0.64651,-14.51315 0.64651,-19.3369 v -8.77046 h 5.94982 5.94981 l 0.014,6.19772 c 0.008,3.40875 0.29781,12.11035 0.64468,19.3369 l 0.63069,13.13917 h -7.24102 -7.24101 z m 22.80044,-3.56438 c 0.35554,-7.77194 0.64807,-16.47354 0.65007,-19.33689 l 0.004,-5.20609 h 5.94982 5.94981 v 8.77046 c 0,4.82375 0.29093,13.52536 0.64652,19.3369 l 0.64651,10.56643 h -7.2464 -7.24639 z m 17.97908,13.09348 c -0.35261,-0.57054 -0.33708,-3.24795 0.0345,-5.94982 0.67419,-4.90194 0.68367,-4.91248 4.41877,-4.91248 h 3.74313 l 0.47548,-24.54298 c 0.26152,-13.49864 0.27244,-25.10078 0.0243,-25.78253 -0.24817,-0.68175 -1.9653,-1.23954 -3.81585,-1.23954 -1.85054,0 -3.36463,-0.44624 -3.36463,-0.99164 0,-0.59498 3.96655,-0.99163 9.91636,-0.99163 h 9.91636 v 32.72398 32.72397 h -10.35365 c -6.13686,0 -10.61476,-0.42248 -10.99476,-1.03733 z M 31.471297,165.4586 c -0.945734,-0.94574 0.46026,-37.39714 1.468082,-38.06107 0.458374,-0.30197 2.956893,-0.5147 5.552265,-0.47273 l 4.718857,0.0763 0.614117,7.41418 c 0.337764,4.0778 0.672441,12.88057 0.743727,19.56172 l 0.12961,12.14753 h -6.280359 c -3.454198,0 -6.580032,-0.29967 -6.946299,-0.66593 z m 22.477916,-0.90508 c -0.902926,-2.35299 0.687289,-36.50363 1.729782,-37.14792 0.495777,-0.30641 3.024898,-0.52179 5.62027,-0.47862 l 4.718857,0.0785 0.744349,18.31999 c 0.409392,10.07599 0.534956,18.87778 0.279031,19.55953 -0.736329,1.96148 -12.324989,1.66808 -13.092289,-0.33147 z m 22.315811,0.58512 c -0.768552,-2.29232 1.198427,-37.10069 2.129016,-37.67583 0.554239,-0.34254 3.128106,-0.55578 5.719705,-0.47386 l 4.711998,0.14893 0.639654,18.7496 c 0.351811,10.31228 0.437034,19.08428 0.189386,19.49333 -0.676856,1.11799 -13.008511,0.89495 -13.389759,-0.24217 z m 22.745322,0.42778 c -0.883175,-0.88318 0.416346,-37.55791 1.352464,-38.16889 0.46266,-0.30197 2.96469,-0.5147 5.56006,-0.47273 l 4.71886,0.0763 0.61411,7.41418 c 0.33777,4.0778 0.67245,12.88057 0.74373,19.56172 l 0.12961,12.14753 h -6.28036 c -3.4542,0 -6.53151,-0.25115 -6.838474,-0.55811 z m 22.677524,-0.1301 c -0.96108,-0.96108 0.46324,-37.3652 1.48828,-38.03879 0.45952,-0.30197 2.95897,-0.51374 5.55434,-0.4706 l 4.71886,0.0784 0.76222,18.30042 c 0.41922,10.06522 0.54478,18.86704 0.27903,19.55958 -0.51583,1.34422 -11.53791,1.83577 -12.80273,0.57095 z m 22.49612,-18.33206 c 0.3677,-10.99292 1.05804,-19.28099 1.63573,-19.63802 0.54974,-0.33976 3.12302,-0.58248 5.71839,-0.53937 l 4.71886,0.0784 0.63965,18.81592 c 0.35181,10.34876 0.43704,19.1506 0.18939,19.55965 -0.24765,0.40905 -3.39506,0.74372 -6.99424,0.74372 h -6.54397 z m 22.25758,18.46216 c -0.88317,-0.88318 0.41635,-37.55791 1.35247,-38.16889 0.46266,-0.30197 2.96468,-0.5147 5.56006,-0.47273 l 4.71885,0.0763 0.61412,7.41418 c 0.33776,4.0778 0.67244,12.88057 0.74373,19.56172 l 0.12961,12.14753 h -6.28036 c -3.4542,0 -6.53151,-0.25115 -6.83848,-0.55811 z M 5.2668867,132.65683 5.5283456,100.18076 15.196794,99.896943 c 7.990966,-0.234575 9.668447,-0.0299 9.668447,1.179687 0,0.97535 -1.240345,1.56616 -3.718633,1.77127 l -3.718634,0.30777 0.04132,4.71027 c 0.02273,2.59065 0.134284,13.85811 0.247909,25.0388 l 0.206591,20.32853 h 3.905782 c 3.867265,0 3.912363,0.0439 4.573128,4.45018 1.097909,7.32138 0.909828,7.44945 -10.940427,7.44945 H 5.0054277 Z m 183.8154233,13.8829 c 0.36617,-10.22624 0.83135,-18.78262 1.03374,-19.01417 0.57344,-0.65606 10.32262,-0.79396 10.69648,-0.15131 0.18312,0.31477 0.6564,8.93924 1.05173,19.16548 l 0.71879,18.59317 h -7.08325 -7.08324 z m 22.71328,0 c 0.39483,-10.22624 0.89296,-18.78262 1.10697,-19.01417 0.88583,-0.95845 10.50431,-0.65294 10.79944,0.34303 0.17432,0.58828 0.58596,9.21341 0.91475,19.16696 l 0.59781,18.09735 h -7.06842 -7.06841 z m 17.86248,17.63399 c -0.32604,-0.52754 -0.29489,-3.20496 0.0692,-5.94981 l 0.66203,-4.99064 h 3.83879 3.83879 l 0.20977,-19.83271 c 0.11537,-10.908 0.22693,-22.17546 0.24791,-25.0388 l 0.0381,-5.20609 -3.71863,-0.30777 c -2.47829,-0.20511 -3.71864,-0.79592 -3.71864,-1.77127 0,-1.209586 1.67748,-1.414262 9.66845,-1.179687 l 9.66845,0.283817 0.26146,32.47607 0.26146,32.47607 h -10.3672 c -5.70197,0 -10.63397,-0.43163 -10.96001,-0.95918 z M 5.2668867,46.384526 5.5283456,13.908457 15.196794,13.624639 c 6.192393,-0.181778 9.668447,0.08561 9.668447,0.743727 0,0.565149 -1.284069,1.027545 -2.853486,1.027545 -1.569418,0 -3.275421,0.557795 -3.791118,1.239544 -0.558224,0.737969 -0.76254,11.170739 -0.504927,25.782528 l 0.432705,24.542983 h 3.793471 c 3.7342,0 3.803897,0.06953 4.460816,4.450181 1.097909,7.321381 0.909828,7.449447 -10.940427,7.449447 H 5.0054277 Z M 31.437299,60.267425 c 0.354327,-10.226243 0.786382,-18.759971 0.960121,-18.963841 0.173739,-0.20387 2.725963,-0.465659 5.671609,-0.581754 l 5.35572,-0.211082 0.636603,10.404463 c 0.350132,5.722455 0.636603,14.351171 0.636603,19.174923 v 8.77046 h -6.952444 -6.952443 z m 22.597564,0.01827 c 0.389499,-10.216194 0.86904,-18.735759 1.065648,-18.932366 0.655278,-0.655278 9.261049,-0.892787 10.19458,-0.281358 0.505763,0.331256 1.214972,8.96921 1.57602,19.195453 l 0.656452,18.593169 h -7.100439 -7.10044 z M 76.34766,78.448318 c -0.554401,-0.553186 0.907091,-36.441608 1.508512,-37.043028 0.259808,-0.259808 2.945805,-0.569862 5.968883,-0.689009 l 5.496506,-0.21663 0.007,12.486931 c 0.0039,6.867812 0.291523,15.499024 0.639213,19.180471 l 0.632164,6.693541 h -6.919573 c -3.805764,0 -7.105504,-0.185524 -7.332754,-0.412276 z M 166.4163,60.267425 c 0.29509,-10.226243 0.91507,-18.840234 1.37774,-19.142202 0.46266,-0.301969 2.92873,-0.513461 5.48016,-0.469984 4.35752,0.07426 4.66255,0.255242 5.02788,2.983292 0.6466,4.828327 1.7845,34.366719 1.34096,34.809546 -0.22725,0.226884 -3.41695,0.412517 -7.08822,0.412517 h -6.67505 z m 22.69107,0 c 0.35433,-10.226243 0.77222,-18.745807 0.92865,-18.932366 0.53557,-0.638729 9.20086,-0.866173 10.02325,-0.263087 1.23042,0.902302 1.32045,1.827545 1.99641,20.516903 l 0.62468,17.271719 h -7.10861 -7.10861 z m 22.52332,4.462361 c 0.35554,-7.771945 0.64807,-16.473548 0.65007,-19.336896 l 0.004,-5.206087 h 5.94982 5.94981 l 0.005,9.668448 c 0.003,5.317646 0.29325,14.019249 0.64538,19.336895 l 0.64025,9.668448 h -7.24526 -7.24526 z m 18.02738,13.171634 c -0.32604,-0.527545 -0.29489,-3.204962 0.0692,-5.949814 0.66134,-4.985412 0.66592,-4.99064 4.37046,-4.99064 h 3.70843 l 0.48679,-24.542983 c 0.304,-15.327081 0.12117,-25.008433 -0.48688,-25.782528 -0.53551,-0.681749 -2.25773,-1.239544 -3.82715,-1.239544 -1.56942,0 -2.85349,-0.446236 -2.85349,-0.991636 0,-0.594981 3.96655,-0.991636 9.91636,-0.991636 h 9.91636 V 46.136617 78.860594 H 240.6045 c -5.69451,0 -10.62042,-0.431628 -10.94646,-0.959174 z"
       id="path33" /><path
       style="fill:#49a749"
       d="m 5.0325278,244.12362 c 0,-4.00487 0.292818,-12.72737 0.6507066,-19.38334 l 0.6507065,-12.10177 5.0511991,0.29436 5.051198,0.29436 0.495818,12.89126 0.495818,12.89127 4.214451,0.30492 4.214452,0.30493 v 5.8928 5.89279 H 15.444702 5.0325278 Z m 26.1236532,-2.38687 c 0.352137,-5.31764 0.642558,-13.79613 0.64538,-18.84107 l 0.0051,-9.17263 h 5.51252 c 4.122162,0 5.336012,-0.31264 4.812701,-1.23955 -0.497733,-0.8816 -0.374335,-0.94175 0.427323,-0.2083 0.718929,0.65777 1.367053,7.93028 1.789577,20.08063 l 0.662435,19.04937 H 37.76359 30.515932 Z m 22.471005,1.98328 c 0.0025,-4.22685 0.293778,-12.70534 0.647328,-18.84108 l 0.642819,-11.1559 h 5.798303 5.798304 v 8.27464 c 0,4.55105 0.290931,13.02954 0.646513,18.84108 l 0.646514,10.56643 h -7.092146 -7.092145 z m 22.73761,6.94145 c -0.247357,-2.80863 0.196122,-20.17464 0.709061,-27.7658 l 0.6198,-9.17263 h 5.376657 c 4.013472,0 5.199227,-0.31427 4.676839,-1.23955 -0.472,-0.83602 -0.368275,-0.91673 0.318624,-0.24791 0.58989,0.57437 1.231274,9.02415 1.524229,20.08063 l 0.505786,19.08898 h -6.832747 c -3.758012,0 -6.862223,-0.33467 -6.898249,-0.74372 z m 89.822704,-0.49582 c -0.23068,-0.68175 -0.10511,-9.2718 0.27903,-19.08899 l 0.69843,-17.84944 4.84862,-0.30789 c 2.89644,-0.18393 5.29198,0.17408 5.94981,0.8892 0.83549,0.90825 0.74229,0.99643 -0.38625,0.36545 -1.21442,-0.67899 -1.26913,-0.56161 -0.29804,0.63946 0.76271,0.94333 1.42178,7.771 1.83711,19.03143 l 0.64768,17.56032 h -6.5785 c -4.37802,0 -6.71878,-0.41462 -6.99789,-1.23954 z m 22.64275,-9.32689 c 0.35558,-5.81154 0.64651,-14.51315 0.64651,-19.3369 v -8.77046 h 5.94982 5.94981 l 0.014,6.19772 c 0.008,3.40875 0.29781,12.11035 0.64468,19.3369 l 0.63069,13.13917 h -7.24102 -7.24101 z m 22.80044,-3.56438 c 0.35554,-7.77194 0.64807,-16.47354 0.65007,-19.33689 l 0.004,-5.20609 h 5.94982 5.94981 v 8.77046 c 0,4.82375 0.29093,13.52536 0.64652,19.3369 l 0.64651,10.56643 h -7.2464 -7.24639 z m 18.50314,8.23802 v -5.8928 l 4.21445,-0.30493 4.21445,-0.30492 0.28028,-12.37824 c 0.15416,-6.80803 0.60039,-12.68513 0.99164,-13.06021 0.39124,-0.37509 2.67859,-0.81737 5.083,-0.98285 5.24962,-0.3613 4.76356,-2.1803 5.66899,21.21521 l 0.6812,17.60153 h -10.56701 -10.567 z M 31.471297,165.4586 c -0.945734,-0.94574 0.46026,-37.39714 1.468082,-38.06107 0.458374,-0.30197 2.956893,-0.5147 5.552265,-0.47273 l 4.718857,0.0763 0.614117,7.41418 c 0.337764,4.0778 0.672441,12.88057 0.743727,19.56172 l 0.12961,12.14753 h -6.280359 c -3.454198,0 -6.580032,-0.29967 -6.946299,-0.66593 z m 22.477916,-0.90508 c -0.902926,-2.35299 0.687289,-36.50363 1.729782,-37.14792 0.495777,-0.30641 3.024898,-0.52179 5.62027,-0.47862 l 4.718857,0.0785 0.744349,18.31999 c 0.409392,10.07599 0.534956,18.87778 0.279031,19.55953 -0.736329,1.96148 -12.324989,1.66808 -13.092289,-0.33147 z m 22.315811,0.58512 c -0.768552,-2.29232 1.198427,-37.10069 2.129016,-37.67583 0.554239,-0.34254 3.128106,-0.55578 5.719705,-0.47386 l 4.711998,0.14893 0.639654,18.7496 c 0.351811,10.31228 0.437034,19.08428 0.189386,19.49333 -0.676856,1.11799 -13.008511,0.89495 -13.389759,-0.24217 z m 22.745322,0.42778 c -0.883175,-0.88318 0.416346,-37.55791 1.352464,-38.16889 0.46266,-0.30197 2.96469,-0.5147 5.56006,-0.47273 l 4.71886,0.0763 0.61411,7.41418 c 0.33777,4.0778 0.67245,12.88057 0.74373,19.56172 l 0.12961,12.14753 h -6.28036 c -3.4542,0 -6.53151,-0.25115 -6.838474,-0.55811 z m 22.677524,-0.1301 c -0.96108,-0.96108 0.46324,-37.3652 1.48828,-38.03879 0.45952,-0.30197 2.95897,-0.51374 5.55434,-0.4706 l 4.71886,0.0784 0.76222,18.30042 c 0.41922,10.06522 0.54478,18.86704 0.27903,19.55958 -0.51583,1.34422 -11.53791,1.83577 -12.80273,0.57095 z m 22.49612,-18.33206 c 0.3677,-10.99292 1.05804,-19.28099 1.63573,-19.63802 0.54974,-0.33976 3.12302,-0.58248 5.71839,-0.53937 l 4.71886,0.0784 0.63965,18.81592 c 0.35181,10.34876 0.43704,19.1506 0.18939,19.55965 -0.24765,0.40905 -3.39506,0.74372 -6.99424,0.74372 h -6.54397 z m 22.25758,18.46216 c -0.88317,-0.88318 0.41635,-37.55791 1.35247,-38.16889 0.46266,-0.30197 2.96468,-0.5147 5.56006,-0.47273 l 4.71885,0.0763 0.61412,7.41418 c 0.33776,4.0778 0.67244,12.88057 0.74373,19.56172 l 0.12961,12.14753 h -6.28036 c -3.4542,0 -6.53151,-0.25115 -6.83848,-0.55811 z M 5.036549,158.43936 c 0.00221,-3.68145 0.2922399,-12.3445 0.6445071,-19.25122 l 0.6404858,-12.55768 4.7992901,-0.33358 c 3.330929,-0.23153 4.954108,0.0705 5.305307,0.98706 0.278309,0.72635 0.506017,6.62328 0.506017,13.10428 0,12.87277 0.444486,13.83669 6.38044,13.83669 2.422887,0 2.544281,0.26022 2.544281,5.45399 v 5.454 H 15.444702 5.0325278 Z M 189.08231,146.53973 c 0.36617,-10.22624 0.83135,-18.78262 1.03374,-19.01417 0.57344,-0.65606 10.32262,-0.79396 10.69648,-0.15131 0.18312,0.31477 0.6564,8.93924 1.05173,19.16548 l 0.71879,18.59317 h -7.08325 -7.08324 z m 22.71328,0 c 0.39483,-10.22624 0.89296,-18.78262 1.10697,-19.01417 0.88583,-0.95845 10.50431,-0.65294 10.79944,0.34303 0.17432,0.58828 0.58596,9.21341 0.91475,19.16696 l 0.59781,18.09735 h -7.06842 -7.06841 z m 18.33824,13.13917 c 0,-5.31643 0.0703,-5.45399 2.78537,-5.45399 5.5193,0 6.07506,-1.2982 6.36785,-14.87454 l 0.26732,-12.39545 5.05119,-0.29436 5.0512,-0.29435 0.65071,12.10176 c 0.35789,6.65597 0.65071,15.37848 0.65071,19.38335 v 7.28158 H 240.546 230.13383 Z M 5.0325278,71.579015 c 0,-4.004869 0.292818,-12.727375 0.6507066,-19.383347 l 0.6507065,-12.101767 5.0511991,0.29436 5.051198,0.294359 0.495818,12.891264 0.495818,12.891264 4.214451,0.304926 4.214452,0.304926 v 5.892797 5.892797 H 15.444702 5.0325278 Z M 31.437299,60.267425 c 0.354327,-10.226243 0.786382,-18.759971 0.960121,-18.963841 0.173739,-0.20387 2.725963,-0.465659 5.671609,-0.581754 l 5.35572,-0.211082 0.636603,10.404463 c 0.350132,5.722455 0.636603,14.351171 0.636603,19.174923 v 8.77046 h -6.952444 -6.952443 z m 22.597564,0.01827 c 0.389499,-10.216194 0.86904,-18.735759 1.065648,-18.932366 0.655278,-0.655278 9.261049,-0.892787 10.19458,-0.281358 0.505763,0.331256 1.214972,8.96921 1.57602,19.195453 l 0.656452,18.593169 h -7.100439 -7.10044 z M 76.34766,78.448318 c -0.554401,-0.553186 0.907091,-36.441608 1.508512,-37.043028 0.259808,-0.259808 2.945805,-0.569862 5.968883,-0.689009 l 5.496506,-0.21663 0.007,12.486931 c 0.0039,6.867812 0.291523,15.499024 0.639213,19.180471 l 0.632164,6.693541 h -6.919573 c -3.805764,0 -7.105504,-0.185524 -7.332754,-0.412276 z M 166.4163,60.267425 c 0.29509,-10.226243 0.91507,-18.840234 1.37774,-19.142202 0.46266,-0.301969 2.92873,-0.513461 5.48016,-0.469984 4.35752,0.07426 4.66255,0.255242 5.02788,2.983292 0.6466,4.828327 1.7845,34.366719 1.34096,34.809546 -0.22725,0.226884 -3.41695,0.412517 -7.08822,0.412517 h -6.67505 z m 22.69107,0 c 0.35433,-10.226243 0.77222,-18.745807 0.92865,-18.932366 0.53557,-0.638729 9.20086,-0.866173 10.02325,-0.263087 1.23042,0.902302 1.32045,1.827545 1.99641,20.516903 l 0.62468,17.271719 h -7.10861 -7.10861 z m 22.52332,4.462361 c 0.35554,-7.771945 0.64807,-16.473548 0.65007,-19.336896 l 0.004,-5.206087 h 5.94982 5.94981 l 0.005,9.668448 c 0.003,5.317646 0.29325,14.019249 0.64538,19.336895 l 0.64025,9.668448 h -7.24526 -7.24526 z m 18.50314,8.238011 V 67.075 l 4.21445,-0.304926 4.21445,-0.304926 0.28028,-12.378237 c 0.15416,-6.808031 0.60039,-12.685125 0.99164,-13.060211 0.39124,-0.375085 2.67859,-0.817367 5.083,-0.982849 5.24962,-0.361303 4.76356,-2.180297 5.66899,21.21521 l 0.6812,17.601533 h -10.56701 -10.567 z"
       id="path32" /><path
       style="fill:#5c645c"
       d="m 5.0325278,244.12362 c 0,-4.00487 0.292818,-12.72737 0.6507066,-19.38334 l 0.6507065,-12.10177 5.0511991,0.29436 5.051198,0.29436 0.495818,12.89126 0.495818,12.89127 4.214451,0.30492 4.214452,0.30493 v 5.8928 5.89279 H 15.444702 5.0325278 Z m 26.1543912,4.18272 c 0.340875,-1.70437 0.619772,-4.60491 0.619772,-6.44563 v -3.34677 h 5.820066 5.820066 l 0.614653,3.71863 c 0.338058,2.04525 0.619563,4.94579 0.625565,6.44563 0.01089,2.72077 -0.0052,2.727 -7.05449,2.727 h -7.065404 z m 22.446671,0.37186 c 0.006,-1.49984 0.287507,-4.40038 0.625566,-6.44563 l 0.614652,-3.71863 h 5.820066 c 5.685427,0 5.820318,0.0631 5.83098,2.727 0.006,1.49985 0.287507,4.40038 0.625565,6.44563 l 0.614653,3.71863 h -7.071198 c -7.055589,0 -7.071174,-0.006 -7.060284,-2.727 z m 22.997297,-3.47072 0.295228,-6.19772 6.107377,-0.29289 6.107378,-0.29288 0.338254,6.08061 c 0.18604,3.34434 0.152323,6.26511 -0.07493,6.49061 -0.22725,0.2255 -3.260637,0.40999 -6.740859,0.40999 H 76.33566 Z m 89.556613,4.95818 c -0.23068,-0.68175 -0.10511,-9.2718 0.27903,-19.08899 l 0.69843,-17.84944 4.84862,-0.30789 c 2.89644,-0.18393 5.29198,0.17408 5.94981,0.8892 0.83549,0.90825 0.74229,0.99643 -0.38625,0.36545 -1.21442,-0.67899 -1.26913,-0.56161 -0.29804,0.63946 0.76271,0.94333 1.42178,7.771 1.83711,19.03143 l 0.64768,17.56032 h -6.5785 c -4.37802,0 -6.71878,-0.41462 -6.99789,-1.23954 z m 22.64275,-9.32689 c 0.35558,-5.81154 0.64651,-14.51315 0.64651,-19.3369 v -8.77046 h 5.94982 5.94981 l 0.014,6.19772 c 0.008,3.40875 0.29781,12.11035 0.64468,19.3369 l 0.63069,13.13917 h -7.24102 -7.24101 z m 22.80044,-3.56438 c 0.35554,-7.77194 0.64807,-16.47354 0.65007,-19.33689 l 0.004,-5.20609 h 5.94982 5.94981 v 8.77046 c 0,4.82375 0.29093,13.52536 0.64652,19.3369 l 0.64651,10.56643 h -7.2464 -7.24639 z m 18.50314,8.23802 v -5.8928 l 4.21445,-0.30493 4.21445,-0.30492 0.28028,-12.37824 c 0.15416,-6.80803 0.60039,-12.68513 0.99164,-13.06021 0.39124,-0.37509 2.67859,-0.81737 5.083,-0.98285 5.24962,-0.3613 4.76356,-2.1803 5.66899,21.21521 l 0.6812,17.60153 h -10.56701 -10.567 z M 5.036549,158.43936 c 0.00221,-3.68145 0.2922399,-12.3445 0.6445071,-19.25122 l 0.6404858,-12.55768 4.7992901,-0.33358 c 3.330929,-0.23153 4.954108,0.0705 5.305307,0.98706 0.278309,0.72635 0.506017,6.62328 0.506017,13.10428 0,12.87277 0.444486,13.83669 6.38044,13.83669 2.422887,0 2.544281,0.26022 2.544281,5.45399 v 5.454 H 15.444702 5.0325278 Z m 26.15037,3.59468 c 0.340875,-1.70438 0.619772,-4.60491 0.619772,-6.44564 v -3.34677 h 5.395473 c 2.96751,0 5.678352,0.45771 6.024094,1.01713 0.345741,0.55943 0.880743,3.45996 1.188891,6.44564 l 0.560271,5.4285 h -7.204137 -7.204136 z m 22.435757,1.25399 c 0,-1.01468 0.283772,-3.91521 0.630605,-6.44563 l 0.630605,-4.60077 h 5.815027 c 5.67993,0 5.815281,0.0634 5.825941,2.727 0.006,1.49985 0.287507,4.40039 0.625565,6.44563 l 0.614653,3.71864 h -7.071198 c -6.233278,0 -7.071198,-0.21861 -7.071198,-1.84487 z m 23.008211,-4.35285 0.295228,-6.19773 5.7139,-0.29775 c 6.409812,-0.33402 6.310018,-0.44141 6.957136,7.48711 l 0.424916,5.20609 H 83.178864 76.33566 Z m 21.982016,3.96654 c 0.328864,-1.22715 0.604027,-4.12769 0.611474,-6.44563 l 0.01354,-4.21446 h 5.820063 5.82007 l 0.61465,3.71864 c 0.33806,2.04525 0.61957,4.94578 0.62557,6.44563 0.0109,2.72047 -0.006,2.727 -7.04619,2.727 -6.834559,0 -7.038254,-0.0704 -6.459177,-2.23118 z m 22.440997,0.38631 c 0,-1.01468 0.28377,-3.91521 0.63061,-6.44563 l 0.6306,-4.60077 h 5.68024 5.68024 l 0.63061,4.60077 c 1.18482,8.64423 1.45409,8.2905 -6.31085,8.2905 -6.10677,0 -6.94145,-0.22184 -6.94145,-1.84487 z m 22.81854,-0.88213 c 0.006,-1.49985 0.2875,-4.40038 0.62556,-6.44563 l 0.61465,-3.71864 h 5.82007 5.82007 l 0.0135,4.21446 c 0.007,2.31794 0.28261,5.21848 0.61147,6.44563 0.57908,2.16082 0.37538,2.23118 -6.45917,2.23118 -7.04022,0 -7.05708,-0.007 -7.04619,-2.727 z m 22.19479,1.15844 c 0.33105,-0.8627 0.60191,-3.78453 0.60191,-6.49295 V 152.147 l 6.19773,0.29523 6.19772,0.29522 0.32738,6.19773 0.32738,6.19772 h -7.12701 c -6.0915,0 -7.03957,-0.2279 -6.52511,-1.56856 z m 23.01508,-17.02461 c 0.36617,-10.22624 0.83135,-18.78262 1.03374,-19.01417 0.57344,-0.65606 10.32262,-0.79396 10.69648,-0.15131 0.18312,0.31477 0.6564,8.93924 1.05173,19.16548 l 0.71879,18.59317 h -7.08325 -7.08324 z m 22.71328,0 c 0.39483,-10.22624 0.89296,-18.78262 1.10697,-19.01417 0.88583,-0.95845 10.50431,-0.65294 10.79944,0.34303 0.17432,0.58828 0.58596,9.21341 0.91475,19.16696 l 0.59781,18.09735 h -7.06842 -7.06841 z m 18.33824,13.13917 c 0,-5.31643 0.0703,-5.45399 2.78537,-5.45399 5.5193,0 6.07506,-1.2982 6.36785,-14.87454 l 0.26732,-12.39545 5.05119,-0.29436 5.0512,-0.29435 0.65071,12.10176 c 0.35789,6.65597 0.65071,15.37848 0.65071,19.38335 v 7.28158 H 240.546 230.13383 Z M 5.0325278,71.579015 c 0,-4.004869 0.292818,-12.727375 0.6507066,-19.383347 l 0.6507065,-12.101767 5.0511991,0.29436 5.051198,0.294359 0.495818,12.891264 0.495818,12.891264 4.214451,0.304926 4.214452,0.304926 v 5.892797 5.892797 H 15.444702 5.0325278 Z m 26.1543912,4.182718 c 0.340875,-1.704374 0.619772,-4.604909 0.619772,-6.445632 V 65.96933 h 5.820066 5.820066 l 0.614653,3.718634 c 0.338058,2.045249 0.619563,4.945783 0.625565,6.445632 0.01089,2.720771 -0.0052,2.726998 -7.05449,2.726998 h -7.065404 z m 22.435757,1.253994 c 0,-1.014677 0.283772,-3.915212 0.630605,-6.445632 l 0.630605,-4.600765 h 5.815027 c 5.67993,0 5.815281,0.06336 5.825941,2.726998 0.006,1.499849 0.287507,4.400384 0.625565,6.445632 l 0.614653,3.718634 h -7.071198 c -6.233278,0 -7.071198,-0.218612 -7.071198,-1.844867 z m 23.008211,-4.352856 0.295228,-6.197723 6.107377,-0.292882 6.107378,-0.292882 0.338254,6.080611 c 0.18604,3.344337 0.152323,6.265109 -0.07493,6.490606 -0.22725,0.225496 -3.260637,0.409993 -6.740859,0.409993 H 76.33566 Z m 89.955623,5.78773 c -0.22725,-0.225497 -0.26097,-3.146269 -0.0749,-6.490606 l 0.33825,-6.080611 6.10738,0.292882 6.10738,0.292882 0.30974,6.197723 0.30973,6.197723 h -6.34218 c -3.48821,0 -6.52812,-0.184497 -6.75537,-0.409993 z m 22.27048,-2.688868 c 0.34088,-1.704374 0.61977,-4.604909 0.61977,-6.445632 V 65.96933 h 5.82007 5.82007 l 0.61465,3.718634 c 0.33806,2.045249 0.61956,4.945783 0.62556,6.445632 0.0109,2.720771 -0.005,2.726998 -7.05449,2.726998 h -7.0654 z m 22.7737,-11.031947 c 0.35554,-7.771945 0.64807,-16.473548 0.65007,-19.336896 l 0.004,-5.206087 h 5.94982 5.94981 l 0.005,9.668448 c 0.003,5.317646 0.29325,14.019249 0.64538,19.336895 l 0.64025,9.668448 h -7.24526 -7.24526 z m 18.50314,8.238011 V 67.075 l 4.21445,-0.304926 4.21445,-0.304926 0.28028,-12.378237 c 0.15416,-6.808031 0.60039,-12.685125 0.99164,-13.060211 0.39124,-0.375085 2.67859,-0.817367 5.083,-0.982849 5.24962,-0.361303 4.76356,-2.180297 5.66899,21.21521 l 0.6812,17.601533 h -10.56701 -10.567 z"
       id="path31" /><path
       style="fill:#af2b2b"
       d="m 31.186919,248.30634 c 0.340875,-1.70437 0.619772,-4.60491 0.619772,-6.44563 v -3.34677 h 5.820066 5.820066 l 0.614653,3.71863 c 0.338058,2.04525 0.619563,4.94579 0.625565,6.44563 0.01089,2.72077 -0.0052,2.727 -7.05449,2.727 h -7.065404 z m 22.446671,0.37186 c 0.006,-1.49984 0.287507,-4.40038 0.625566,-6.44563 l 0.614652,-3.71863 h 5.820066 c 5.685427,0 5.820318,0.0631 5.83098,2.727 0.006,1.49985 0.287507,4.40038 0.625565,6.44563 l 0.614653,3.71863 h -7.071198 c -7.055589,0 -7.071174,-0.006 -7.060284,-2.727 z m 22.997297,-3.47072 0.295228,-6.19772 6.107377,-0.29289 6.107378,-0.29288 0.338254,6.08061 c 0.18604,3.34434 0.152323,6.26511 -0.07493,6.49061 -0.22725,0.2255 -3.260637,0.40999 -6.740859,0.40999 H 76.33566 Z m 89.556613,4.95818 c -0.23068,-0.68175 -0.10511,-9.2718 0.27903,-19.08899 l 0.69843,-17.84944 4.84862,-0.30789 c 2.89644,-0.18393 5.29198,0.17408 5.94981,0.8892 0.83549,0.90825 0.74229,0.99643 -0.38625,0.36545 -1.21442,-0.67899 -1.26913,-0.56161 -0.29804,0.63946 0.76271,0.94333 1.42178,7.771 1.83711,19.03143 l 0.64768,17.56032 h -6.5785 c -4.37802,0 -6.71878,-0.41462 -6.99789,-1.23954 z m 22.64275,-9.32689 c 0.35558,-5.81154 0.64651,-14.51315 0.64651,-19.3369 v -8.77046 h 5.94982 5.94981 l 0.014,6.19772 c 0.008,3.40875 0.29781,12.11035 0.64468,19.3369 l 0.63069,13.13917 h -7.24102 -7.24101 z m 22.80044,-3.56438 c 0.35554,-7.77194 0.64807,-16.47354 0.65007,-19.33689 l 0.004,-5.20609 h 5.94982 5.94981 v 8.77046 c 0,4.82375 0.29093,13.52536 0.64652,19.3369 l 0.64651,10.56643 h -7.2464 -7.24639 z M 5.3876841,246.69493 c 0.3380587,-2.04525 0.6195633,-4.75071 0.6255658,-6.01214 0.00755,-1.58701 0.5454822,-2.23914 1.746276,-2.11699 0.9544494,0.0971 1.9584805,0.088 2.2311803,-0.0203 2.0752618,-0.82382 5.7850608,-0.52363 7.4100038,0.59962 1.075804,0.74366 3.147683,1.3521 4.604176,1.3521 2.965401,0 3.851991,1.50222 3.851991,6.52674 v 3.38962 H 15.314954 4.7730319 Z m 224.7461459,0.32902 c 0,-5.31832 0.83501,-6.52674 4.50993,-6.52674 1.81836,0 3.60592,-0.48511 3.97236,-1.07803 0.36644,-0.59291 1.50792,-0.85792 2.53663,-0.58891 1.0287,0.26901 2.08308,0.14494 2.34305,-0.27571 0.43812,-0.70889 5.26252,-0.60412 5.96679,0.12958 0.17191,0.17909 0.63016,2.89147 1.01833,6.02752 l 0.70578,5.70191 H 240.66026 230.13383 Z M 5.4742186,163.86197 c -0.2682351,-0.69901 -0.1366407,-3.7103 0.292432,-6.69175 0.6441976,-4.47627 1.1233737,-5.42387 2.7500029,-5.43827 1.0834288,-0.01 2.4879385,0.34594 3.1211325,0.79009 0.643889,0.45165 1.449148,0.32554 1.827186,-0.28614 0.471519,-0.76293 1.387309,-0.62755 3.028302,0.44767 1.293806,0.84773 3.659041,1.54134 5.256077,1.54134 3.218891,0 4.107526,1.38213 4.107526,6.38861 0,3.18194 -0.111364,3.26487 -5.206087,3.87682 -8.525023,1.02397 -14.639659,0.7708 -15.1765714,-0.62837 z m 25.7127004,-1.82793 c 0.340875,-1.70438 0.619772,-4.60491 0.619772,-6.44564 v -3.34677 h 5.395473 c 2.96751,0 5.678352,0.45771 6.024094,1.01713 0.345741,0.55943 0.880743,3.45996 1.188891,6.44564 l 0.560271,5.4285 h -7.204137 -7.204136 z m 22.435757,1.25399 c 0,-1.01468 0.283772,-3.91521 0.630605,-6.44563 l 0.630605,-4.60077 h 5.815027 c 5.67993,0 5.815281,0.0634 5.825941,2.727 0.006,1.49985 0.287507,4.40039 0.625565,6.44563 l 0.614653,3.71864 h -7.071198 c -6.233278,0 -7.071198,-0.21861 -7.071198,-1.84487 z m 23.008211,-4.35285 0.295228,-6.19773 5.7139,-0.29775 c 6.409812,-0.33402 6.310018,-0.44141 6.957136,7.48711 l 0.424916,5.20609 H 83.178864 76.33566 Z m 21.982016,3.96654 c 0.328864,-1.22715 0.604027,-4.12769 0.611474,-6.44563 l 0.01354,-4.21446 h 5.820063 5.82007 l 0.61465,3.71864 c 0.33806,2.04525 0.61957,4.94578 0.62557,6.44563 0.0109,2.72047 -0.006,2.727 -7.04619,2.727 -6.834559,0 -7.038254,-0.0704 -6.459177,-2.23118 z m 22.440997,0.38631 c 0,-1.01468 0.28377,-3.91521 0.63061,-6.44563 l 0.6306,-4.60077 h 5.68024 5.68024 l 0.63061,4.60077 c 1.18482,8.64423 1.45409,8.2905 -6.31085,8.2905 -6.10677,0 -6.94145,-0.22184 -6.94145,-1.84487 z m 22.81854,-0.88213 c 0.006,-1.49985 0.2875,-4.40038 0.62556,-6.44563 l 0.61465,-3.71864 h 5.82007 5.82007 l 0.0135,4.21446 c 0.007,2.31794 0.28261,5.21848 0.61147,6.44563 0.57908,2.16082 0.37538,2.23118 -6.45917,2.23118 -7.04022,0 -7.05708,-0.007 -7.04619,-2.727 z m 22.19479,1.15844 c 0.33105,-0.8627 0.60191,-3.78453 0.60191,-6.49295 V 152.147 l 6.19773,0.29523 6.19772,0.29522 0.32738,6.19773 0.32738,6.19772 h -7.12701 c -6.0915,0 -7.03957,-0.2279 -6.52511,-1.56856 z m 23.01508,-17.02461 c 0.36617,-10.22624 0.83135,-18.78262 1.03374,-19.01417 0.57344,-0.65606 10.32262,-0.79396 10.69648,-0.15131 0.18312,0.31477 0.6564,8.93924 1.05173,19.16548 l 0.71879,18.59317 h -7.08325 -7.08324 z m 22.71328,0 c 0.39483,-10.22624 0.89296,-18.78262 1.10697,-19.01417 0.88583,-0.95845 10.50431,-0.65294 10.79944,0.34303 0.17432,0.58828 0.58596,9.21341 0.91475,19.16696 l 0.59781,18.09735 h -7.06842 -7.06841 z m 18.92797,17.86072 c -0.76885,-0.76885 -0.76061,-6.59313 0.0122,-8.60699 0.34904,-0.90958 1.75953,-1.56855 3.35737,-1.56855 1.51551,0 4.01011,-0.65092 5.54357,-1.44649 1.80557,-0.93674 3.18813,-1.1145 3.92322,-0.50442 0.62432,0.51813 1.43783,0.63935 1.80781,0.26938 0.36998,-0.36998 1.50728,-0.73418 2.52733,-0.80933 1.54847,-0.11408 1.96275,0.81899 2.50956,5.65217 0.36021,3.18384 0.4088,6.18705 0.10797,6.6738 -0.60178,0.9737 -18.84196,1.28748 -19.78901,0.34043 z M 31.186919,75.761733 c 0.340875,-1.704374 0.619772,-4.604909 0.619772,-6.445632 V 65.96933 h 5.820066 5.820066 l 0.614653,3.718634 c 0.338058,2.045249 0.619563,4.945783 0.625565,6.445632 0.01089,2.720771 -0.0052,2.726998 -7.05449,2.726998 h -7.065404 z m 22.435757,1.253994 c 0,-1.014677 0.283772,-3.915212 0.630605,-6.445632 l 0.630605,-4.600765 h 5.815027 c 5.67993,0 5.815281,0.06336 5.825941,2.726998 0.006,1.499849 0.287507,4.400384 0.625565,6.445632 l 0.614653,3.718634 h -7.071198 c -6.233278,0 -7.071198,-0.218612 -7.071198,-1.844867 z m 23.008211,-4.352856 0.295228,-6.197723 6.107377,-0.292882 6.107378,-0.292882 0.338254,6.080611 c 0.18604,3.344337 0.152323,6.265109 -0.07493,6.490606 -0.22725,0.225496 -3.260637,0.409993 -6.740859,0.409993 H 76.33566 Z m 89.955623,5.78773 c -0.22725,-0.225497 -0.26097,-3.146269 -0.0749,-6.490606 l 0.33825,-6.080611 6.10738,0.292882 6.10738,0.292882 0.30974,6.197723 0.30973,6.197723 h -6.34218 c -3.48821,0 -6.52812,-0.184497 -6.75537,-0.409993 z m 22.27048,-2.688868 c 0.34088,-1.704374 0.61977,-4.604909 0.61977,-6.445632 V 65.96933 h 5.82007 5.82007 l 0.61465,3.718634 c 0.33806,2.045249 0.61956,4.945783 0.62556,6.445632 0.0109,2.720771 -0.005,2.726998 -7.05449,2.726998 h -7.0654 z m 22.7737,-11.031947 c 0.35554,-7.771945 0.64807,-16.473548 0.65007,-19.336896 l 0.004,-5.206087 h 5.94982 5.94981 l 0.005,9.668448 c 0.003,5.317646 0.29325,14.019249 0.64538,19.336895 l 0.64025,9.668448 h -7.24526 -7.24526 z M 5.3876841,74.150325 c 0.3380587,-2.045249 0.6195633,-4.77471 0.6255658,-6.06547 0.00863,-1.856144 0.4253832,-2.23845 1.9931973,-1.828457 1.0902561,0.285108 2.1949938,0.174207 2.4549718,-0.246447 0.650349,-1.052286 5.488977,-0.427399 6.79376,0.877383 0.585897,0.585897 2.490104,1.065268 4.231571,1.065268 3.523812,0 4.370127,1.263961 4.370127,6.526735 v 3.389621 H 15.314954 4.7730319 Z M 230.13383,74.479337 c 0,-5.318316 0.83501,-6.526735 4.50993,-6.526735 1.81836,0 3.60592,-0.485112 3.97236,-1.078025 0.36644,-0.592914 1.50792,-0.857925 2.53663,-0.588913 1.0287,0.269012 2.08308,0.144941 2.34305,-0.275713 0.43812,-0.708893 5.26252,-0.604122 5.96679,0.129581 0.17191,0.179089 0.63016,2.891473 1.01833,6.027521 l 0.70578,5.701905 h -10.52644 -10.52643 z"
       id="path30" /><path
       style="fill:#328d32"
       d="m 31.186919,248.30634 c 0.340875,-1.70437 0.619772,-4.60491 0.619772,-6.44563 v -3.34677 h 5.820066 5.820066 l 0.614653,3.71863 c 0.338058,2.04525 0.619563,4.94579 0.625565,6.44563 0.01089,2.72077 -0.0052,2.727 -7.05449,2.727 h -7.065404 z m 22.446671,0.37186 c 0.006,-1.49984 0.287507,-4.40038 0.625566,-6.44563 l 0.614652,-3.71863 h 5.820066 c 5.685427,0 5.820318,0.0631 5.83098,2.727 0.006,1.49985 0.287507,4.40038 0.625565,6.44563 l 0.614653,3.71863 h -7.071198 c -7.055589,0 -7.071174,-0.006 -7.060284,-2.727 z m 22.997297,-3.47072 0.295228,-6.19772 6.107377,-0.29289 6.107378,-0.29288 0.338254,6.08061 c 0.18604,3.34434 0.152323,6.26511 -0.07493,6.49061 -0.22725,0.2255 -3.260637,0.40999 -6.740859,0.40999 H 76.33566 Z m -71.2432029,1.48745 c 0.3380587,-2.04525 0.6195633,-4.75071 0.6255658,-6.01214 0.00755,-1.58701 0.5454822,-2.23914 1.746276,-2.11699 0.9544494,0.0971 1.9584805,0.088 2.2311803,-0.0203 2.0752618,-0.82382 5.7850608,-0.52363 7.4100038,0.59962 1.075804,0.74366 3.147683,1.3521 4.604176,1.3521 2.965401,0 3.851991,1.50222 3.851991,6.52674 v 3.38962 H 15.314954 4.7730319 Z m 224.7461459,0.32902 c 0,-5.31832 0.83501,-6.52674 4.50993,-6.52674 1.81836,0 3.60592,-0.48511 3.97236,-1.07803 0.36644,-0.59291 1.50792,-0.85792 2.53663,-0.58891 1.0287,0.26901 2.08308,0.14494 2.34305,-0.27571 0.43812,-0.70889 5.26252,-0.60412 5.96679,0.12958 0.17191,0.17909 0.63016,2.89147 1.01833,6.02752 l 0.70578,5.70191 H 240.66026 230.13383 Z M 5.4742186,163.86197 c -0.2682351,-0.69901 -0.1366407,-3.7103 0.292432,-6.69175 0.6441976,-4.47627 1.1233737,-5.42387 2.7500029,-5.43827 1.0834288,-0.01 2.4879385,0.34594 3.1211325,0.79009 0.643889,0.45165 1.449148,0.32554 1.827186,-0.28614 0.471519,-0.76293 1.387309,-0.62755 3.028302,0.44767 1.293806,0.84773 3.659041,1.54134 5.256077,1.54134 3.218891,0 4.107526,1.38213 4.107526,6.38861 0,3.18194 -0.111364,3.26487 -5.206087,3.87682 -8.525023,1.02397 -14.639659,0.7708 -15.1765714,-0.62837 z m 25.7127004,-1.82793 c 0.340875,-1.70438 0.619772,-4.60491 0.619772,-6.44564 v -3.34677 h 5.395473 c 2.96751,0 5.678352,0.45771 6.024094,1.01713 0.345741,0.55943 0.880743,3.45996 1.188891,6.44564 l 0.560271,5.4285 h -7.204137 -7.204136 z m 22.435757,1.25399 c 0,-1.01468 0.283772,-3.91521 0.630605,-6.44563 l 0.630605,-4.60077 h 5.815027 c 5.67993,0 5.815281,0.0634 5.825941,2.727 0.006,1.49985 0.287507,4.40039 0.625565,6.44563 l 0.614653,3.71864 h -7.071198 c -6.233278,0 -7.071198,-0.21861 -7.071198,-1.84487 z m 23.008211,-4.35285 0.295228,-6.19773 5.7139,-0.29775 c 6.409812,-0.33402 6.310018,-0.44141 6.957136,7.48711 l 0.424916,5.20609 H 83.178864 76.33566 Z m 21.982016,3.96654 c 0.328864,-1.22715 0.604027,-4.12769 0.611474,-6.44563 l 0.01354,-4.21446 h 5.820063 5.82007 l 0.61465,3.71864 c 0.33806,2.04525 0.61957,4.94578 0.62557,6.44563 0.0109,2.72047 -0.006,2.727 -7.04619,2.727 -6.834559,0 -7.038254,-0.0704 -6.459177,-2.23118 z m 22.440997,0.38631 c 0,-1.01468 0.28377,-3.91521 0.63061,-6.44563 l 0.6306,-4.60077 h 5.68024 5.68024 l 0.63061,4.60077 c 1.18482,8.64423 1.45409,8.2905 -6.31085,8.2905 -6.10677,0 -6.94145,-0.22184 -6.94145,-1.84487 z m 22.81854,-0.88213 c 0.006,-1.49985 0.2875,-4.40038 0.62556,-6.44563 l 0.61465,-3.71864 h 5.82007 5.82007 l 0.0135,4.21446 c 0.007,2.31794 0.28261,5.21848 0.61147,6.44563 0.57908,2.16082 0.37538,2.23118 -6.45917,2.23118 -7.04022,0 -7.05708,-0.007 -7.04619,-2.727 z m 22.19479,1.15844 c 0.33105,-0.8627 0.60191,-3.78453 0.60191,-6.49295 V 152.147 l 6.19773,0.29523 6.19772,0.29522 0.32738,6.19773 0.32738,6.19772 h -7.12701 c -6.0915,0 -7.03957,-0.2279 -6.52511,-1.56856 z m 64.65633,0.83611 c -0.76885,-0.76885 -0.76061,-6.59313 0.0122,-8.60699 0.34904,-0.90958 1.75953,-1.56855 3.35737,-1.56855 1.51551,0 4.01011,-0.65092 5.54357,-1.44649 1.80557,-0.93674 3.18813,-1.1145 3.92322,-0.50442 0.62432,0.51813 1.43783,0.63935 1.80781,0.26938 0.36998,-0.36998 1.50728,-0.73418 2.52733,-0.80933 1.54847,-0.11408 1.96275,0.81899 2.50956,5.65217 0.36021,3.18384 0.4088,6.18705 0.10797,6.6738 -0.60178,0.9737 -18.84196,1.28748 -19.78901,0.34043 z M 31.186919,75.761733 c 0.340875,-1.704374 0.619772,-4.604909 0.619772,-6.445632 V 65.96933 h 5.820066 5.820066 l 0.614653,3.718634 c 0.338058,2.045249 0.619563,4.945783 0.625565,6.445632 0.01089,2.720771 -0.0052,2.726998 -7.05449,2.726998 h -7.065404 z m 22.435757,1.253994 c 0,-1.014677 0.283772,-3.915212 0.630605,-6.445632 l 0.630605,-4.600765 h 5.815027 c 5.67993,0 5.815281,0.06336 5.825941,2.726998 0.006,1.499849 0.287507,4.400384 0.625565,6.445632 l 0.614653,3.718634 h -7.071198 c -6.233278,0 -7.071198,-0.218612 -7.071198,-1.844867 z m 23.008211,-4.352856 0.295228,-6.197723 6.107377,-0.292882 6.107378,-0.292882 0.338254,6.080611 c 0.18604,3.344337 0.152323,6.265109 -0.07493,6.490606 -0.22725,0.225496 -3.260637,0.409993 -6.740859,0.409993 H 76.33566 Z m 89.955623,5.78773 c -0.22725,-0.225497 -0.26097,-3.146269 -0.0749,-6.490606 l 0.33825,-6.080611 6.10738,0.292882 6.10738,0.292882 0.30974,6.197723 0.30973,6.197723 h -6.34218 c -3.48821,0 -6.52812,-0.184497 -6.75537,-0.409993 z m 22.27048,-2.688868 c 0.34088,-1.704374 0.61977,-4.604909 0.61977,-6.445632 V 65.96933 h 5.82007 5.82007 l 0.61465,3.718634 c 0.33806,2.045249 0.61956,4.945783 0.62556,6.445632 0.0109,2.720771 -0.005,2.726998 -7.05449,2.726998 h -7.0654 z M 5.3876841,74.150325 c 0.3380587,-2.045249 0.6195633,-4.77471 0.6255658,-6.06547 0.00863,-1.856144 0.4253832,-2.23845 1.9931973,-1.828457 1.0902561,0.285108 2.1949938,0.174207 2.4549718,-0.246447 0.650349,-1.052286 5.488977,-0.427399 6.79376,0.877383 0.585897,0.585897 2.490104,1.065268 4.231571,1.065268 3.523812,0 4.370127,1.263961 4.370127,6.526735 v 3.389621 H 15.314954 4.7730319 Z M 230.13383,74.479337 c 0,-5.318316 0.83501,-6.526735 4.50993,-6.526735 1.81836,0 3.60592,-0.485112 3.97236,-1.078025 0.36644,-0.592914 1.50792,-0.857925 2.53663,-0.588913 1.0287,0.269012 2.08308,0.144941 2.34305,-0.275713 0.43812,-0.708893 5.26252,-0.604122 5.96679,0.129581 0.17191,0.179089 0.63016,2.891473 1.01833,6.027521 l 0.70578,5.701905 h -10.52644 -10.52643 z"
       id="path29" /><path
       style="fill:#4c534c"
       d="m 5.3876841,246.69493 c 0.3380587,-2.04525 0.6195633,-4.75071 0.6255658,-6.01214 0.00755,-1.58701 0.5454822,-2.23914 1.746276,-2.11699 0.9544494,0.0971 1.9584805,0.088 2.2311803,-0.0203 2.0752618,-0.82382 5.7850608,-0.52363 7.4100038,0.59962 1.075804,0.74366 3.147683,1.3521 4.604176,1.3521 2.965401,0 3.851991,1.50222 3.851991,6.52674 v 3.38962 H 15.314954 4.7730319 Z m 26.4190069,2.23118 c 0,-1.1569 1.322181,-1.48745 5.949814,-1.48745 4.627633,0 5.949814,0.33055 5.949814,1.48745 0,1.15691 -1.322181,1.48746 -5.949814,1.48746 -4.627633,0 -5.949814,-0.33055 -5.949814,-1.48746 z m 22.807621,0 c 0,-1.1569 1.322181,-1.48745 5.949814,-1.48745 4.627633,0 5.949814,0.33055 5.949814,1.48745 0,1.15691 -1.322181,1.48746 -5.949814,1.48746 -4.627633,0 -5.949814,-0.33055 -5.949814,-1.48746 z m 22.059963,0.24791 c 0.2534,-0.7675 2.739475,-1.35197 6.528268,-1.53477 4.989049,-0.24071 6.119018,-0.0118 6.119018,1.23955 0,1.22985 -1.297,1.53477 -6.528269,1.53477 -4.779791,0 -6.418658,-0.33199 -6.119017,-1.23955 z m 153.459555,-2.15007 c 0,-5.31832 0.83501,-6.52674 4.50993,-6.52674 1.81836,0 3.60592,-0.48511 3.97236,-1.07803 0.36644,-0.59291 1.50792,-0.85792 2.53663,-0.58891 1.0287,0.26901 2.08308,0.14494 2.34305,-0.27571 0.43812,-0.70889 5.26252,-0.60412 5.96679,0.12958 0.17191,0.17909 0.63016,2.89147 1.01833,6.02752 l 0.70578,5.70191 H 240.66026 230.13383 Z M 5.4742186,163.86197 c -0.2682351,-0.69901 -0.1366407,-3.7103 0.292432,-6.69175 0.6441976,-4.47627 1.1233737,-5.42387 2.7500029,-5.43827 1.0834288,-0.01 2.4879385,0.34594 3.1211325,0.79009 0.643889,0.45165 1.449148,0.32554 1.827186,-0.28614 0.471519,-0.76293 1.387309,-0.62755 3.028302,0.44767 1.293806,0.84773 3.659041,1.54134 5.256077,1.54134 3.218891,0 4.107526,1.38213 4.107526,6.38861 0,3.18194 -0.111364,3.26487 -5.206087,3.87682 -8.525023,1.02397 -14.639659,0.7708 -15.1765714,-0.62837 z m 26.3324724,-0.71234 c 0,-1.76291 0.661091,-1.98327 5.949814,-1.98327 5.288724,0 5.949814,0.22036 5.949814,1.98327 0,1.7629 -0.66109,1.98327 -5.949814,1.98327 -5.288723,0 -5.949814,-0.22037 -5.949814,-1.98327 z m 22.807621,0 c 0,-1.76291 0.66109,-1.98327 5.949814,-1.98327 5.288724,0 5.949814,0.22036 5.949814,1.98327 0,1.7629 -0.66109,1.98327 -5.949814,1.98327 -5.288724,0 -5.949814,-0.22037 -5.949814,-1.98327 z m 22.340773,1.03851 c -1.293136,-2.09234 0.720873,-3.02178 6.547896,-3.02178 5.144723,0 5.918634,0.23838 5.633745,1.73536 -0.259738,1.36481 -1.527032,1.79831 -5.935031,2.03015 -3.163251,0.16637 -5.884367,-0.15761 -6.24661,-0.74373 z m 22.282832,-1.03851 c 0,-1.76291 0.661091,-1.98327 5.949813,-1.98327 5.28873,0 5.94982,0.22036 5.94982,1.98327 0,1.7629 -0.66109,1.98327 -5.94982,1.98327 -5.288722,0 -5.949813,-0.22037 -5.949813,-1.98327 z m 22.807623,0 c 0,-1.76291 0.66109,-1.98327 5.94981,-1.98327 5.28873,0 5.94982,0.22036 5.94982,1.98327 0,1.7629 -0.66109,1.98327 -5.94982,1.98327 -5.28872,0 -5.94981,-0.22037 -5.94981,-1.98327 z m 22.80762,0 c 0,-1.76291 0.66109,-1.98327 5.94981,-1.98327 5.28873,0 5.94982,0.22036 5.94982,1.98327 0,1.7629 -0.66109,1.98327 -5.94982,1.98327 -5.28872,0 -5.94981,-0.22037 -5.94981,-1.98327 z m 21.81598,0 c 0,-1.75891 0.66109,-1.98327 5.84372,-1.98327 4.12798,0 6.00206,0.41262 6.38302,1.40538 0.70569,1.83899 -1.36669,2.56116 -7.34966,2.56116 -4.21599,0 -4.87708,-0.26884 -4.87708,-1.98327 z m 64.05442,1.25082 c -0.76885,-0.76885 -0.76061,-6.59313 0.0122,-8.60699 0.34904,-0.90958 1.75953,-1.56855 3.35737,-1.56855 1.51551,0 4.01011,-0.65092 5.54357,-1.44649 1.80557,-0.93674 3.18813,-1.1145 3.92322,-0.50442 0.62432,0.51813 1.43783,0.63935 1.80781,0.26938 0.36998,-0.36998 1.50728,-0.73418 2.52733,-0.80933 1.54847,-0.11408 1.96275,0.81899 2.50956,5.65217 0.36021,3.18384 0.4088,6.18705 0.10797,6.6738 -0.60178,0.9737 -18.84196,1.28748 -19.78901,0.34043 z M 5.3876841,74.150325 c 0.3380587,-2.045249 0.6195633,-4.77471 0.6255658,-6.06547 0.00863,-1.856144 0.4253832,-2.23845 1.9931973,-1.828457 1.0902561,0.285108 2.1949938,0.174207 2.4549718,-0.246447 0.650349,-1.052286 5.488977,-0.427399 6.79376,0.877383 0.585897,0.585897 2.490104,1.065268 4.231571,1.065268 3.523812,0 4.370127,1.263961 4.370127,6.526735 v 3.389621 H 15.314954 4.7730319 Z m 26.4190069,2.23118 c 0,-1.156908 1.322181,-1.487454 5.949814,-1.487454 4.627633,0 5.949814,0.330546 5.949814,1.487454 0,1.156908 -1.322181,1.487453 -5.949814,1.487453 -4.627633,0 -5.949814,-0.330545 -5.949814,-1.487453 z m 22.807621,0 c 0,-1.156908 1.322181,-1.487454 5.949814,-1.487454 4.627633,0 5.949814,0.330546 5.949814,1.487454 0,1.156908 -1.322181,1.487453 -5.949814,1.487453 -4.627633,0 -5.949814,-0.330545 -5.949814,-1.487453 z m 22.059963,0.247909 c 0.2534,-0.767505 2.739475,-1.351972 6.528268,-1.534772 4.989049,-0.240709 6.119018,-0.01181 6.119018,1.239545 0,1.229852 -1.297,1.534771 -6.528269,1.534771 -4.779791,0 -6.418658,-0.331989 -6.119017,-1.239544 z m 89.994865,-0.247909 c 0,-1.153908 1.3104,-1.487454 5.84372,-1.487454 4.27965,0 5.9965,0.398119 6.41451,1.487454 0.47112,1.227708 -0.54934,1.487453 -5.84372,1.487453 -5.04069,0 -6.41451,-0.318572 -6.41451,-1.487453 z m 22.80762,0 c 0,-1.156908 1.32219,-1.487454 5.94982,-1.487454 4.62763,0 5.94981,0.330546 5.94981,1.487454 0,1.156908 -1.32218,1.487453 -5.94981,1.487453 -4.62763,0 -5.94982,-0.330545 -5.94982,-1.487453 z m 40.65707,-1.902168 c 0,-5.318316 0.83501,-6.526735 4.50993,-6.526735 1.81836,0 3.60592,-0.485112 3.97236,-1.078025 0.36644,-0.592914 1.50792,-0.857925 2.53663,-0.588913 1.0287,0.269012 2.08308,0.144941 2.34305,-0.275713 0.43812,-0.708893 5.26252,-0.604122 5.96679,0.129581 0.17191,0.179089 0.63016,2.891473 1.01833,6.027521 l 0.70578,5.701905 h -10.52644 -10.52643 z"
       id="path28" /><path
       style="fill:#2a672a"
       d="m 31.806691,248.92611 c 0,-1.1569 1.322181,-1.48745 5.949814,-1.48745 4.627633,0 5.949814,0.33055 5.949814,1.48745 0,1.15691 -1.322181,1.48746 -5.949814,1.48746 -4.627633,0 -5.949814,-0.33055 -5.949814,-1.48746 z m 22.807621,0 c 0,-1.1569 1.322181,-1.48745 5.949814,-1.48745 4.627633,0 5.949814,0.33055 5.949814,1.48745 0,1.15691 -1.322181,1.48746 -5.949814,1.48746 -4.627633,0 -5.949814,-0.33055 -5.949814,-1.48746 z m 22.059963,0.24791 c 0.2534,-0.7675 2.739475,-1.35197 6.528268,-1.53477 4.989049,-0.24071 6.119018,-0.0118 6.119018,1.23955 0,1.22985 -1.297,1.53477 -6.528269,1.53477 -4.779791,0 -6.418658,-0.33199 -6.119017,-1.23955 z M 31.806691,163.14963 c 0,-1.76291 0.661091,-1.98327 5.949814,-1.98327 5.288724,0 5.949814,0.22036 5.949814,1.98327 0,1.7629 -0.66109,1.98327 -5.949814,1.98327 -5.288723,0 -5.949814,-0.22037 -5.949814,-1.98327 z m 22.807621,0 c 0,-1.76291 0.66109,-1.98327 5.949814,-1.98327 5.288724,0 5.949814,0.22036 5.949814,1.98327 0,1.7629 -0.66109,1.98327 -5.949814,1.98327 -5.288724,0 -5.949814,-0.22037 -5.949814,-1.98327 z m 22.340773,1.03851 c -1.293136,-2.09234 0.720873,-3.02178 6.547896,-3.02178 5.144723,0 5.918634,0.23838 5.633745,1.73536 -0.259738,1.36481 -1.527032,1.79831 -5.935031,2.03015 -3.163251,0.16637 -5.884367,-0.15761 -6.24661,-0.74373 z m 22.282832,-1.03851 c 0,-1.76291 0.661091,-1.98327 5.949813,-1.98327 5.28873,0 5.94982,0.22036 5.94982,1.98327 0,1.7629 -0.66109,1.98327 -5.94982,1.98327 -5.288722,0 -5.949813,-0.22037 -5.949813,-1.98327 z m 22.807623,0 c 0,-1.76291 0.66109,-1.98327 5.94981,-1.98327 5.28873,0 5.94982,0.22036 5.94982,1.98327 0,1.7629 -0.66109,1.98327 -5.94982,1.98327 -5.28872,0 -5.94981,-0.22037 -5.94981,-1.98327 z m 22.80762,0 c 0,-1.76291 0.66109,-1.98327 5.94981,-1.98327 5.28873,0 5.94982,0.22036 5.94982,1.98327 0,1.7629 -0.66109,1.98327 -5.94982,1.98327 -5.28872,0 -5.94981,-0.22037 -5.94981,-1.98327 z m 21.81598,0 c 0,-1.75891 0.66109,-1.98327 5.84372,-1.98327 4.12798,0 6.00206,0.41262 6.38302,1.40538 0.70569,1.83899 -1.36669,2.56116 -7.34966,2.56116 -4.21599,0 -4.87708,-0.26884 -4.87708,-1.98327 z M 31.806691,76.381505 c 0,-1.156908 1.322181,-1.487454 5.949814,-1.487454 4.627633,0 5.949814,0.330546 5.949814,1.487454 0,1.156908 -1.322181,1.487453 -5.949814,1.487453 -4.627633,0 -5.949814,-0.330545 -5.949814,-1.487453 z m 22.807621,0 c 0,-1.156908 1.322181,-1.487454 5.949814,-1.487454 4.627633,0 5.949814,0.330546 5.949814,1.487454 0,1.156908 -1.322181,1.487453 -5.949814,1.487453 -4.627633,0 -5.949814,-0.330545 -5.949814,-1.487453 z m 22.059963,0.247909 c 0.2534,-0.767505 2.739475,-1.351972 6.528268,-1.534772 4.989049,-0.240709 6.119018,-0.01181 6.119018,1.239545 0,1.229852 -1.297,1.534771 -6.528269,1.534771 -4.779791,0 -6.418658,-0.331989 -6.119017,-1.239544 z m 89.994865,-0.247909 c 0,-1.153908 1.3104,-1.487454 5.84372,-1.487454 4.27965,0 5.9965,0.398119 6.41451,1.487454 0.47112,1.227708 -0.54934,1.487453 -5.84372,1.487453 -5.04069,0 -6.41451,-0.318572 -6.41451,-1.487453 z m 22.80762,0 c 0,-1.156908 1.32219,-1.487454 5.94982,-1.487454 4.62763,0 5.94981,0.330546 5.94981,1.487454 0,1.156908 -1.32218,1.487453 -5.94981,1.487453 -4.62763,0 -5.94982,-0.330545 -5.94982,-1.487453 z"
       id="path27" /></g></svg>
