<?xml version="1.0" standalone="no"?>
<!DOCTYPE svg PUBLIC "-//W3C//DTD SVG 20010904//EN"
 "http://www.w3.org/TR/2001/REC-SVG-20010904/DTD/svg10.dtd">
<svg version="1.0" xmlns="http://www.w3.org/2000/svg"
 width="256.000000pt" height="256.000000pt" viewBox="0 0 256.000000 256.000000"
 preserveAspectRatio="xMidYMid meet">

<g transform="translate(0.000000,256.000000) scale(0.100000,-0.100000)"
fill="#000000" stroke="none">
<path d="M2125 2398 c-3 -29 -5 -181 -3 -338 l3 -285 65 0 65 0 3 275 c2 151
0 303 -3 338 l-7 62 -58 0 -59 0 -6 -52z"/>
<path d="M46 2398 c-3 -13 -6 -157 -6 -320 l0 -298 105 0 c120 0 122 1 111 75
-7 45 -8 45 -47 45 l-39 0 0 93 c0 52 -3 169 -7 260 l-6 167 -52 0 c-46 0 -53
-3 -59 -22z"/>
<path d="M2397 2253 c-4 -91 -7 -208 -7 -260 l0 -93 -39 0 -38 0 -7 -50 c-4
-28 -4 -55 -1 -60 3 -6 53 -10 111 -10 l104 0 0 304 c0 167 -3 311 -6 320 -5
12 -20 16 -58 16 l-53 0 -6 -167z"/>
<path d="M306 1859 c-15 -77 -13 -79 64 -79 l70 0 0 36 c0 61 -13 74 -74 74
-52 0 -54 -1 -60 -31z"/>
<path d="M536 1859 c-15 -77 -13 -79 64 -79 77 0 79 2 64 79 -6 30 -8 31 -64
31 -56 0 -58 -1 -64 -31z"/>
<path d="M767 1884 c-4 -4 -7 -29 -7 -56 l0 -48 65 0 c74 0 80 5 67 65 l-8 40
-55 3 c-30 2 -58 0 -62 -4z"/>
<path d="M1666 1844 c-3 -25 -3 -50 0 -55 3 -5 34 -9 70 -9 l64 0 0 39 c0 66
-5 71 -70 71 l-57 0 -7 -46z"/>
<path d="M1896 1859 c-15 -77 -13 -79 64 -79 l70 0 0 36 c0 61 -13 74 -74 74
-52 0 -54 -1 -60 -31z"/>
<path d="M1896 1534 c-3 -26 -6 -179 -6 -340 l0 -294 70 0 70 0 0 303 c0 166
-3 319 -6 340 l-7 37 -57 0 -57 0 -7 -46z"/>
<path d="M2126 1543 c-3 -21 -6 -174 -6 -340 l0 -303 70 0 70 0 0 294 c0 161
-3 314 -6 340 l-7 46 -57 0 -57 0 -7 -37z"/>
<path d="M46 1528 c-3 -13 -6 -157 -6 -320 l0 -298 105 0 c120 0 122 1 111 75
-7 45 -8 45 -47 45 l-39 0 0 88 c0 48 -3 165 -7 260 l-6 172 -52 0 c-46 0 -53
-3 -59 -22z"/>
<path d="M2397 1378 c-4 -95 -7 -212 -7 -260 l0 -88 -39 0 -38 0 -7 -50 c-4
-28 -4 -55 -1 -60 3 -6 53 -10 111 -10 l104 0 0 304 c0 167 -3 311 -6 320 -5
12 -20 16 -58 16 l-53 0 -6 -172z"/>
<path d="M306 988 c-3 -13 -6 -35 -6 -50 0 -28 0 -28 70 -28 l70 0 0 34 c0 60
-6 66 -70 66 -51 0 -58 -2 -64 -22z"/>
<path d="M536 988 c-3 -13 -6 -35 -6 -50 0 -28 0 -28 70 -28 70 0 70 0 70 28
0 65 -7 72 -70 72 -51 0 -58 -2 -64 -22z"/>
<path d="M760 960 l0 -50 71 0 72 0 -7 38 c-3 20 -6 43 -6 50 0 8 -20 12 -65
12 l-65 0 0 -50z"/>
<path d="M986 988 c-3 -13 -6 -35 -6 -50 0 -28 0 -28 70 -28 l70 0 0 34 c0 60
-6 66 -70 66 -51 0 -58 -2 -64 -22z"/>
<path d="M1216 988 c-3 -13 -6 -35 -6 -50 0 -28 0 -28 70 -28 70 0 70 0 70 28
0 65 -7 72 -70 72 -51 0 -58 -2 -64 -22z"/>
<path d="M1446 994 c-3 -9 -6 -31 -6 -50 l0 -34 70 0 c70 0 70 0 70 28 0 65
-7 72 -70 72 -44 0 -59 -4 -64 -16z"/>
<path d="M1670 998 c0 -7 -3 -30 -6 -50 l-7 -38 72 0 71 0 0 50 0 50 -65 0
c-45 0 -65 -4 -65 -12z"/>
<path d="M1666 666 c-3 -28 -6 -180 -6 -338 l0 -288 76 0 77 0 -7 73 c-3 39
-6 192 -7 338 l0 266 -63 0 -64 0 -6 -51z"/>
<path d="M1896 666 c-3 -28 -6 -180 -6 -338 l0 -288 70 0 70 0 0 294 c0 161
-3 314 -6 338 l-6 45 -58 0 -58 -1 -6 -50z"/>
<path d="M2126 672 c-3 -25 -6 -177 -6 -338 l0 -294 70 0 70 0 0 288 c0 158
-3 310 -6 338 l-6 51 -58 0 -58 -1 -6 -44z"/>
<path d="M46 658 c-3 -13 -6 -157 -6 -320 l0 -298 105 0 c120 0 122 1 111 75
-7 42 -9 44 -44 47 l-37 3 -6 165 c-3 91 -7 207 -8 258 l-1 92 -54 0 c-47 0
-54 -3 -60 -22z"/>
<path d="M2397 513 c-4 -91 -7 -208 -7 -260 l0 -93 -39 0 -39 0 -7 -50 c-4
-27 -4 -54 0 -60 4 -6 49 -10 111 -10 l104 0 0 304 c0 167 -3 311 -6 320 -5
12 -20 16 -58 16 l-53 0 -6 -167z"/>
<path d="M306 128 c-3 -13 -6 -38 -6 -55 l0 -33 70 0 70 0 0 36 c0 61 -13 74
-74 74 -47 0 -54 -3 -60 -22z"/>
<path d="M536 128 c-3 -13 -6 -38 -6 -55 l0 -33 70 0 c77 0 79 2 64 79 -6 30
-8 31 -64 31 -51 0 -58 -2 -64 -22z"/>
<path d="M767 144 c-4 -4 -7 -29 -7 -56 l0 -48 65 0 c74 0 80 5 67 65 l-8 40
-55 3 c-30 2 -58 0 -62 -4z"/>
</g>
</svg>
