<?xml version="1.0" encoding="UTF-8" standalone="no"?>
<!-- Uploaded to: SVG Repo, www.svgrepo.com, Generator: SVG Repo Mixer Tools -->

<svg
   fill="#000000"
   width="800px"
   height="800px"
   viewBox="0 0 32 32"
   version="1.1"
   id="svg1"
   sodipodi:docname="inkscape.svg"
   inkscape:version="1.4.2 (f4327f4, 2025-05-13)"
   xmlns:inkscape="http://www.inkscape.org/namespaces/inkscape"
   xmlns:sodipodi="http://sodipodi.sourceforge.net/DTD/sodipodi-0.dtd"
   xmlns="http://www.w3.org/2000/svg"
   xmlns:svg="http://www.w3.org/2000/svg">
  <defs
     id="defs1" />
  <sodipodi:namedview
     id="namedview1"
     pagecolor="#ffffff"
     bordercolor="#000000"
     borderopacity="0.25"
     inkscape:showpageshadow="2"
     inkscape:pageopacity="0.0"
     inkscape:pagecheckerboard="0"
     inkscape:deskcolor="#d1d1d1"
     inkscape:zoom="1.00875"
     inkscape:cx="400"
     inkscape:cy="400"
     inkscape:window-width="1920"
     inkscape:window-height="1009"
     inkscape:window-x="-8"
     inkscape:window-y="-8"
     inkscape:window-maximized="1"
     inkscape:current-layer="svg1" />
  <title
     id="title1">inkscape</title>
  <path
     d="M25.431 25.209c-1.263 1.135 0.142 2.284 1.388 1.552 0.277-0.281-0.008-1.27-1.387-1.552zM7.296 27.041c0.98 0.849 2.496-0.211 2.949-1.395-0.95-1.262-4.507 0.046-2.949 1.395zM25.951 24.054c0 0.562 4.141 0.931 4.141-0.132-0.397-0.733-1.16-1.222-2.038-1.222-0.929 0-1.731 0.549-2.097 1.34l-0.006 0.014zM13.233 2.216l-11.072 11.329c-3.74 4.632 2.547 4.094 5.241 5.427 0.967 0.988-3.705 1.718-2.738 2.707 0.966 0.988 5.846 1.904 6.814 2.892 0.966 0.988-1.979 2.037-1.012 3.024 0.966 0.99 3.203 0.052 3.621 2.334 0.297 1.63 4.029 0.7 5.853-0.635 0.967-0.988-1.849-0.896-0.882-1.884 2.403-2.458 4.642-0.892 5.465-3.357 0.406-1.217-3.539-1.876-2.571-2.864 2.782-1.625 12.395-2.682 7.833-7.243l-11.474-11.73c-0.659-0.629-1.554-1.016-2.539-1.016s-1.88 0.387-2.54 1.017l0.001-0.001zM17.641 3.012l4.38 4.449c0.207 0.229 0.333 0.533 0.333 0.868 0 0.226-0.058 0.438-0.159 0.623l0.003-0.007-2.174-1.739-0.427 2.576-1.818-0.959-2.909 1.837-0.963-3.874-1.563 2.704h-2.391c-0.975 0-1.088-1.237-0.204-2.122 1.546-1.668 3.32-3.369 4.285-4.355 0.466-0.453 1.102-0.732 1.804-0.732s1.338 0.279 1.804 0.733l-0.001-0.001zM10.584 19.588c0.296 0.184 4.771 1.093 5.865 1.275 0.379 0.080 0.11 0.47-0.412 0.734-1.178 0.314-6.894-2.008-5.452-2.008z"
     id="path1" />
  <path
     style="fill:#000000;stroke-width:0.991326"
     d="m 379.18216,768.68499 c -8.11546,-1.18776 -18.38729,-6.24264 -21.97944,-10.81634 -1.70354,-2.16902 -3.66164,-6.98043 -5.22361,-12.8353 -4.69061,-17.58232 -11.31169,-26.6054 -24.28561,-33.09598 -6.64379,-3.32376 -10.01719,-4.23176 -37.02678,-9.96637 -17.44115,-3.70305 -26.22598,-8.30467 -31.18209,-16.33361 -4.71499,-7.63833 -1.63646,-15.07302 12.44501,-30.0548 17.03665,-18.12591 20.01584,-22.67585 20.01584,-30.569 0,-7.99255 -5.45868,-13.84563 -19.73297,-21.15872 -12.83026,-6.57326 -23.42908,-10.53001 -69.53118,-25.95732 -44.11829,-14.76346 -60.05615,-20.78875 -72.11619,-27.26344 -26.10599,-14.01554 -22.63098,-21.66286 18.62941,-40.99704 35.17904,-16.48452 42.91867,-23.07041 38.50248,-32.76289 -2.04779,-4.49443 -22.64979,-12.06656 -51.38972,-18.88796 C 78.83006,444.34404 67.016179,440.8599 51.999582,433.12225 31.115199,422.36109 22.814857,407.92483 26.675796,389.07819 28.609294,379.64009 36.855359,363.01314 45.827879,350.4609 50.988157,343.24185 82.64418,310.23336 182.7298,207.70997 337.01964,49.662137 336.55989,50.120336 347.25781,43.73759 c 26.46216,-15.788221 58.47055,-17.34639 85.89207,-4.181227 11.45911,5.501553 16.80989,9.403004 27.64727,20.158615 30.89891,30.665759 291.14262,297.563622 296.03662,303.605962 7.63839,9.43066 14.49779,23.03627 16.48467,32.69731 5.12947,24.94154 -13.25888,47.96968 -54.58561,68.35877 -18.59862,9.17588 -38.88933,16.85011 -89.52527,33.8597 -59.58861,20.01696 -77.78017,27.34985 -82.39061,33.21108 -1.3411,1.70493 -2.08337,4.08468 -2.08337,6.67939 0,3.60839 0.59734,4.60727 5.70013,9.53173 3.57957,3.45449 10.04157,7.89807 17.37017,11.94455 36.95148,20.40278 45.33119,27.38559 45.33119,37.77448 0,5.61105 -8.37956,21.32131 -14.79343,27.73518 -9.03936,9.03937 -16.62907,12.26644 -45.18179,19.21085 -26.54582,6.45631 -40.00723,11.87866 -55.58352,22.38943 -7.9369,5.35576 -20.58862,16.57572 -24.03286,21.31311 -2.87017,3.9478 -3.06467,8.6804 -0.49943,12.15248 1.0854,1.46909 6.84172,5.20837 12.79184,8.30953 11.96815,6.2377 17.26201,10.55171 17.26201,14.06695 0,6.19957 -9.59491,13.99803 -29.32755,23.83655 -33.388,16.64695 -71.61184,25.65571 -94.58818,22.29296 z M 406.5256,537.20081 c 6.21773,-4.12709 9.33561,-8.04282 9.33561,-11.72454 0,-3.47798 -0.97077,-3.80608 -23.79182,-8.0413 -44.56307,-8.27019 -102.50688,-20.84672 -121.61782,-26.39677 -7.38023,-2.14332 -12.21117,-1.90351 -12.21117,0.60616 0,6.6865 48.69903,28.30212 93.18463,41.36103 16.43803,4.82545 31.34819,7.62688 40.97203,7.69809 8.44169,0.0625 8.94564,-0.0625 14.12854,-3.50267 z m 3.4819,-294.12151 c 17.7718,-11.25905 32.93909,-20.70281 33.70508,-20.98615 0.76601,-0.28333 11.42992,4.78631 23.69758,11.26589 14.48719,7.65188 22.51825,11.38406 22.91374,10.64841 0.3349,-0.62293 2.73747,-14.5155 5.33905,-30.87238 2.60159,-16.35688 5.04104,-30.08892 5.42102,-30.51567 0.37996,-0.42674 12.69858,8.83788 27.3747,20.58803 l 26.68383,21.3639 1.90904,-4.23115 c 1.36513,-3.02566 1.91432,-6.49059 1.92759,-12.16174 0.0341,-14.57934 2.34404,-11.72084 -63.02343,-77.99082 C 463.94255,97.732482 435.75471,69.976938 432.72618,67.927817 421.23753,60.154538 410.65865,57.038353 395.68212,57.015892 c -11.58107,-0.01737 -19.13191,1.711583 -29.3872,6.728927 -6.73975,3.297382 -10.17867,6.326913 -36.77823,32.399875 -28.17438,27.616596 -63.17266,63.078106 -81.57468,82.654356 -15.24167,16.21424 -19.96371,25.80558 -19.28842,39.17831 0.45372,8.98489 3.69573,14.62291 10.07369,17.51859 3.80885,1.72928 6.85962,1.88371 37.35698,1.891 l 33.20942,0.008 18.8328,-32.65273 c 10.35805,-17.95902 19.11438,-32.33941 19.45852,-31.95645 0.34413,0.38298 5.61805,20.99372 11.71981,45.80165 6.10177,24.80793 11.32307,45.90817 11.60288,46.88943 0.62585,2.19476 -2.95978,4.24872 39.09981,-22.39749 z"
     id="path2"
     transform="scale(0.04)" />
  <path
     style="fill:#000000;stroke-width:0.991326"
     d="m 379.19824,768.65657 c -8.77249,-1.32591 -17.26627,-5.31821 -21.27254,-9.99863 -2.39703,-2.80038 -3.99768,-6.40156 -5.91113,-13.29895 -1.4432,-5.20226 -3.91909,-12.02424 -5.50199,-15.15994 -6.01416,-11.91399 -17.97916,-20.03398 -34.9343,-23.70802 -5.07314,-1.09931 -14.48334,-3.12436 -20.91156,-4.50013 -17.46887,-3.73869 -26.23218,-8.33462 -31.18209,-16.35351 -4.72087,-7.64785 -1.71691,-14.87565 12.53968,-30.17157 17.2887,-18.54907 19.92117,-22.57316 19.92117,-30.45223 0,-7.99345 -5.46136,-13.84869 -19.73297,-21.15621 -12.44048,-6.36992 -22.65919,-10.18247 -69.48636,-25.92501 -55.35321,-18.60885 -70.092,-24.55897 -81.5659,-32.9285 -14.66914,-10.70029 -8.37799,-18.31181 30.11798,-36.43908 16.13457,-7.59758 27.31106,-13.73551 31.13427,-17.09836 8.59921,-7.56378 8.4435,-14.53486 -0.42569,-19.05959 -7.67918,-3.91762 -27.04023,-9.85535 -50.14047,-15.37728 C 79.039252,444.40643 66.863866,440.75974 51.999582,433.11438 24.64547,419.04495 19.031731,399.96178 33.655441,370.75589 44.08301,349.93036 46.176781,347.57683 136.80297,254.8116 183.14746,207.37325 246.27014,142.75486 277.07559,111.21515 c 30.80545,-31.539709 58.90954,-59.533629 62.45353,-62.208715 8.55123,-6.454664 15.59077,-10.123479 26.31977,-13.717133 22.25979,-7.455868 46.02145,-5.949315 67.30099,4.267061 11.57042,5.554995 16.80922,9.399992 28.14077,20.653828 31.72348,31.505919 290.61799,297.029389 295.54338,303.110749 3.31193,4.08922 8.03253,11.44982 10.49021,16.35688 11.50459,22.97029 8.79451,39.75519 -9.38293,58.11333 -10.00067,10.10007 -22.03247,18.2012 -40.22136,27.08142 -19.12322,9.33637 -36.13709,15.76601 -86.57656,32.71776 -61.42752,20.64462 -79.70551,27.98291 -84.32425,33.85468 -1.34747,1.71303 -2.08556,4.08576 -2.08556,6.7044 0,3.65434 0.56912,4.59198 5.78546,9.53174 3.52503,3.33812 10.59362,8.15651 18.0917,12.33243 36.66246,20.41847 44.52433,27.01607 44.52433,37.36437 0,5.61381 -8.37961,21.32136 -14.79909,27.74084 -9.0208,9.0208 -17.46434,12.56956 -46.91862,19.71953 -19.04269,4.6226 -27.70752,7.55511 -38.894,13.16323 -12.21026,6.12138 -21.9434,13.11821 -31.97813,22.988 -8.60219,8.46081 -9.16977,9.27014 -9.16977,13.07561 0,5.88458 2.50451,8.36374 14.80595,14.65608 11.63084,5.94932 16.91648,10.28776 16.91648,13.885 0,6.12852 -9.59868,13.93026 -29.24411,23.76936 -33.10181,16.57855 -71.92355,25.71679 -94.65554,22.28097 z M 404.04593,538.7445 c 6.15882,-3.142 11.81528,-9.30214 11.81528,-12.86736 0,-3.861 -0.93975,-4.23296 -18.83519,-7.45482 -35.85258,-6.45482 -105.60699,-21.47279 -124.65552,-26.83805 -13.46571,-3.7928 -18.09269,-1.81028 -10.45958,4.48157 7.44706,6.13849 38.24504,19.87629 65.72229,29.31619 40.01191,13.74621 66.56031,18.38879 76.41272,13.36247 z m 4.04821,-294.54679 c 18.90034,-11.90342 34.95982,-21.86216 35.68773,-22.13054 0.7279,-0.26839 10.63069,4.40111 22.0062,10.37666 23.06789,12.11754 23.98208,12.51317 24.68457,10.68248 0.27324,-0.71202 2.61506,-14.44279 5.20407,-30.51281 2.589,-16.07002 5.02068,-29.56782 5.40373,-29.99513 0.38305,-0.42731 12.42452,8.60615 26.75882,20.07435 14.33429,11.4682 26.47584,20.85127 26.98122,20.85127 2.06975,0 4.11412,-7.60759 4.15075,-15.44592 0.0661,-14.153 1.9886,-11.77459 -62.45429,-77.26681 C 465.22207,99.026809 437.50628,71.465834 434.9263,69.584644 422.93467,60.840952 411.13034,57.030545 396.0347,57.030545 c -11.48255,0 -19.55052,1.802767 -29.56391,6.605982 -7.2531,3.479161 -9.67781,5.703729 -51.58877,47.330533 -50.70466,50.36088 -74.30407,75.01467 -79.50427,83.05637 -9.55731,14.77965 -8.9166,33.44734 1.382,40.26578 l 3.98397,2.63768 34.27499,0.25454 34.27497,0.25455 18.82849,-32.67761 c 10.35567,-17.97267 19.10443,-32.36232 19.44168,-31.97697 0.33726,0.38535 5.62653,20.99803 11.75396,45.80596 6.12742,24.80793 11.35131,45.89247 11.60862,46.85454 0.26864,1.00437 0.96513,1.46161 1.63565,1.0738 0.64228,-0.37149 16.6317,-10.41458 35.53206,-22.31799 z"
     id="path3"
     transform="scale(0.04)" />
  <path
     style="fill:#000000;stroke-width:0.991326"
     d="m 379.19824,768.66417 c -8.78237,-1.3378 -17.27009,-5.33027 -21.27254,-10.00623 -2.3978,-2.80129 -3.99781,-6.40203 -5.91388,-13.30886 -3.29715,-11.88523 -6.44585,-18.13296 -12.28417,-24.37459 -8.21989,-8.78773 -15.87389,-12.08711 -38.76429,-16.70998 -27.52026,-5.55791 -35.67071,-9.2181 -41.47873,-18.62712 -4.82318,-7.81359 -1.79099,-14.75105 13.73353,-31.42139 14.35727,-15.41693 17.94561,-20.76342 18.51093,-27.58049 0.53712,-6.47685 -1.14852,-10.06842 -6.95534,-14.81974 -10.82056,-8.8537 -24.80448,-14.62785 -82.0476,-33.87859 -23.17225,-7.79278 -46.72321,-16.00215 -52.33546,-18.24305 -26.40747,-10.54415 -38.13589,-19.04455 -36.31066,-26.31686 1.47623,-5.88177 13.46263,-13.90039 37.09717,-24.81715 32.28547,-14.91261 42.32793,-24.05688 35.68894,-32.49698 -4.19771,-5.33654 -22.72248,-11.35832 -69.18549,-22.48989 C 68.757181,441.8522 50.614301,435.07288 37.941252,423.77758 23.190536,410.63047 21.869984,394.29333 33.655441,370.75589 43.311261,351.47166 49.137712,344.49841 93.706847,298.88476 116.34846,275.71252 173.20919,217.4969 220.06403,169.51673 334.98405,51.836604 335.66067,51.162453 344.77466,45.261779 359.86153,35.494096 375.467,30.944613 394.05204,30.895891 c 14.86455,-0.03897 25.63194,2.275805 38.38465,8.251931 16.67204,7.812778 14.35882,5.594759 140.09981,134.334208 37.27711,38.16605 86.53987,88.57497 109.47279,112.01983 80.57271,82.37137 79.10628,80.74282 86.25016,95.78581 10.39895,21.89722 7.33521,38.67465 -10.31814,56.50348 -9.98987,10.08916 -22.00992,18.18761 -40.22136,27.09891 -18.98714,9.29088 -36.5484,15.92643 -86.74102,32.77524 -60.18426,20.20284 -79.65326,28.05059 -84.32587,33.99086 -2.94873,3.74871 -2.50224,8.94471 1.14928,13.37464 3.89187,4.72152 10.72935,9.35146 28.15801,19.06694 18.52999,10.32942 26.21978,15.46743 31.14298,20.80846 7.54495,8.18531 7.77462,12.16316 1.45261,25.15882 -7.39433,15.19991 -16.75975,23.076 -34.08258,28.66261 -3.54399,1.14293 -13.90578,3.88946 -23.02618,6.10339 -9.12041,2.21393 -20.27283,5.38527 -24.78315,7.04742 -18.0893,6.66632 -35.73733,18.08307 -48.59712,31.43812 -6.09381,6.32851 -6.69145,7.32066 -6.69145,11.10878 0,5.45236 2.89087,8.15752 15.80819,14.7927 10.7165,5.50469 15.91424,9.87739 15.91424,13.3882 0,6.12852 -9.59868,13.93026 -29.24411,23.76936 -33.24932,16.65242 -71.90345,25.75432 -94.65554,22.28857 z m 24.06614,-229.53305 c 10.4418,-5.39967 16.19721,-14.89347 10.36635,-17.09975 -1.22676,-0.46419 -12.04461,-2.70541 -24.03965,-4.98049 -34.66814,-6.57545 -81.39151,-16.5386 -105.37441,-22.46973 -21.29474,-5.26631 -25.97627,-5.78696 -25.97627,-2.88888 0,8.68121 78.66232,40.03177 119.45477,47.60823 10.21353,1.89697 21.72072,1.82075 25.56921,-0.16938 z m 6.41583,-295.94733 c 17.04653,-10.77222 31.88343,-20.06203 32.97087,-20.64401 1.6575,-0.88706 5.59933,0.81298 24.37999,10.51471 13.8735,7.16677 22.65021,11.17256 23.05261,10.52147 0.35738,-0.57826 2.82606,-14.35547 5.48594,-30.61602 2.65988,-16.26056 5.14049,-29.9101 5.51245,-30.33231 0.37197,-0.42221 12.43913,8.61977 26.81592,20.09328 14.3768,11.47352 26.61127,20.70676 27.18773,20.51832 1.94496,-0.6358 3.77073,-8.07431 3.83138,-15.60974 0.0471,-5.84787 -0.43321,-8.50763 -2.19249,-12.14181 -3.00962,-6.21703 -18.42058,-22.56177 -75.11718,-79.66864 -47.22613,-47.567861 -47.43879,-47.765109 -55.83296,-51.786925 -11.16944,-5.351502 -18.29116,-7.0339 -29.70022,-7.016223 -15.43098,0.02391 -27.77524,4.060815 -39.07514,12.778631 -6.08805,4.696893 -103.25099,102.223787 -113.3014,113.725807 -8.19956,9.38384 -11.44965,14.65823 -13.62538,22.11189 -3.7635,12.89306 -0.36611,25.05127 8.24963,29.52281 4.30102,2.23221 4.88766,2.26719 37.67039,2.24561 l 33.30133,-0.0219 18.82849,-32.649 c 10.35567,-17.95693 19.1044,-32.3337 19.44161,-31.94835 0.33722,0.38535 5.8602,21.78091 12.27331,47.5457 l 11.66018,46.84506 3.59462,-2.20126 c 1.97703,-1.21069 17.54178,-11.0149 34.58832,-21.78711 z"
     id="path4"
     transform="scale(0.04)" />
  <path
     style="fill:#ffffff;stroke-width:0.991326;fill-opacity:1"
     d="m 379.19824,768.60247 c -8.70368,-1.24225 -17.23917,-5.23244 -21.27254,-9.94453 -2.3978,-2.80129 -3.99781,-6.40203 -5.91388,-13.30886 -3.28187,-11.83012 -6.44474,-18.13177 -12.17567,-24.25859 -8.33972,-8.91585 -15.40134,-11.88068 -41.21637,-17.30478 -18.863,-3.96338 -25.08974,-6.01313 -31.83083,-10.47824 -5.20836,-3.44987 -9.53988,-9.98334 -9.53988,-14.38951 0,-5.25811 4.70035,-12.565 15.86637,-24.66489 14.34992,-15.5501 17.99245,-20.85383 18.58949,-27.06742 0.84974,-8.84339 -3.85993,-14.81524 -17.60332,-22.32096 -10.44041,-5.70183 -26.69901,-11.82961 -71.37546,-26.90096 -23.17225,-7.81702 -46.72321,-16.04229 -52.33546,-18.27837 -26.36516,-10.5046 -38.13652,-19.03328 -36.31066,-26.30809 0.80168,-3.19412 7.41779,-9.2379 14.83788,-13.55432 3.24632,-1.88846 15.49349,-8.14715 27.21592,-13.90823 23.65823,-11.62701 31.13115,-16.99645 32.29593,-23.20531 1.80733,-9.63383 -10.10765,-14.52141 -71.24477,-29.22495 -17.877873,-4.29964 -37.871853,-9.61185 -44.431069,-11.8049 -36.791829,-12.30119 -51.087577,-28.61995 -46.065365,-52.58414 1.592845,-7.60049 7.165507,-20.38415 12.748109,-29.24412 10.103508,-16.03495 13.427493,-19.50817 256.474115,-267.989292 36.7198,-37.540849 44.79708,-44.905274 55.56389,-50.660158 8.46526,-4.5247 22.26386,-8.764895 32.61721,-10.022998 21.6146,-2.626531 44.82531,3.427818 62.9961,16.43208 7.57799,5.423333 36.11908,34.241739 191.42132,193.281258 114.42919,117.18288 115.64867,118.44957 120.91928,125.60046 7.83332,10.62783 13.35815,23.21434 14.75859,33.62262 0.81453,6.05361 -1.61058,17.40177 -5.11807,23.94981 -4.01674,7.49873 -18.03312,21.24307 -28.93686,28.37524 -21.03828,13.76119 -44.10425,23.34059 -107.91332,44.81688 -75.07268,25.26731 -87.49243,30.93577 -87.48163,39.9273 0.009,7.2997 6.77893,13.18235 30.41289,26.42597 19.48592,10.91921 27.01167,15.93487 31.95315,21.29573 7.54495,8.18531 7.77462,12.16316 1.45261,25.15882 -9.13891,18.7861 -19.08514,25.27816 -50.93512,33.24616 -10.08674,2.52343 -21.9083,5.72509 -26.27014,7.11481 -19.15021,6.10144 -36.11334,16.34898 -50.77947,30.67626 -8.65221,8.45231 -9.19575,9.22418 -9.19575,13.05881 0,5.50788 3.2469,8.60469 15.76169,15.03309 10.46165,5.37378 15.96074,9.89146 15.96074,13.11225 0,5.60571 -4.61747,10.16359 -18.68234,18.4412 -24.27451,14.28631 -56.05539,25.03843 -82.64166,27.95935 -10.90272,1.19784 -13.53646,1.18565 -22.57565,-0.10448 z m 24.20625,-229.83401 c 6.96078,-3.45379 12.45672,-9.39504 12.45672,-13.46605 0,-2.97592 -2.1492,-3.6455 -26.76579,-8.33891 -33.27666,-6.34455 -80.6448,-16.42468 -104.71072,-22.28289 -21.29448,-5.18356 -26.1443,-5.71661 -26.1443,-2.87356 0,6.22331 50.58924,28.61094 91.61028,40.54097 28.23966,8.21286 45.71815,10.30831 53.55381,6.42044 z m 3.67677,-294.00162 c 18.34326,-11.57189 34.2926,-21.5435 35.44297,-22.15917 1.80791,-0.96756 5.14349,0.44941 24.59343,10.44748 20.31428,10.44236 22.57422,11.38555 23.2463,9.70195 0.40944,-1.0257 2.83984,-14.80171 5.40088,-30.61336 2.56104,-15.81165 4.95006,-29.08668 5.30895,-29.50008 0.35888,-0.41339 12.44811,8.60941 26.86496,20.05067 14.41683,11.44127 26.62233,20.67633 27.12332,20.52235 1.7925,-0.55091 3.65563,-8.2229 3.69934,-15.23321 0.0885,-14.18873 -0.7175,-15.14634 -79.63263,-94.61384 -43.79971,-44.106279 -45.13252,-45.342965 -53.06992,-49.242707 -11.49743,-5.648826 -20.79246,-7.526679 -33.89309,-6.847346 -11.32953,0.587492 -17.55332,2.309749 -28.12641,7.783187 -5.24686,2.716173 -14.11953,11.145487 -59.26381,56.302506 -29.2012,29.20945 -56.58955,57.12296 -60.86298,62.03002 -4.86563,5.58706 -9.10549,11.701 -11.34309,16.35688 -3.23999,6.74163 -3.5732,8.2207 -3.5732,15.86121 0,9.8123 2.12085,14.71414 8.15665,18.85223 l 3.59003,2.46128 34.27536,0.25856 34.27536,0.25855 18.81813,-32.69197 c 10.34997,-17.98059 19.0987,-32.37203 19.44161,-31.98099 0.34292,0.39104 5.86839,21.78257 12.27883,47.53671 8.00278,32.15143 12.00669,46.6178 12.77648,46.16229 0.61663,-0.36488 16.12926,-10.13131 34.47253,-21.7032 z"
     id="path5"
     transform="scale(0.04)" />
  <path
     style="fill:#ffffff;fill-opacity:1;stroke-width:0.991326"
     d="m 679.5539,612.59269 c -17.30702,-2.4431 -28.93124,-6.73606 -29.53288,-10.90684 -0.41959,-2.90874 8.84743,-15.58285 14.88101,-20.35213 11.0155,-8.70724 23.13839,-13.04435 36.46104,-13.04435 18.87005,0 36.6531,9.50039 47.51388,25.38375 3.23187,4.72644 3.26749,4.89292 1.73461,8.10739 -3.89601,8.17002 -19.45149,12.37146 -45.28318,12.23071 -8.99629,-0.049 -20.5948,-0.68736 -25.77448,-1.41853 z"
     id="path6"
     transform="scale(0.04)" />
  <path
     style="fill:#ffffff;fill-opacity:1;stroke-width:0.991326"
     d="m 196.51496,682.48199 c -11.85266,-2.9239 -23.48505,-14.68551 -23.48505,-23.74593 0,-7.2717 8.8692,-17.36597 19.83356,-22.57311 20.71842,-9.83949 44.45667,-9.41589 58.60687,1.0458 3.80736,2.81491 4.06992,4.20993 1.68356,8.94525 -11.91541,23.64413 -38.62078,40.77285 -56.63894,36.32799 z"
     id="path7"
     transform="scale(0.04)" />
  <path
     style="fill:#ffffff;fill-opacity:1;stroke-width:0.991326"
     d="m 643.60294,673.51866 c -8.18972,-1.92948 -16.25203,-8.18506 -18.63837,-14.4616 -2.58046,-6.78712 0.2418,-16.19474 7.37416,-24.58076 l 3.34893,-3.93759 5.82408,1.8266 c 12.47543,3.91265 21.59604,9.93787 26.32068,17.38785 6.51291,10.2698 5.86954,17.16015 -1.93403,20.71307 -8.39892,3.82398 -15.11677,4.74371 -22.29545,3.05243 z"
     id="path8"
     transform="scale(0.04)" />
</svg>
