<!DOCTYPE svg PUBLIC "-//W3C//DTD SVG 1.1//EN" "http://www.w3.org/Graphics/SVG/1.1/DTD/svg11.dtd">
<!-- Uploaded to: SVG Repo, www.svgrepo.com, Transformed by: SVG Repo Mixer Tools -->
<svg fill="#ffffff" width="800px" height="800px" viewBox="0 0 24 24" role="img" xmlns="http://www.w3.org/2000/svg">
<g id="SVGRepo_bgCarrier" stroke-width="0"/>
<g id="SVGRepo_tracerCarrier" stroke-linecap="round" stroke-linejoin="round"/>
<g id="SVGRepo_iconCarrier">
<title>LibreOffice icon</title>
<path d="M16.365 0a.597.597 0 00-.555.352.582.582 0 00.128.635l4.985 4.996a.605.605 0 00.635.133.59.59 0 00.363-.53V.577A.605.605 0 0021.335 0zM2.661 0a.59.59 0 00-.582.59v22.82a.59.59 0 00.582.59h18.67a.59.59 0 00.59-.59V8.716a.59.59 0 00-.17-.42L13.674.182a.59.59 0 00-.42-.181zm.59 1.184h9.754l7.733 7.77v13.863H3.251z"/>
</g>
</svg>