<?xml version="1.0" encoding="UTF-8" standalone="no"?>
<!-- Uploaded to: SVG Repo, www.svgrepo.com, Generator: SVG Repo Mixer Tools -->

<svg
   width="800"
   height="554.49353"
   viewBox="-18.458 -22.75 191.151 132.49"
   version="1.1"
   id="svg5"
   sodipodi:docname="mysql.svg"
   inkscape:version="1.4.2 (f4327f4, 2025-05-13)"
   xmlns:inkscape="http://www.inkscape.org/namespaces/inkscape"
   xmlns:sodipodi="http://sodipodi.sourceforge.net/DTD/sodipodi-0.dtd"
   xmlns="http://www.w3.org/2000/svg"
   xmlns:svg="http://www.w3.org/2000/svg">
  <defs
     id="defs5" />
  <sodipodi:namedview
     id="namedview5"
     pagecolor="#ffffff"
     bordercolor="#000000"
     borderopacity="0.25"
     inkscape:showpageshadow="2"
     inkscape:pageopacity="0.0"
     inkscape:pagecheckerboard="0"
     inkscape:deskcolor="#d1d1d1"
     inkscape:zoom="1.00875"
     inkscape:cx="400"
     inkscape:cy="302.85006"
     inkscape:window-width="1920"
     inkscape:window-height="1009"
     inkscape:window-x="-8"
     inkscape:window-y="-8"
     inkscape:window-maximized="1"
     inkscape:current-layer="svg5" />
  <path
     d="M -54.935393,-57.095594 H 213.90772 V 134.84781 H -54.935393 Z"
     fill="none"
     id="path1"
     style="stroke-width:1.42745" />
  <path
     d="M 27.358438,97.923808 H 20.080091 C 19.822712,85.269075 19.113866,73.37203 17.954955,62.223987 h -0.0647 L 6.8088893,97.923808 H 1.2675009 L -9.7477634,62.223987 h -0.063296 c -0.8171426,10.703282 -1.3319016,22.603222 -1.5456816,35.699821 h -6.634194 c 0.427558,-15.925986 1.502081,-30.856687 3.219349,-44.793557 h 9.0209293 L 4.7484446,86.04415 h 0.064689 L 15.376936,53.130251 h 8.631344 c 1.89026,16.32439 3.006976,31.256542 3.350149,44.793557 M 58.923252,64.875177 c -2.963378,16.564881 -6.873289,28.601003 -11.725521,36.114173 -3.780519,5.78335 -7.922496,8.67793 -12.432962,8.67793 -1.202508,0 -2.686306,-0.37376 -4.444363,-1.11553 v -3.99417 c 0.859338,0.1275 1.867759,0.19993 3.026669,0.19993 2.10685,0 3.800211,-0.59688 5.091327,-1.79354 1.544273,-1.45743 2.316412,-3.095954 2.316412,-4.908325 0,-1.243018 -0.601959,-3.784108 -1.803061,-7.631958 L 30.964558,64.873729 h 7.15036 l 5.732664,19.108866 c 1.288302,4.338972 1.825563,7.368286 1.610377,9.093733 3.134964,-8.624343 5.324798,-18.028106 6.572313,-28.204048 h 6.89298 z"
     fill="#5d87a1"
     id="path2"
     style="stroke-width:1.42745" />
  <path
     d="M 155.80613,97.923808 H 135.13141 V 53.130251 h 6.95487 v 39.279658 h 13.71985 z m -26.08671,1.082209 -7.99423,-4.063712 c 0.70885,-0.59978 1.38676,-1.248815 1.99715,-2.000709 3.39798,-4.111521 5.09273,-10.191879 5.09273,-18.245418 0,-14.819149 -5.64545,-22.232345 -16.9406,-22.232345 -5.53858,0 -9.85918,1.880462 -12.949141,5.642837 -3.395164,4.114418 -5.089929,10.173045 -5.089929,18.183123 0,7.873893 1.502096,13.650016 4.507654,17.313876 2.749606,3.319061 6.894406,4.980764 12.437186,4.980764 2.06747,0 3.96476,-0.260773 5.6933,-0.786665 l 10.40766,6.241162 z M 103.82257,88.960462 c -1.76088,-2.917761 -2.64131,-7.602982 -2.64131,-14.062909 0,-11.278431 3.32626,-16.924166 9.98575,-16.924166 3.48096,0 6.03224,1.350224 7.66372,4.044878 1.75804,2.922106 2.64273,7.565315 2.64273,13.93542 0,11.37115 -3.32908,17.057451 -9.98436,17.057451 -3.48237,0.0015 -6.03365,-1.344431 -7.66653,-4.050674 M 90.804518,85.508117 c 0,3.798593 -1.353005,6.91483 -4.056188,9.355956 -2.705996,2.430983 -6.33462,3.649373 -10.88165,3.649373 -4.253087,0 -8.376781,-1.399482 -12.368267,-4.183959 l 1.869163,-3.846401 c 3.434536,1.771808 6.544182,2.652641 9.335973,2.652641 2.620204,0 4.667986,-0.59833 6.15319,-1.784846 1.4838,-1.190863 2.368453,-2.861259 2.368453,-4.973521 0,-2.661333 -1.801654,-4.935852 -5.106798,-6.840944 -3.047762,-1.724 -9.143289,-5.328463 -9.143289,-5.328463 -3.303736,-2.48024 -4.957715,-5.143022 -4.957715,-9.529805 0,-3.630538 1.233451,-6.561336 3.701761,-8.790947 2.471122,-2.238301 5.659529,-3.353829 9.568036,-3.353829 4.036493,0 7.705907,1.11408 11.011043,3.31906 l -1.67648,3.84785 c -2.826949,-1.237222 -5.617332,-1.855833 -8.369745,-1.855833 -2.229211,0 -3.950699,0.551969 -5.147582,1.660255 -1.206729,1.103938 -1.950738,2.516458 -1.950738,4.24915 0,2.648295 1.83963,4.95179 5.234784,6.894547 3.08855,1.726897 9.33597,5.393656 9.33597,5.393656 3.38813,2.475894 5.080079,5.114048 5.080079,9.46606"
     fill="#f8981d"
     id="path3"
     style="stroke-width:1.42745" />
  <path
     d="m 164.53733,38.127111 c -4.20526,-0.110103 -7.46117,0.325967 -10.19389,1.51683 -0.78902,0.324518 -2.04358,0.324518 -2.15326,1.351675 0.42614,0.434621 0.47536,1.13581 0.84526,1.735589 0.63008,1.082208 1.72853,2.53819 2.73133,3.297329 1.10123,0.869243 2.20669,1.729794 3.3656,2.487486 2.04355,1.302415 4.35998,2.060105 6.3515,3.358176 1.16032,0.754792 2.31359,1.731241 3.47532,2.543984 0.57103,0.433174 0.9367,1.135811 1.6779,1.406726 v -0.165155 c -0.37131,-0.486777 -0.4768,-1.190865 -0.84106,-1.732693 L 168.218,52.359522 c -1.5246,-2.109362 -3.41907,-3.950709 -5.46264,-5.463193 -1.68211,-1.193761 -5.36135,-2.81635 -6.04349,-4.812712 l -0.10689,-0.110102 c 1.15609,-0.111556 2.52738,-0.543277 3.62581,-0.875038 1.7876,-0.485327 3.41766,-0.375223 5.25167,-0.860551 0.84387,-0.21731 1.68069,-0.489674 2.52737,-0.75769 v -0.488225 c -0.95075,-0.975002 -1.62867,-2.270174 -2.62864,-3.191572 -2.67505,-2.380278 -5.62297,-4.708401 -8.66933,-6.656955 -1.63147,-1.085104 -3.72987,-1.783397 -5.46684,-2.706244 -0.62587,-0.325966 -1.68069,-0.486775 -2.04918,-1.028605 -0.94232,-1.190864 -1.47256,-2.7584 -2.1561,-4.168021 -1.51895,-2.974262 -2.9943,-6.274488 -4.3051,-9.419701 -0.94795,-2.1093635 -1.5246,-4.2158308 -2.68068,-6.1672817 -5.41481,-9.1994915 -11.29516,-14.7713417 -20.33296,-20.2403293 -1.9423,-1.138709 -4.25308,-1.624037 -6.72139,-2.220918 l -3.94228,-0.214414 c -0.84104,-0.379569 -1.68352,-1.409621 -2.41768,-1.896398 -2.99855,-1.947104 -10.718511,-6.167281 -12.923811,-0.595431 -1.420506,3.521884 2.101229,6.984369 3.310771,8.770665 0.89309,1.2401191 2.050602,2.6511916 2.675061,4.0593652 0.369879,0.9199494 0.473959,1.8963991 0.843869,2.8685026 0.84105,2.3817274 1.62725,5.0314707 2.73272,7.253836 0.57663,1.1329137 1.20531,2.3237771 1.94229,3.3494842 0.42194,0.599778 1.15611,0.864897 1.31644,1.8427956 -0.73276,1.0778611 -0.79043,2.7047964 -1.21095,4.0579174 -1.89026,6.115127 -1.15187,13.690584 1.52739,18.184572 0.83824,1.353121 2.83822,4.331728 5.51327,3.190122 2.36846,-0.973553 1.84384,-4.057917 2.52457,-6.762713 0.15611,-0.653381 0.0535,-1.082209 0.36847,-1.511035 v 0.105758 c 0.73276,1.513931 1.47256,2.972812 2.15188,4.49109 1.63005,2.649742 4.46826,5.411039 6.8325,7.246591 1.25875,0.979348 2.25594,2.65409 3.83255,3.252419 v -0.162258 h -0.1041 c -0.31926,-0.485329 -0.78621,-0.70264 -1.20534,-1.079312 -0.94794,-0.975001 -1.99714,-2.165865 -2.73269,-3.246622 -2.20251,-3.032212 -4.15183,-6.388939 -5.88176,-9.852873 -0.84667,-1.680538 -1.57662,-3.517538 -2.25876,-5.195178 -0.31784,-0.647587 -0.31784,-1.624037 -0.84527,-1.950004 -0.79042,1.189415 -1.9423,2.219469 -2.51894,3.6769 -0.99998,2.331021 -1.10406,5.198076 -1.47535,8.179581 l -0.20676,0.104305 c -1.67366,-0.433171 -2.25592,-2.21657 -2.89163,-3.730501 -1.57383,-3.844953 -1.83823,-10.016582 -0.47257,-14.452621 0.36566,-1.134363 1.94793,-4.7069522 1.31643,-5.7877117 -0.31646,-1.0358477 -1.36848,-1.6254844 -1.94512,-2.4411243 -0.67791,-1.0257072 -1.42051,-2.3237774 -1.89308,-3.4624866 -1.26017,-3.0293121 -1.89448,-6.3860409 -3.25169,-9.4139045 -0.63431,-1.4110715 -1.735562,-2.8714019 -2.627242,-4.1709179 -1.001389,-1.460328 -2.102632,-2.488934 -2.894459,-4.220177 -0.261603,-0.595431 -0.628687,-1.568983 -0.208163,-2.216571 0.102641,-0.434621 0.316463,-0.59688 0.735578,-0.705534 0.680708,-0.592534 2.625828,0.16081 3.307956,0.486775 1.94793,0.811295 3.57658,1.568984 5.20245,2.704795 0.73556,0.543277 1.52459,1.571881 2.4683,1.842796 h 1.10547 c 1.67787,0.376673 3.56955,0.104304 5.14898,0.593983 2.78336,0.921397 5.3051,2.27307 7.56667,3.7319507 6.88173,4.4954374 12.55673,10.8829266 16.38787,18.5119848 0.62869,1.2430169 0.89593,2.3817275 1.46975,3.6783485 1.10687,2.65409 2.47534,5.360334 3.57377,7.957923 1.10406,2.542537 2.15607,5.138677 3.7327,7.250939 0.7862,1.135811 3.94509,1.731243 5.36137,2.326675 1.04778,0.485328 2.67928,0.917051 3.62439,1.512481 1.7876,1.134364 3.56816,2.436781 5.24887,3.684145 0.83682,0.649034 3.46688,2.002157 3.62299,3.085812 M 110.94334,-8.9047477 a 8.1855019,8.4316601 0 0 0 -2.15047,0.2723627 v 0.1086555 h 0.10129 c 0.42335,0.8648974 1.15892,1.464675 1.6835,2.2194686 0.42336,0.8677942 0.79043,1.7283455 1.20533,2.5946902 l 0.10128,-0.107206 c 0.7412,-0.5403794 1.10967,-1.4067253 1.10967,-2.7062445 -0.31926,-0.3824667 -0.36847,-0.7562409 -0.6343,-1.1358109 -0.30941,-0.5418278 -0.99156,-0.8112938 -1.41628,-1.2459156"
     fill="#5d87a1"
     id="path4"
     style="stroke-width:1.42745" />
  <path
     d="m 169.54145,97.916565 h 1.08859 v -5.487823 h -1.63287 l -1.3319,3.74499 -1.44724,-3.74499 h -1.5724 v 5.487823 h 1.02811 v -4.175266 h 0.0577 l 1.51615,4.175266 h 0.78339 l 1.51051,-4.175266 z m -8.76917,0 h 1.15188 v -4.557733 h 1.50771 v -0.931539 h -4.23058 v 0.931539 h 1.56819 z"
     fill="#f8981d"
     id="path5"
     style="stroke-width:1.42745" />
</svg>
