<?xml version="1.0" encoding="UTF-8" standalone="no"?>
<!-- Uploaded to: SVG Repo, www.svgrepo.com, Generator: SVG Repo Mixer Tools -->

<svg
   width="800px"
   height="800px"
   viewBox="0 -182 512 512"
   version="1.1"
   preserveAspectRatio="xMidYMid"
   id="svg18"
   sodipodi:docname="neovim.svg"
   inkscape:version="1.4.2 (f4327f4, 2025-05-13)"
   xmlns:inkscape="http://www.inkscape.org/namespaces/inkscape"
   xmlns:sodipodi="http://sodipodi.sourceforge.net/DTD/sodipodi-0.dtd"
   xmlns="http://www.w3.org/2000/svg"
   xmlns:svg="http://www.w3.org/2000/svg">
  <sodipodi:namedview
     id="namedview18"
     pagecolor="#ffffff"
     bordercolor="#000000"
     borderopacity="0.25"
     inkscape:showpageshadow="2"
     inkscape:pageopacity="0.0"
     inkscape:pagecheckerboard="0"
     inkscape:deskcolor="#d1d1d1"
     inkscape:zoom="0.2521875"
     inkscape:cx="132.83767"
     inkscape:cy="49.566295"
     inkscape:window-width="1920"
     inkscape:window-height="1009"
     inkscape:window-x="-8"
     inkscape:window-y="-8"
     inkscape:window-maximized="1"
     inkscape:current-layer="svg18" />
  <defs
     id="defs6">
    <linearGradient
       x1="33.96351"
       y1="0.26445552"
       x2="33.96351"
       y2="68.109993"
       id="linearGradient-1"
       gradientTransform="scale(0.46153974,2.1666607)"
       gradientUnits="userSpaceOnUse">
      <stop
         stop-color="#16B0ED"
         stop-opacity="0.800235524"
         offset="0%"
         id="stop1" />
      <stop
         stop-color="#0F59B2"
         stop-opacity="0.83700023"
         offset="100%"
         id="stop2" />
    </linearGradient>
    <linearGradient
       x1="225.71561"
       y1="0.27513565"
       x2="225.71561"
       y2="68.810191"
       id="linearGradient-2"
       gradientTransform="scale(0.46628456,2.1446132)"
       gradientUnits="userSpaceOnUse">
      <stop
         stop-color="#7DB643"
         offset="0%"
         id="stop3" />
      <stop
         stop-color="#367533"
         offset="100%"
         id="stop4" />
    </linearGradient>
    <linearGradient
       x1="71.974309"
       y1="0.50365143"
       x2="71.974309"
       y2="124.29329"
       id="linearGradient-3"
       gradientTransform="scale(0.84203823,1.1875945)"
       gradientUnits="userSpaceOnUse">
      <stop
         stop-color="#88C649"
         stop-opacity="0.8"
         offset="0%"
         id="stop5" />
      <stop
         stop-color="#439240"
         stop-opacity="0.84"
         offset="100%"
         id="stop6" />
    </linearGradient>
  </defs>
  <g
     id="g18"
     transform="matrix(3.2665021,0,0,3.2665021,64.671127,-166.2553)">
    <g
       id="g17">
      <g
         id="g9">
        <path
           d="M 0.01880379,32.187787 31.332216,0.57298536 31.332215,147.57124 0.01880379,116.32158 Z"
           fill="url(#linearGradient-1)"
           id="path6"
           style="fill:url(#linearGradient-1)" />
        <path
           d="M 89.483759,32.486269 121.22612,0.59005953 120.5827,147.57124 89.269284,116.32158 Z"
           fill="url(#linearGradient-2)"
           transform="matrix(-1,0,0,1,210.49541,0)"
           id="path7"
           style="fill:url(#linearGradient-2)" />
        <path
           d="M 31.311336,0.59813369 112.72293,124.82919 89.941507,147.61004 8.4873139,23.653966 Z"
           fill="url(#linearGradient-3)"
           id="path8"
           style="fill:url(#linearGradient-3)" />
        <path
           d="M 31.339352,58.219807 31.29605,63.112906 6.1598444,26.003298 8.4873139,23.632316 Z"
           fill-opacity="0.13"
           fill="#000000"
           id="path9" />
      </g>
      <g
         transform="translate(156.57916,20.784844)"
         fill="#444444"
         id="g16">
        <g
           id="g15">
          <g
             transform="translate(0,20.092016)"
             id="g14">
            <path
               d="M 0,65.818674 V 3.7690948 h 3.224929 c 1.0741494,0 1.694328,0.5200939 1.8605359,1.5590346 l 0.5581608,9.3542076 c 2.81189,-3.574554 6.0876733,-6.4544031 9.8298313,-8.6370516 3.740918,-2.1826486 7.907278,-3.2739728 12.4966,-3.2739728 3.389896,0 6.377917,0.5412968 8.961581,1.621396 2.583665,1.0813464 4.723281,2.6403811 6.418849,4.677104 1.695569,2.0379704 2.976858,4.4900194 3.845108,7.3586434 0.86825,2.868624 1.302375,6.111416 1.302375,9.728376 V 65.818674 H 42.606273 V 26.156832 c 0,-5.820811 -1.323461,-10.38317 -3.969143,-13.688324 C 35.990207,9.1633546 31.9392,7.5107779 26.481628,7.5107779 c -4.053487,0 -7.814251,1.0501658 -11.287251,3.1492501 -3.473,2.100331 -6.5738938,4.978933 -9.3026799,8.637052 v 46.521594 z"
               id="path10" />
            <path
               d="m 85.650055,2.7713126 c 3.510329,0 6.758637,0.601299 9.747432,1.8051421 2.987541,1.203843 5.578913,2.9566982 7.772873,5.2598105 2.19395,2.3031128 3.90649,5.1353178 5.14012,8.4966168 1.23238,3.361299 1.84919,7.220569 1.84919,11.577808 0,0.912531 -0.13539,1.534993 -0.40744,1.867388 -0.27205,0.332396 -0.69956,0.497971 -1.28253,0.497971 H 63.459759 v 1.182679 c 0,4.647307 0.542847,8.735643 1.629796,12.262517 1.085695,3.526874 2.632747,6.483572 4.638649,8.870095 2.005902,2.386522 4.429284,4.18046 7.271396,5.384303 2.84086,1.203843 6.017708,1.805142 9.528037,1.805142 3.134223,0 5.850967,-0.342355 8.148979,-1.027064 2.298012,-0.684709 4.2312,-1.452828 5.798314,-2.303112 1.56711,-0.850284 2.81077,-1.618403 3.72972,-2.303112 0.91896,-0.684709 1.58843,-1.027064 2.00591,-1.027064 0.54284,0 0.96157,0.207903 1.25368,0.622463 l 1.6298,1.991881 c -1.00295,1.244925 -2.32935,2.407686 -3.98046,3.485791 -1.65111,1.079351 -3.49027,2.003086 -5.516235,2.76996 -2.027215,0.768119 -4.199858,1.379377 -6.519183,1.836265 -2.319325,0.455643 -4.648678,0.684709 -6.989316,0.684709 -4.262543,0 -8.148979,-0.736996 -11.659308,-2.209743 -3.510329,-1.472747 -6.522944,-3.620243 -9.03659,-6.44249 -2.514901,-2.822246 -4.458119,-6.276915 -5.829655,-10.364005 -1.372789,-4.087091 -2.058557,-8.766766 -2.058557,-14.036536 0,-4.439405 0.636874,-8.5377 1.911876,-12.29364 1.275002,-3.755941 3.11291,-6.992747 5.516232,-9.710419 2.402068,-2.7176731 5.348237,-4.8440059 8.838507,-6.3802441 3.487763,-1.5349932 7.448166,-2.3031123 11.878704,-2.3031123 z m 0.396874,4.1569689 c -3.253225,0 -6.168816,0.4861952 -8.745502,1.4585856 -2.577955,0.9723903 -4.805582,2.3702019 -6.685421,4.1934339 -1.879838,1.823232 -3.400464,4.01111 -4.563146,6.563635 -1.162682,2.552524 -1.931879,5.408921 -2.312671,8.56919 h 41.569691 c 0,-3.241707 -0.46584,-6.147938 -1.39497,-8.721126 -0.9304,-2.571973 -2.23905,-4.750127 -3.928491,-6.533248 C 98.296977,10.676846 96.26863,9.3094224 93.902648,8.3564798 91.537935,7.4047527 88.919362,6.9282815 86.046929,6.9282815 Z"
               id="path11" />
            <path
               d="m 144.48637,2.7713126 c 4.52176,0 8.56928,0.7569147 12.1413,2.2719892 3.57074,1.5150744 6.58229,3.662571 9.03464,6.4424902 2.45109,2.779918 4.32142,6.131258 5.61099,10.052774 1.28958,3.921515 1.93374,8.309878 1.93374,13.165088 0,4.855209 -0.64543,9.233613 -1.93374,13.133964 -1.28957,3.901597 -3.1599,7.241732 -5.61099,10.021651 -2.45235,2.779919 -5.4639,4.917456 -9.03464,6.411367 -3.57202,1.493911 -7.61954,2.240866 -12.1413,2.240866 -4.52303,0 -8.56928,-0.746955 -12.1413,-2.240866 -3.57201,-1.493911 -6.59371,-3.631448 -9.06635,-6.411367 -2.47264,-2.779919 -4.35438,-6.121299 -5.64269,-10.021651 -1.28957,-3.900351 -1.93373,-8.278755 -1.93373,-13.133964 0,-4.85521 0.64416,-9.243573 1.93373,-13.165088 1.28958,-3.921516 3.17005,-7.271611 5.64269,-10.052774 2.47264,-2.7799192 5.49434,-4.9274158 9.06635,-6.4424902 3.57202,-1.5138295 7.61827,-2.2719892 12.1413,-2.2719892 z m -0.34693,59.5832204 c 3.70069,0 6.93241,-0.63626 9.69764,-1.910034 2.76399,-1.273773 5.07146,-3.09989 6.92244,-5.479604 1.84972,-2.379714 3.23171,-5.249148 4.14722,-8.610808 0.91301,-3.360406 1.37201,-7.12787 1.37201,-11.303642 0,-4.133187 -0.45775,-7.89063 -1.37201,-11.272329 -0.91551,-3.381699 -2.2975,-6.272426 -4.14722,-8.673432 -1.84973,-2.399754 -4.15721,-4.247163 -6.92244,-5.5422287 -2.76523,-1.293813 -5.9982,-1.9413457 -9.69764,-1.9413457 -3.69945,0 -6.93366,0.6475327 -9.69765,1.9413457 -2.76523,1.2950657 -5.07271,3.1424747 -6.92243,5.5422287 -1.85097,2.401006 -3.24295,5.291733 -4.17841,8.673432 -0.93546,3.381699 -1.4032,7.139142 -1.4032,11.272329 0,4.17452 0.46774,7.943236 1.4032,11.303642 0.93546,3.36166 2.32744,6.231094 4.17841,8.610808 1.84972,2.379714 4.1572,4.205831 6.92243,5.479604 2.76399,1.273774 5.99695,1.910034 9.69765,1.910034 z"
               id="path12" />
            <path
               d="M 210.32169,64.433018 H 196.43045 L 171.12855,0.69282815 h 12.71296 c 1.11626,0 2.0564,0.26962224 2.82166,0.80762425 0.76402,0.5392445 1.29238,1.2213763 1.58137,2.050123 L 200.5234,37.595043 c 0.70201,1.987998 1.29238,3.934994 1.76741,5.839744 0.47504,1.905994 0.89921,3.810744 1.2713,5.715495 0.37209,-1.904751 0.79503,-3.809501 1.2713,-5.715495 0.47503,-1.90475 1.08525,-3.851746 1.82942,-5.839744 L 219.25177,3.5505754 c 0.28899,-0.8287467 0.80619,-1.5108785 1.55036,-2.050123 0.74417,-0.53800201 1.63222,-0.80762425 2.66662,-0.80762425 h 12.09282 z"
               id="path13" />
            <rect
               x="239.02571"
               y="1.3856562"
               width="15.935047"
               height="63.740189"
               id="rect13" />
            <path
               d="M 265.35318,65.125846 V 1.000013 h 9.43903 c 2.00006,0 3.31135,0.9375122 3.93636,2.8125365 l 1.00004,4.7500617 c 1.12503,-1.2500162 2.30256,-2.3962811 3.53135,-3.4375446 1.22878,-1.0412636 2.54132,-1.9375252 3.93761,-2.6875349 1.39505,-0.7500098 2.89509,-1.3437675 4.50014,-1.78127318 C 293.30151,0.21875284 295.06156,0 296.98036,0 c 4.04012,0 7.36397,1.0937642 9.96905,3.2812926 2.60382,2.1875284 4.55263,5.0938161 5.84392,8.7188634 1.00003,-2.1250278 2.25007,-3.9475514 3.75011,-5.4688212 1.50004,-1.5200197 3.14634,-2.7600358 4.93765,-3.7187983 1.7913,-0.9575124 3.69761,-1.6662716 5.71892,-2.12502757 C 329.22007,0.22875297 331.25137,0 333.29394,0 c 3.54135,0 6.68769,0.54250705 9.43777,1.6250211 2.75008,1.0837641 5.06265,2.6662846 6.93771,4.7500617 1.87505,2.0837771 3.3026,4.6250602 4.28138,7.6250992 0.97877,3.000039 1.47004,6.437583 1.47004,10.312634 v 40.81303 h -15.43921 v -40.81303 c 0,-4.083803 -0.89627,-7.156343 -2.68633,-9.21887 -1.79255,-2.062527 -4.41763,-3.09379 -7.87648,-3.09379 -1.5838,0 -3.05134,0.271253 -4.40513,0.81251 -1.35504,0.542507 -2.54257,1.323768 -3.56385,2.343781 -1.02003,1.021263 -1.82256,2.30253 -2.40632,3.8438 -0.58377,1.54127 -0.87503,3.312543 -0.87503,5.312569 v 40.81303 h -15.49921 v -40.81303 c 0,-4.291306 -0.86502,-7.416347 -2.59383,-9.375122 -1.73005,-1.957525 -4.28137,-2.937538 -7.65647,-2.937538 -2.21007,0 -4.28138,0.552507 -6.21893,1.656271 -1.93881,1.103765 -3.74012,2.615034 -5.40641,4.531309 v 46.93811 z"
               id="path14" />
          </g>
          <rect
             x="239.02571"
             y="0"
             width="15.935047"
             height="13.163734"
             id="rect14" />
        </g>
      </g>
    </g>
  </g>
</svg>
