<?xml version="1.0" standalone="no"?>
<!DOCTYPE svg PUBLIC "-//W3C//DTD SVG 20010904//EN"
 "http://www.w3.org/TR/2001/REC-SVG-20010904/DTD/svg10.dtd">
<svg version="1.0" xmlns="http://www.w3.org/2000/svg"
 width="150.000000pt" height="150.000000pt" viewBox="0 0 150.000000 150.000000"
 preserveAspectRatio="xMidYMid meet">

<g transform="translate(0.000000,150.000000) scale(0.100000,-0.100000)"
fill="#000000" stroke="none">
<path d="M577 1098 l-85 -83 -7 -62 c-23 -215 83 -369 270 -392 58 -7 67 -5
76 10 8 15 4 19 -28 25 -70 12 -119 48 -150 111 -26 53 -28 67 -27 168 0 100
19 208 50 289 13 33 -18 13 -99 -66z"/>
<path d="M1201 835 c-13 -25 -42 -66 -64 -91 l-39 -45 67 5 c93 6 101 15 84
105 -6 39 -15 71 -18 71 -3 0 -17 -20 -30 -45z"/>
<path d="M1076 677 c-16 -12 -9 -13 45 -9 88 6 111 21 33 22 -35 0 -68 -6 -78
-13z"/>
<path d="M872 593 c-7 -2 -17 -13 -22 -23 -8 -15 -6 -17 10 -13 25 7 59 43 39
42 -8 0 -20 -3 -27 -6z"/>
<path d="M1095 580 c-11 -5 -63 -25 -115 -45 -52 -20 -97 -39 -100 -42 -3 -3
20 -3 50 1 l55 6 -60 -16 c-54 -13 -61 -13 -71 1 -15 20 -24 19 -24 -2 1 -41
12 -44 109 -33 68 8 115 7 179 -2 48 -6 101 -12 119 -12 17 -1 30 -3 28 -6 -2
-3 40 -16 92 -28 79 -20 97 -21 104 -10 14 22 5 32 -42 49 -24 9 -55 21 -69
26 -20 9 -29 7 -45 -6 -18 -15 -19 -15 -7 1 11 14 9 17 -15 21 -15 3 -53 6
-83 6 -30 1 -64 3 -75 6 -11 2 -42 4 -69 4 -59 1 -52 12 20 35 43 14 51 20 47
36 -3 11 -6 20 -7 19 0 0 -10 -4 -21 -9z"/>
<path d="M770 526 c0 -2 11 -6 25 -8 13 -3 22 -1 19 3 -5 9 -44 13 -44 5z"/>
<path d="M629 473 c-13 -16 -12 -17 4 -4 16 13 21 21 13 21 -2 0 -10 -8 -17
-17z"/>
<path d="M798 485 c-2 -3 -38 -14 -79 -24 -66 -17 -74 -21 -74 -42 0 -29 10
-29 112 -2 64 16 72 20 67 38 -7 24 -18 37 -26 30z"/>
<path d="M465 409 c-133 -30 -153 -39 -140 -59 7 -11 25 -10 105 7 18 3 12 -3
-20 -23 -25 -15 -81 -55 -124 -88 -67 -51 -76 -61 -60 -68 17 -7 17 -8 -3 -4
-15 3 -35 -11 -73 -49 -47 -47 -51 -55 -40 -74 6 -12 17 -21 25 -19 7 2 51 39
97 83 46 44 104 97 128 118 44 37 232 137 258 137 19 0 11 64 -8 66 -8 1 -73
-11 -145 -27z"/>
</g>
</svg>
