<?xml version='1.0' encoding='UTF-8'?>
<!DOCTYPE svg PUBLIC "-//W3C//DTD SVG 1.1//EN" "http://www.w3.org/Graphics/SVG/1.1/DTD/svg11.dtd">
<!-- Uploaded to: SVG Repo, www.svgrepo.com, Transformed by: SVG Repo Mixer Tools --><svg xmlns="http://www.w3.org/2000/svg" width="32" height="32" viewBox="0 0 48 48" fill="#000000" preserveAspectRatio="xMidYMid meet">

<g id="SVGRepo_bgCarrier" stroke-width="0"/>

<g id="SVGRepo_tracerCarrier" stroke-linecap="round" stroke-linejoin="round"/>

<g id="SVGRepo_iconCarrier">

<defs>

<style>.a{fill:none;stroke:#ffffff;stroke-linecap:round;stroke-linejoin:round;}</style>

</defs>

<path class="a" d="M40.3582,12.5813,26.3627,6.04a5.7381,5.7381,0,0,0-4.8564-.0014L7.643,12.5086a2.2952,2.2952,0,0,0-.0012,4.1591l13.9955,6.5415a5.7377,5.7377,0,0,0,4.8564.0014L40.357,16.74A2.2952,2.2952,0,0,0,40.3582,12.5813Z"/>

<path class="a" d="M13.2267,19.2781,7.643,21.8841a2.2952,2.2952,0,0,0-.0012,4.1591l13.9955,6.5415a5.7377,5.7377,0,0,0,4.8564.0014l13.8633-6.47a2.2952,2.2952,0,0,0,.0012-4.1591l-5.5849-2.61"/>

<path class="a" d="M13.2267,28.6536,7.643,31.26a2.2952,2.2952,0,0,0-.0012,4.1591L21.6373,41.96a5.7381,5.7381,0,0,0,4.8564.0014l13.8633-6.47a2.2952,2.2952,0,0,0,.0012-4.1591l-5.5849-2.61"/>

</g>

</svg>