<?xml version="1.0" encoding="UTF-8" standalone="no"?>
<!-- Uploaded to: SVG Repo, www.svgrepo.com, Generator: SVG Repo Mixer Tools -->

<svg
   width="699.9975"
   height="333.85001"
   viewBox="0 0 27.9999 13.354"
   version="1.1"
   id="svg3"
   sodipodi:docname="php.svg"
   inkscape:version="1.4.2 (f4327f4, 2025-05-13)"
   xmlns:inkscape="http://www.inkscape.org/namespaces/inkscape"
   xmlns:sodipodi="http://sodipodi.sourceforge.net/DTD/sodipodi-0.dtd"
   xmlns="http://www.w3.org/2000/svg"
   xmlns:svg="http://www.w3.org/2000/svg"
   xmlns:rdf="http://www.w3.org/1999/02/22-rdf-syntax-ns#"
   xmlns:cc="http://creativecommons.org/ns#"
   xmlns:dc="http://purl.org/dc/elements/1.1/">
  <defs
     id="defs3" />
  <sodipodi:namedview
     id="namedview3"
     pagecolor="#ffffff"
     bordercolor="#000000"
     borderopacity="0.25"
     inkscape:showpageshadow="2"
     inkscape:pageopacity="0.0"
     inkscape:pagecheckerboard="0"
     inkscape:deskcolor="#d1d1d1"
     inkscape:zoom="0.71329397"
     inkscape:cx="282.49223"
     inkscape:cy="139.49368"
     inkscape:window-width="1920"
     inkscape:window-height="1009"
     inkscape:window-x="-8"
     inkscape:window-y="-8"
     inkscape:window-maximized="1"
     inkscape:current-layer="svg3" />
  <title
     id="title1">file_type_php3</title>
  <path
     d="m 5.6,4.468 a 2.352,2.352 0 0 1 1.745,0.483 1.916,1.916 0 0 1 0.207,1.66 2.78,2.78 0 0 1 -0.918,1.748 3.375,3.375 0 0 1 -2.07,0.529 h -1.4 L 4.024,4.477 Z M 0,13.354 h 2.3 l 0.545,-2.8 H 4.812 A 7.049,7.049 0 0 0 6.956,10.277 4.06,4.06 0 0 0 8.486,9.359 4.585,4.585 0 0 0 9.93,6.777 3.288,3.288 0 0 0 9.38,3.855 3.671,3.671 0 0 0 6.47,2.806 H 2.057 Z"
     style="fill:#8993be"
     id="path1" />
  <path
     d="M 11.617,0 H 13.9 l -0.553,2.8 h 2.031 a 3.956,3.956 0 0 1 2.645,0.669 2.213,2.213 0 0 1 0.436,2.167 l -0.954,4.909 h -2.31 L 16.103,5.878 A 1.267,1.267 0 0 0 15.989,4.792 1.6,1.6 0 0 0 14.845,4.506 H 13.022 L 11.847,10.55 H 9.559 Z"
     style="fill:#8993be"
     id="path2" />
  <path
     d="m 23.539,4.468 a 2.352,2.352 0 0 1 1.745,0.483 1.916,1.916 0 0 1 0.207,1.66 2.78,2.78 0 0 1 -0.918,1.748 3.375,3.375 0 0 1 -2.074,0.529 H 21.1 l 0.858,-4.416 z m -5.6,8.886 h 2.3 l 0.545,-2.8 h 1.968 A 7.049,7.049 0 0 0 24.9,10.277 4.06,4.06 0 0 0 26.43,9.359 4.585,4.585 0 0 0 27.869,6.777 3.288,3.288 0 0 0 27.319,3.855 3.671,3.671 0 0 0 24.41,2.809 h -4.42 z"
     style="fill:#8993be"
     id="path3" />
  <metadata
     id="metadata3">
    <rdf:RDF>
      <cc:Work
         rdf:about="">
        <dc:title>file_type_php3</dc:title>
      </cc:Work>
    </rdf:RDF>
  </metadata>
</svg>
