<?xml version="1.0" encoding="UTF-8" standalone="no"?>
<!-- Uploaded to: SVG Repo, www.svgrepo.com, Generator: SVG Repo Mixer Tools -->

<svg
   fill="#000000"
   width="800px"
   height="800px"
   viewBox="0 0 24 24"
   role="img"
   version="1.1"
   id="svg1"
   sodipodi:docname="retroarch.svg"
   inkscape:version="1.4.2 (f4327f4, 2025-05-13)"
   xmlns:inkscape="http://www.inkscape.org/namespaces/inkscape"
   xmlns:sodipodi="http://sodipodi.sourceforge.net/DTD/sodipodi-0.dtd"
   xmlns="http://www.w3.org/2000/svg"
   xmlns:svg="http://www.w3.org/2000/svg">
  <defs
     id="defs1" />
  <sodipodi:namedview
     id="namedview1"
     pagecolor="#ffffff"
     bordercolor="#000000"
     borderopacity="0.25"
     inkscape:showpageshadow="2"
     inkscape:pageopacity="0.0"
     inkscape:pagecheckerboard="0"
     inkscape:deskcolor="#d1d1d1"
     inkscape:zoom="1.00875"
     inkscape:cx="400"
     inkscape:cy="400"
     inkscape:window-width="1920"
     inkscape:window-height="1009"
     inkscape:window-x="-8"
     inkscape:window-y="-8"
     inkscape:window-maximized="1"
     inkscape:current-layer="svg1" />
  <title
     id="title1">RetroArch icon</title>
  <path
     d="M6.84 5.76L8.4 7.68H5.28l-.72 2.88H2.64l.72-2.88H1.44L0 13.44h3.84l-.48 1.92h3.36L4.2 18.24h2.82l2.34-2.88h5.28l2.34 2.88h2.82l-2.52-2.88h3.36l-.48-1.92H24l-1.44-5.76h-1.92l.72 2.88h-1.92l-.72-2.88H15.6l1.56-1.92h-2.04l-1.68 1.92h-2.88L8.88 5.76zm.24 3.84H9v1.92H7.08zm7.925 0h1.92v1.92h-1.92Z"
     id="path1" />
  <path
     style="fill:#ffffff;stroke-width:0.991326"
     d="m 142.25527,606.75791 c 0,-0.23607 18.47173,-21.53718 41.04829,-47.33581 l 41.0483,-46.90661 -55.98238,-0.25605 c -52.68519,-0.24096 -55.95179,-0.35773 -55.46306,-1.98265 0.82886,-2.75575 15.47028,-61.59751 15.47028,-62.17284 0,-0.28617 -28.716992,-0.52031 -63.815537,-0.52031 H 0.7456224 L 24.656144,351.92069 48.566665,256.25774 h 31.358861 31.358864 l -11.747964,46.84015 c -6.461373,25.76209 -11.760583,47.40387 -11.776019,48.09285 -0.02217,0.98963 6.778476,1.19782 32.382383,0.99133 l 32.41044,-0.26138 11.94106,-47.83147 11.94107,-47.83148 h 51.88972 c 31.45772,0 51.75959,-0.36196 51.55926,-0.91925 -0.29565,-0.82248 -15.67283,-19.92369 -41.45378,-51.49301 l -9.00971,-11.03259 h 33.21723 33.21722 l 27.81261,31.72243 27.81261,31.72242 H 400 448.51948 l 27.81261,-31.72242 27.81261,-31.72243 h 33.26068 33.26067 l -8.32007,10.16109 c -23.48688,28.68391 -42.39555,52.19094 -42.39555,52.70563 0,0.31797 23.3132,0.57813 51.80711,0.57813 h 51.8071 l 11.94107,47.83148 11.94106,47.83147 32.41044,0.26138 c 25.60391,0.20649 32.40455,-0.002 32.38238,-0.99133 -0.0154,-0.68898 -5.31464,-22.33076 -11.77602,-48.09285 l -11.74796,-46.84015 h 31.35887 31.35886 l 23.91052,95.66295 23.91051,95.66295 h -63.81553 c -35.09855,0 -63.81554,0.23414 -63.81554,0.52031 0,0.57533 14.64142,59.41709 15.47028,62.17284 0.48873,1.62492 -2.77787,1.74169 -55.46306,1.98265 l -55.98238,0.25605 41.0483,46.90661 c 22.57656,25.79863 41.04829,47.09974 41.04829,47.33581 0,0.23606 -20.63197,0.42037 -45.84882,0.40956 l -45.84882,-0.0196 -38.5939,-47.56401 -38.59389,-47.564 h -88.82939 -88.8294 l -38.6238,47.57522 -38.6238,47.57523 -45.84882,0.008 c -25.21685,0.005 -45.84882,-0.18473 -45.84882,-0.42079 z M 300.86741,351.92069 V 319.7026 H 268.15366 235.4399 v 32.21809 32.2181 h 32.71376 32.71375 z m 263.69269,0 V 319.7026 h -32.21809 -32.21809 v 32.21809 32.2181 h 32.21809 32.21809 z"
     id="path2"
     transform="scale(0.03)" />
</svg>
