<?xml version="1.0" encoding="UTF-8" standalone="no"?>
<svg
   fill="none"
   height="341.339"
   viewBox="0 0 529.146 341.339"
   width="529.146"
   version="1.1"
   id="svg10"
   sodipodi:docname="zsh.svg"
   inkscape:version="1.4.2 (f4327f4, 2025-05-13)"
   xmlns:inkscape="http://www.inkscape.org/namespaces/inkscape"
   xmlns:sodipodi="http://sodipodi.sourceforge.net/DTD/sodipodi-0.dtd"
   xmlns="http://www.w3.org/2000/svg"
   xmlns:svg="http://www.w3.org/2000/svg">
  <defs
     id="defs10" />
  <sodipodi:namedview
     id="namedview10"
     pagecolor="#ffffff"
     bordercolor="#000000"
     borderopacity="0.25"
     inkscape:showpageshadow="2"
     inkscape:pageopacity="0.0"
     inkscape:pagecheckerboard="0"
     inkscape:deskcolor="#d1d1d1"
     inkscape:zoom="2.3642186"
     inkscape:cx="264.56944"
     inkscape:cy="170.66949"
     inkscape:window-width="1920"
     inkscape:window-height="1009"
     inkscape:window-x="-8"
     inkscape:window-y="-8"
     inkscape:window-maximized="1"
     inkscape:current-layer="svg10" />
  <title
     id="title1">Z shell horizontal colour logo</title>
  <desc
     id="desc1">Unix shell</desc>
  <g
     stroke-linecap="round"
     id="g4">
    <g
       stroke="#f15a24"
       stroke-linejoin="round"
       id="g2">
      <path
         d="m101.043 104.457-58.198 69.311"
         stroke-width="6.26753"
         id="path1" />
      <circle
         cx="57.608"
         cy="119.999"
         r="12.0128"
         stroke-width="9.78818"
         id="circle1" />
      <circle
         cx="86.083"
         cy="158.262"
         r="12.0128"
         stroke-width="9.78818"
         id="circle2" />
      <path
         d="m166.678 172.034h-41.559"
         stroke-width="6.26753"
         id="path2" />
    </g>
    <path
       d="m179.04 327.256h-121.011c-24.362 0-44.111-19.749-44.111-44.111v-225.116c0-24.362 19.749-44.111 44.111-44.111h246.32c24.361 0 44.11 19.749 44.11 44.111v269.227"
       stroke="#000"
       stroke-width="17.8359"
       id="path3" />
    <path
       d="m18.736 75.301 322.381-.001"
       stroke="#000"
       stroke-width="17.8359"
       id="path4" />
  </g>
  <g
     fill="#000"
     id="g10">
    <path
       d="m248.19 327.097c0-2.435-.968-4.771-2.69-6.494-1.723-1.722-4.059-2.689-6.494-2.689-.07 0-.139 0-.209.01h-20.642c-.174 0-.345-.04-.498-.124-.154-.08-.285-.199-.382-.343-.1-.144-.158-.309-.177-.482-.02-.172 0-.347.07-.508l30.191-75.273c.496-1.238.682-2.578.54-3.903s-.607-2.596-1.354-3.7-1.753-2.008-2.93-2.633-2.49-.952-3.823-.952h-31.819c-.181-.01-.359-.03-.542-.03-1.175 0-2.339.231-3.425.681s-2.073 1.109-2.904 1.94c-.832.832-1.491 1.818-1.941 2.904s-.681 2.25-.681 3.426c-.001 1.176.23 2.34.68 3.426.449 1.086 1.109 2.073 1.94 2.904s1.819 1.49 2.905 1.939c1.086.45 2.25.68 3.426.679.141 0 .278-.01.417-.02h16.488c.181 0 .36.05.52.129.16.08.296.208.398.358.101.15.165.323.184.503.02.18 0 .362-.07.53l-26.18 65.382c-.466 1.163-.705 2.405-.705 3.658v8.018c0 2.61 1.037 5.114 2.883 6.96s4.349 2.883 6.96 2.883h30.687c1.206 0 2.399-.237 3.513-.698 1.113-.462 2.125-1.138 2.977-1.99.853-.852 1.529-1.864 1.99-2.978.461-1.113.699-2.307.699-3.512z"
       id="path5" />
    <path
       d="m301.336 252.767c.06-3.494-.264-6.984-.978-10.405-.559-2.883-1.677-5.18-3.353-6.892-1.584-1.802-3.819-3.063-6.707-3.784-2.794-.81-6.381-1.216-10.758-1.216-4.192 0-8.992.406-11.88 1.216-2.615.618-4.994 1.98-6.846 3.919-1.676 1.892-2.887 4.46-3.632 7.703-.746 3.153-1.118 7.162-1.118 12.027 0 4.684.05 8.468.139 11.351.122 2.358.402 4.706.839 7.027.351 1.534.965 2.997 1.816 4.324.802 1.144 1.74 2.188 2.794 3.108 1.464 1.285 3.055 2.417 4.751 3.378 1.863 1.081 3.772 2.117 5.728 3.108 1.956.992 3.819 2.027 5.589 3.108 1.668.937 3.216 2.072 4.611 3.379.552.597 1.066 1.229 1.537 1.891.339.4.603.858.779 1.352.161.441.296.891.404 1.348.154.712.225 1.438.214 2.165.09 1.081.14 2.568.14 4.46.04 2.574-.101 5.147-.419 7.702-.09 1.456-.47 2.88-1.118 4.189-.492.849-1.292 1.478-2.236 1.757-.931.27-4.151.405-5.548.405-1.132.02-2.261-.115-3.354-.405-.88-.397-1.612-1.059-2.095-1.892-.553-1.295-.929-2.659-1.118-4.054-.21-2.242-.303-4.493-.279-6.744-.001-.251-.01-.502-.04-.752h-.06c-.257-1.792-1.155-3.433-2.529-4.619-1.374-1.187-3.132-1.84-4.951-1.84s-3.577.653-4.952 1.84c-1.374 1.186-2.272 2.827-2.529 4.619h-.04c-.03.275-.04.551-.04.827v.19.06.09c.02 1.775.05 3.368.05 4.168 0 5.315.373 9.639 1.118 12.973.838 3.242 2.142 5.81 3.912 7.702 1.833 1.837 4.163 3.104 6.707 3.649 3.246.783 6.58 1.146 9.919 1.081 4.472 0 10.253-.406 13.234-1.217 2.819-.706 5.325-2.321 7.125-4.594 1.863-2.252 3.167-5.36 3.912-9.324.839-4.054 1.258-9.234 1.258-15.54 0-4.595-.14-8.288-.42-11.081-.08-2.345-.507-4.667-1.257-6.892-.542-1.624-1.45-3.103-2.654-4.324-1.218-1.237-2.578-2.325-4.052-3.243-1.35-.849-2.75-1.616-4.192-2.297-1.584-.901-3.26-1.757-5.03-2.568-1.769-.901-3.446-1.802-5.03-2.703-1.405-.865-2.758-1.813-4.052-2.837-.604-.493-1.164-1.035-1.676-1.622-.405-.617-.69-1.305-.839-2.027-.215-1.024-.356-2.063-.419-3.108v-5.135c-.02-1.941.07-3.881.28-5.811.107-1.178.439-2.324.978-3.378.474-.751 1.227-1.286 2.095-1.486.839-.271 3.171-.406 4.475-.406 2.981 0 4.843.856 5.588 2.568.59 1.082.922 2.283.973 3.513.03.984.05 2.263.05 3.604h.05v.05c0 1.998.797 3.914 2.216 5.326 1.419 1.413 3.343 2.206 5.35 2.206 2.006 0 3.931-.793 5.35-2.206 1.419-1.412 2.216-3.328 2.216-5.326 0-.02 0-.04 0-.05 0-1.501 0-2.847 0-3.604z"
       id="path6" />
    <path
       d="m357.275 238.852c0-1.227-.243-2.443-.733-3.568-.49-1.126-1.209-2.137-2.112-2.969-.902-.832-1.968-1.466-3.13-1.863-1.161-.396-2.393-.547-3.616-.44-1.223.106-2.41.466-3.486 1.056-1.076.591-2.017 1.4-2.763 2.375-.745.975-1.28 2.095-1.568 3.288-.289 1.193-.326 2.433-.108 3.641v31.461c0 .522-.207 1.023-.577 1.392-.369.37-.87.577-1.392.577h-10.916c-.522 0-1.023-.207-1.392-.577-.369-.369-.577-.87-.577-1.392v-32.783c0-.03 0-.07 0-.1s0-.07 0-.1c0-2.341-.93-4.587-2.585-6.242-1.656-1.656-3.901-2.586-6.243-2.586-2.341 0-4.586.93-6.242 2.586-1.655 1.655-2.586 3.901-2.586 6.242v.1c.001.03 0 .07 0 .1v88.421l.001.02-.001.02c0 2.341.931 4.587 2.586 6.242 1.656 1.656 3.901 2.586 6.242 2.586 2.342 0 4.587-.93 6.243-2.586 1.655-1.655 2.585-3.901 2.585-6.242v-.02-.02-35.025c0-.522.208-1.023.577-1.392s.87-.577 1.392-.577h10.916c.522 0 1.023.208 1.392.577.37.369.577.87.577 1.392v33.505c-.229 1.269-.176 2.573.155 3.82.332 1.246.933 2.404 1.762 3.392.83.987 1.866 1.78 3.036 2.322 1.171.542 2.446.82 3.735.814h.04.03c1.15 0 2.289-.227 3.352-.667 1.062-.44 2.028-1.085 2.841-1.898s1.458-1.779 1.899-2.842c.44-1.062.666-2.201.666-3.351v-88.561c0-.02 0-.04 0-.06s0-.04 0-.06z"
       id="path7" />
    <path
       d="m475.116 336.056c-1.38 0-2.498-1.119-2.498-2.499v-94.961c0-4.759 3.858-8.617 8.618-8.617 4.759 0 8.618 3.858 8.618 8.617v77.44c0 .918.744 1.663 1.662 1.663h23.452c5.069 0 9.178 4.109 9.178 9.178s-4.109 9.179-9.178 9.179z"
       id="path8" />
    <path
       d="m417.533 336.056c-1.38 0-2.499-1.119-2.499-2.499v-94.961c0-4.759 3.859-8.617 8.618-8.617 4.76 0 8.618 3.858 8.618 8.617v77.44c0 .918.744 1.663 1.663 1.663h23.451c5.069 0 9.179 4.109 9.179 9.178s-4.11 9.179-9.179 9.179z"
       id="path9" />
    <path
       d="m366.76 336.056c-1.88 0-3.404-1.524-3.404-3.404v-99.259c0-1.886 1.529-3.414 3.415-3.414h33.493c4.837 0 8.758 3.921 8.758 8.758 0 4.836-3.921 8.758-8.758 8.758h-17.546c-1.174 0-2.126.951-2.126 2.125v21.844c0 1.157.938 2.094 2.094 2.094h17.578c4.605 0 8.338 3.733 8.338 8.338s-3.733 8.338-8.338 8.338h-17.578c-1.156 0-2.094.937-2.094 2.094v23.256c0 1.168.947 2.115 2.115 2.115h16.997c5.069 0 9.178 4.109 9.178 9.178s-4.109 9.179-9.178 9.179z"
       id="path10" />
  </g>
  <path
     style="fill:#ffffff;stroke-width:0.422973"
     d="M 51.924381,335.58579 C 28.693409,332.88272 9.6934855,314.63873 5.9371496,291.42821 5.3159461,287.58977 5.2640005,276.22281 5.3756331,168.55463 L 5.4986454,49.910782 6.6131082,45.892541 C 9.5630373,35.256451 13.562833,28.154265 20.624608,21.013203 27.77908,13.778402 35.099349,9.6066098 45.892541,6.6131082 L 49.910782,5.4986454 179.12895,5.3796083 c 142.08391,-0.1308892 132.88266,-0.288722 141.35206,2.424667 19.35939,6.2022727 33.79615,23.7102737 36.28056,43.9987887 0.62062,5.068203 0.60642,275.803486 -0.0146,278.039856 -0.24682,0.88885 -1.11438,2.35284 -1.92791,3.25332 -4.05577,4.48925 -11.17699,3.64452 -13.97634,-1.65789 l -0.98416,-1.86417 v -19.09413 c 0,-14.28703 -0.12778,-19.22192 -0.50756,-19.60171 -0.35185,-0.35184 -2.55333,-0.50756 -7.17566,-0.50756 -6.15964,0 -6.70147,0.0624 -7.10594,0.81814 -0.28297,0.52873 -0.43785,7.46258 -0.43785,19.6017 v 18.78356 l -0.98416,1.86417 c -3.63458,6.88447 -13.9867,5.61859 -15.89077,-1.94316 -0.65664,-2.60773 -0.65664,-90.02217 0,-92.6299 1.90407,-7.56175 12.25619,-8.82763 15.89077,-1.94316 l 0.98416,1.86416 v 17.72614 c 0,11.4102 0.15601,18.01764 0.43785,18.54427 0.40447,0.75576 0.9463,0.81814 7.10594,0.81814 4.62233,0 6.82381,-0.15572 7.17566,-0.50757 0.39174,-0.39174 0.50756,-22.06038 0.50756,-94.95737 V 83.960086 H 181.24381 22.629041 l 0.0032,100.984734 c 0.0021,66.89747 0.149578,101.91277 0.436858,103.73406 2.225018,14.10608 12.55645,25.20058 27.053174,29.05129 2.52782,0.67145 7.94608,0.74886 67.252657,0.96078 58.95987,0.21068 64.61239,0.29064 65.77226,0.9305 2.7788,1.53296 4.44122,4.43866 4.44122,7.7627 0,3.52583 -2.84416,7.27977 -6.22728,8.21927 -1.95092,0.54178 -124.772822,0.52504 -129.436744,-0.0176 z M 339.85858,61.848666 c 0,-13.26848 -2.81085,-20.882472 -10.57499,-28.645307 -5.16769,-5.166835 -8.94483,-7.39175 -16.30979,-9.607237 -2.38417,-0.717194 -9.00999,-0.761211 -130.37455,-0.866099 C 57.961873,22.622306 54.636292,22.639995 50.762936,23.431269 39.983791,25.633304 30.729413,32.976308 25.991702,43.086321 c -2.436705,5.199793 -3.350152,9.96266 -3.357105,17.504522 l -0.0056,6.027361 H 181.24381 339.85858 Z"
     id="path11" />
  <path
     style="fill:#ffffff;stroke-width:0.422973"
     d="m 204.12865,334.93726 c -4.42898,-2.20706 -5.76478,-5.62572 -5.43784,-13.91687 l 0.19952,-5.05976 13.40384,-33.36095 c 7.37211,-18.34853 13.34449,-33.67071 13.27195,-34.04931 -0.11622,-0.60661 -1.36573,-0.71347 -10.52188,-0.89984 l -10.38999,-0.21149 -1.78187,-1.1801 c -4.4946,-2.97669 -5.43616,-8.99549 -2.01652,-12.89026 2.68227,-3.05493 2.574,-3.04035 22.65743,-3.05074 17.43563,-0.009 18.0015,0.0164 19.80188,0.8879 2.3715,1.14802 3.9738,3.52527 4.23944,6.28984 0.18886,1.96551 -0.72891,4.40647 -15.34248,40.80576 -12.85536,32.01995 -15.45221,38.82504 -15.01622,39.35037 0.44537,0.53664 2.32556,0.63517 12.12068,0.63517 9.50741,0 11.87548,0.11779 13.16034,0.65464 3.33107,1.39181 5.3294,4.47882 5.35499,8.27236 0.0224,3.32147 -1.66933,6.02928 -4.78318,7.65597 l -2.26237,1.18188 H 223.57583 206.3653 Z"
     id="path12" />
  <path
     style="fill:#ffffff;stroke-width:0.422973"
     d="m 268.16471,335.46317 c -5.97884,-1.15445 -8.77654,-3.08252 -10.99955,-7.58048 -2.06772,-4.18374 -2.84562,-9.34755 -2.66771,-17.70859 0.1174,-5.51714 0.23079,-6.34247 1.01697,-7.40203 3.60317,-4.8561 9.9908,-4.3988 12.76054,0.91356 0.43257,0.82965 0.76731,3.05757 0.95459,6.35338 0.48679,8.56679 1.57884,9.7519 8.69913,9.44049 4.90942,-0.21473 5.816,-0.75446 6.80285,-4.05007 0.9147,-3.05467 1.08363,-15.51331 0.24248,-17.88353 -1.09223,-3.07775 -4.23947,-5.57091 -12.86588,-10.19199 -9.79534,-5.24728 -13.14531,-8.19651 -14.54292,-12.80329 -0.9008,-2.9692 -1.58266,-14.54544 -1.24812,-21.18996 0.71399,-14.18078 3.57926,-19.31802 12.0591,-21.62113 2.147,-0.58312 4.46364,-0.75102 10.57432,-0.76639 8.20888,-0.0206 11.16026,0.4374 14.80753,2.29809 1.89573,0.96714 4.52192,3.81999 5.35758,5.81999 1.15983,2.77587 1.82947,7.72799 1.82947,13.52929 0,5.35242 -0.0713,5.86309 -1.05145,7.53567 -2.05625,3.50873 -6.77511,4.55653 -10.13927,2.25137 -2.33194,-1.59788 -3.13838,-3.50324 -3.55173,-8.39171 -0.27318,-3.23062 -0.57517,-4.5948 -1.20514,-5.44384 -1.18983,-1.60359 -3.57886,-2.31251 -6.9081,-2.04989 -5.85754,0.46206 -6.49895,1.65303 -6.51585,12.09874 -0.0135,8.33993 0.26903,9.25523 3.64311,11.80269 1.24716,0.94161 5.6747,3.50588 9.83899,5.69836 11.21662,5.90551 13.38686,7.86819 14.94746,13.51786 1.03846,3.75946 1.04857,26.00076 0.014,30.76208 -1.94106,8.93295 -5.62609,13.25489 -12.60712,14.78612 -3.57242,0.78357 -15.7133,0.95719 -19.24526,0.27521 z"
     id="path13" />
  <path
     style="fill:#ffffff;stroke-width:0.422973"
     d="m 366.19706,335.76707 c -0.51879,-0.10716 -1.32772,-0.68361 -1.79763,-1.281 -0.84635,-1.07596 -0.85437,-1.56055 -0.85437,-51.59358 v -50.50743 l 1.0382,-1.03821 1.03821,-1.0382 h 18.35201 18.35201 l 1.86417,0.98416 c 2.48373,1.31126 4.13628,3.72009 4.46683,6.51105 0.34828,2.94069 -1.18726,6.22924 -3.73298,7.99462 l -1.75579,1.21759 -10.6089,0.13338 c -8.97474,0.11283 -10.72335,0.23694 -11.35188,0.80575 -0.67518,0.61103 -0.74297,1.7604 -0.74297,12.596 0,10.87807 0.0658,11.98313 0.75001,12.60236 0.63806,0.57744 2.33704,0.69771 11.38196,0.80576 l 10.63195,0.12701 1.62445,1.29343 c 1.92034,1.52903 3.52783,4.45587 3.52783,6.42328 0,2.95559 -1.88642,5.87576 -4.7416,7.33998 -1.41332,0.7248 -2.57337,0.80478 -11.67193,0.80478 -9.25011,0 -10.16172,0.0653 -10.80266,0.77351 -0.61818,0.68308 -0.70001,2.23708 -0.70001,13.29343 0,10.81778 0.0904,12.61029 0.66467,13.18459 0.56413,0.56414 2.08359,0.66503 10.0456,0.66703 5.35947,0.001 10.07987,0.19644 11.01136,0.45508 0.89674,0.249 2.46939,1.22605 3.49478,2.17122 4.67158,4.30611 3.61939,11.32449 -2.1644,14.43716 -1.64746,0.88661 -2.14727,0.91212 -19.03377,0.97131 -9.53804,0.0334 -17.76635,-0.0269 -18.28515,-0.13406 z"
     id="path14" />
  <path
     style="fill:#ffffff;stroke-width:0.422973"
     d="m 416.97301,335.63744 c -0.50822,-0.21111 -1.12996,-0.76861 -1.38164,-1.23888 -0.32244,-0.60248 -0.4243,-15.2056 -0.34488,-49.43923 l 0.11273,-48.5842 1.26891,-2.04871 c 3.2273,-5.21058 10.42543,-5.35529 13.95245,-0.28049 l 1.27457,1.8339 0.1141,40.4301 c 0.081,28.68712 0.24956,40.59332 0.58051,40.99208 0.36913,0.44479 3.16819,0.56286 13.42103,0.56613 12.75624,0.004 12.98776,0.0196 15.11898,1.01191 4.43215,2.06372 6.40735,7.1541 4.44882,11.46528 -0.81805,1.80073 -3.22472,4.168 -5.07402,4.99097 -1.37614,0.61239 -42.06405,0.89412 -43.49156,0.30114 z"
     id="path15" />
  <path
     style="fill:#ffffff;stroke-width:0.422973"
     d="m 474.49731,335.62591 c -0.50823,-0.20477 -1.13072,-0.7585 -1.38333,-1.2305 -0.32469,-0.60668 -0.42576,-15.08627 -0.34488,-49.40593 l 0.11441,-48.54773 1.0263,-1.79182 c 2.83511,-4.94978 9.62336,-5.8251 13.44033,-1.73309 2.32594,2.49355 2.24079,0.82035 2.24079,44.03211 0,30.46931 0.11997,40.01989 0.50757,40.40749 0.37216,0.37216 3.88514,0.50756 13.16882,0.50756 13.65993,0 14.90141,0.15557 17.35033,2.17418 3.21326,2.64864 4.07708,6.96532 2.16263,10.80711 -1.30813,2.62509 -3.44953,4.19708 -6.50727,4.77697 -2.79112,0.52932 -40.46284,0.53261 -41.7757,0.004 z"
     id="path16" />
</svg>
